<svg width="130" height="147" viewBox="0 0 130 147" fill="none" xmlns="http://www.w3.org/2000/svg">
<path d="M108.355 74.8307C108.413 73.8126 108.155 72.8158 107.653 71.9625C107.151 71.1091 106.503 70.4242 105.854 69.7393C104.409 68.538 102.914 67.5303 101.466 66.7413C100.018 65.9523 98.6915 65.0916 97.34 64.3277C95.9886 63.5639 94.7088 62.9219 93.429 62.2799C90.9411 61.1178 88.8618 60.3717 87.3131 59.9699C86.3451 59.7188 85.7644 59.5681 85.2804 59.4425C85.1014 57.7431 84.7038 56.0903 84.0874 54.484C83.446 52.9745 82.6575 51.6335 81.722 50.461C80.7864 49.2885 79.6071 48.2593 78.4743 47.4489C78.0406 47.1297 77.5817 46.9074 77.148 46.5882C77.1731 46.4914 77.2233 46.2978 77.1516 46.1759C77.5603 46.5919 78.1159 46.8393 78.6967 46.99C79.2775 47.1407 79.9085 47.0978 80.4427 47.0298C80.9769 46.9617 81.3677 46.6499 81.3677 46.6499C81.3677 46.6499 81.1527 46.2842 80.744 45.8682C80.3354 45.4523 79.7798 45.2048 79.199 45.0541C78.6182 44.9034 77.9872 44.9463 77.453 45.0144C77.3311 45.086 77.1375 45.0358 77.0156 45.1075C76.8508 44.5482 76.6143 43.8669 76.2559 43.2574C76.0874 43.1104 75.944 42.8666 75.7756 42.7195C75.6071 42.5725 75.4386 42.4255 75.1985 42.1566C74.7647 41.8374 74.3059 41.615 73.847 41.3927C73.3881 41.1703 72.9042 41.0447 72.3951 41.016C71.886 40.9872 71.3769 40.9584 70.9395 41.0515C70.5021 41.1447 70.0647 41.2378 69.6989 41.4529C69.3332 41.6679 68.9675 41.8829 68.6985 42.1231C68.4296 42.3633 68.1607 42.6034 68.0137 42.7719L67.9885 42.8687C67.9169 42.7468 67.7484 42.5998 67.5799 42.4527C67.1713 42.0368 66.6156 41.7893 66.0349 41.6386C65.4541 41.4879 64.8231 41.5308 64.2638 41.6957C63.7044 41.8605 63.3387 42.0755 63.3387 42.0755C63.3387 42.0755 63.5538 42.4412 63.9875 42.7604C64.3961 43.1764 64.9518 43.4238 65.5326 43.5745C66.1133 43.7252 66.7443 43.6823 67.3037 43.5175C67.4256 43.4458 67.5224 43.4709 67.6443 43.3992C67.594 43.5928 67.5438 43.7864 67.4219 43.8581C66.7909 43.901 66.1599 43.9439 65.6006 44.1087C64.0697 44.4347 63.0227 44.8862 62.2913 45.3163C61.7319 45.4811 61.0507 45.7176 60.3444 46.0509C58.9317 46.7175 57.2715 47.9397 55.7296 49.5026C55.1918 49.9829 54.7256 50.5851 54.2594 51.1874C53.8722 51.0869 53.2914 50.9362 52.5171 50.7353C51.7427 50.5344 50.8716 50.3084 49.7817 50.1289C48.6918 49.9495 47.5052 49.7449 46.0998 49.5869C44.7913 49.454 43.2891 49.2709 41.7367 49.2814C40.9121 49.274 40.1843 49.2918 39.3598 49.2845C38.5352 49.2772 37.6855 49.3667 36.8358 49.4561C35.1364 49.6351 33.4118 49.9108 31.6371 50.3802C30.7372 50.6632 29.8623 50.8495 29.0341 51.2545L28.4497 51.5161C28.2058 51.6594 28.0839 51.7311 27.8401 51.8745C27.3525 52.1612 26.9616 52.473 26.5923 53.1004C26.3197 53.7528 26.5562 54.4341 26.7712 54.7998C27.0579 55.2874 27.3949 55.5815 27.7318 55.8755C28.4057 56.4636 29.2016 56.98 29.9006 57.4713C30.6964 57.9877 31.4922 58.5041 32.2163 58.8986C32.1912 58.9954 32.0693 59.0671 32.0442 59.1639C31.8721 59.4292 31.6246 59.9848 31.5707 60.5907C31.42 61.1715 31.4127 61.9961 31.8177 62.8243C32.0076 63.2868 32.2226 63.6526 32.5596 63.9466C32.6313 64.0685 32.8965 64.2407 33.065 64.3877C33.2335 64.5347 33.4988 64.7068 33.6924 64.7571C34.5133 65.1767 35.5315 65.2342 36.4063 65.048C37.2811 64.8617 37.9158 64.4065 38.3568 63.9011C38.7728 63.4924 38.8732 63.1053 38.9486 62.8149C39.6978 63.1126 40.3252 63.482 41.0027 63.6578C40.9274 63.9481 40.7804 64.1166 40.7767 64.5289C40.7014 64.8193 40.6977 65.2316 40.7192 65.5471C40.7155 65.9594 40.8337 66.3 40.9269 66.7374C41.2351 67.5405 41.8587 68.3222 42.7765 68.767C42.9449 68.914 43.2604 68.8925 43.4289 69.0396C43.7193 69.1149 43.8161 69.14 44.1316 69.1186L44.4471 69.0971L44.8594 69.1008C45.0781 69.0542 45.2968 69.0076 45.5155 68.9611C45.978 68.7711 46.3437 68.5561 46.6127 68.3159C46.8816 68.0758 47.0789 67.7137 47.251 67.4484C47.4985 66.8928 47.5524 66.2869 47.6277 65.9965L47.6528 65.8997C48.1368 66.0253 48.524 66.1257 48.9363 66.1294C49.6389 66.2084 50.2197 66.3591 50.632 66.3627C51.1657 69.084 52.2085 71.834 53.9576 74.2507C55.0365 75.6671 56.2373 77.0117 57.707 78.1162C59.1767 79.2207 60.7935 80.1568 62.4855 80.8024C64.1776 81.448 66.0418 81.8284 67.9097 81.7965C68.8311 81.8289 69.8027 81.6678 70.6524 81.5783C71.0898 81.4852 71.5272 81.392 71.9898 81.2021C72.4272 81.109 72.8897 80.919 73.2554 80.704C74.9836 80.016 76.5935 78.9873 77.9382 77.7865C78.9888 76.9227 79.8961 75.815 80.6814 74.7791C81.0686 74.8795 82.1082 75.2526 83.7537 75.6795C83.6784 75.9699 83.5528 76.4539 83.6208 76.9881C83.6423 77.3036 83.6637 77.6191 83.782 77.9597C83.9002 78.3003 84.1153 78.666 84.4271 79.0569C84.7641 79.3509 85.101 79.645 85.4631 79.8422C85.8252 80.0395 86.2123 80.1399 86.6963 80.2655C87.5926 80.3947 88.4423 80.3052 89.2705 79.9003C89.6363 79.6852 90.0271 79.3734 90.1992 79.1081C90.4682 78.8679 90.5686 78.4808 90.644 78.1904C90.7444 77.8032 90.8198 77.5128 90.7983 77.1973C91.501 77.2763 92.2037 77.3553 93.0031 77.4594C92.9278 77.7498 92.8525 78.0402 92.8739 78.3557C92.9168 78.9867 93.1031 79.8615 93.6551 80.5213C93.8236 80.6683 93.992 80.8153 94.1354 81.0592C94.2322 81.0843 94.3039 81.2062 94.4007 81.2313C94.4975 81.2564 94.5691 81.3783 94.6659 81.4034C95.1248 81.6258 95.5837 81.8482 95.996 81.8518C96.989 82.0062 98.0109 81.6514 98.7674 81.1245C99.5491 80.5009 99.8468 79.7516 99.9258 79.0489C100.077 78.4682 100.008 77.934 99.987 77.6185C100.012 77.5217 99.9154 77.4966 99.9405 77.3998C101.106 77.2888 102.246 77.2747 103.508 77.1889L104.867 77.1282C105.376 77.157 105.813 77.0638 106.276 76.8739C106.738 76.684 107.201 76.494 107.52 76.0603C107.667 75.8918 107.839 75.6265 108.011 75.3613C108.036 75.2645 108.086 75.0709 108.137 74.8773C108.28 75.1211 108.305 75.0243 108.355 74.8307ZM68.0278 43.912C68.1497 43.8403 68.3935 43.6969 68.6122 43.6504C68.856 43.507 69.0747 43.4604 69.4154 43.3422C69.7309 43.3207 69.9747 43.1774 70.2902 43.1559C70.6057 43.1345 70.9212 43.113 71.2367 43.0916C71.5522 43.0701 71.9394 43.1706 72.2549 43.1491C72.5452 43.2245 72.9324 43.3249 73.2228 43.4003C73.5132 43.4756 73.8753 43.6728 74.1405 43.845C74.309 43.992 74.4058 44.0171 74.5743 44.1641C74.7428 44.3112 74.8395 44.3363 74.9112 44.4582C75.4167 44.8993 75.7751 45.5088 76.0618 45.9964C74.4916 45.2791 72.968 44.7805 71.5161 44.4038C70.1609 44.0522 68.8273 44.0161 67.6621 44.127C67.6621 44.127 67.784 44.0553 68.0278 43.912ZM37.6327 63.5066C36.7076 63.8864 35.4456 63.9722 34.553 63.4307C34.4562 63.4056 34.2878 63.2586 34.191 63.2335C34.1193 63.1116 33.9974 63.1832 33.854 62.9394C33.6855 62.7924 33.4454 62.5235 33.2769 62.3764C32.9651 61.9856 32.8003 61.4263 32.6354 60.867C32.4455 60.4044 32.4743 59.8954 32.356 59.5547C32.3812 59.4579 32.3812 59.4579 32.3095 59.336C32.9368 59.7054 33.5641 60.0748 34.1915 60.4442C35.6146 61.33 36.941 62.1907 38.3176 62.8578C38.2925 62.9546 38.1957 62.9295 38.1706 63.0263C38.0952 63.3166 37.8514 63.46 37.6327 63.5066ZM47.2369 66.3083C47.0647 66.5736 46.7707 66.9106 46.3798 67.2224C45.989 67.5342 45.5265 67.7242 45.0891 67.8173C44.9923 67.7922 44.8704 67.8639 44.7736 67.8388L44.3613 67.8351C44.2645 67.81 44.1677 67.7849 44.0709 67.7598C43.9741 67.7347 43.8773 67.7095 43.6837 67.6593C43.4901 67.6091 43.2248 67.4369 43.0564 67.2899C42.8879 67.1429 42.7445 66.8991 42.5761 66.7521C42.2893 66.2644 42.0994 65.8019 41.9346 65.2426C41.888 65.0239 41.8163 64.902 41.8666 64.7084C42.1569 64.7837 42.3254 64.9307 42.6158 65.0061C43.9458 65.4545 45.0823 65.8526 46.147 66.1289C46.4876 66.0106 46.8748 66.1111 47.2369 66.3083C47.262 66.2116 47.262 66.2116 47.2369 66.3083ZM49.1586 65.6705C47.7569 65.1002 45.7028 64.2573 43.1898 63.1921C41.9817 62.672 40.6768 62.1268 39.3002 61.4597C37.8985 60.8894 36.4 60.294 34.8047 59.6735C33.2094 59.053 31.6392 58.3357 30.2412 57.3531C29.5422 56.8618 28.8431 56.3705 28.1944 55.6856C27.8574 55.3915 27.6424 55.0258 27.5241 54.6852C27.4059 54.3446 27.3844 54.0291 27.5314 53.8606C27.8506 53.4269 28.6286 53.2155 29.5034 53.0292C30.2815 52.8178 31.1563 52.6316 32.0311 52.4453C33.6588 52.1444 35.3582 51.9655 37.0576 51.7865C38.7319 51.7044 40.2843 51.6939 41.765 51.5615C43.3174 51.5511 44.6762 51.4904 46.0098 51.5265C48.6772 51.5986 50.9323 51.6672 52.4595 51.7535C53.0654 51.8074 53.5745 51.8362 53.9868 51.8398C53.1512 53.0694 52.2654 54.4925 51.6449 56.0878C50.5545 58.6976 49.9696 61.7485 50.3526 65.0505C50.3741 65.366 50.4672 65.8034 50.4886 66.1189C50.0763 66.1153 49.6175 65.8929 49.1586 65.6705ZM72.9938 80.1196C72.6532 80.2378 72.2158 80.3309 71.7784 80.4241C71.341 80.5172 70.9036 80.6103 70.4913 80.6067C69.6416 80.6962 68.817 80.6888 67.9924 80.6815C66.2715 80.545 64.626 80.118 63.1275 79.5226C61.629 78.9272 60.1091 78.0163 58.9297 76.9871C57.6536 75.9329 56.6213 74.7352 55.7109 73.4659C53.9152 70.8305 52.9227 67.8869 52.536 64.9971C52.1493 62.1074 52.5621 59.3218 53.3836 56.9522C54.2301 54.4857 55.4853 52.4352 56.7368 50.797C58.0851 49.184 59.5266 48.0083 60.7708 47.1947C61.4055 46.7395 62.0867 46.503 62.5743 46.2163C63.1336 46.0514 63.5962 45.8615 64.0336 45.7684C64.9084 45.5821 65.3458 45.489 65.3458 45.489L65.3709 45.3922C65.5896 45.3456 65.7115 45.2739 65.9051 45.3242C67.3858 45.1918 69.3254 45.2818 71.2362 45.8808C73.2437 46.505 75.4915 47.3981 77.5634 48.9688C78.5994 49.7542 79.5135 50.6112 80.3773 51.6618C81.216 52.8092 81.9328 54.0283 82.5277 55.3191C83.6924 57.9974 84.4412 61.0844 84.3151 64.3576C84.189 67.6309 83.1164 70.9685 81.2229 73.8865C79.039 76.7291 76.2529 79.1056 72.9938 80.1196ZM89.676 77.9392C89.529 78.1077 89.2852 78.2511 89.1633 78.3228C88.9194 78.4661 88.7975 78.5378 88.5788 78.5844C88.1414 78.6775 87.6072 78.7455 87.1232 78.62C86.8329 78.5446 86.6393 78.4944 86.3489 78.419C86.0585 78.3437 85.89 78.1967 85.6964 78.1465C85.4312 77.9743 85.0476 77.4616 84.8326 77.0958C84.5924 76.8269 84.4742 76.4863 84.4276 76.2676C85.7828 76.6192 87.4534 76.9493 89.3176 77.3297C89.608 77.405 89.9235 77.3836 90.1171 77.4338C89.9701 77.6023 89.823 77.7708 89.676 77.9392ZM99.7181 77.8586C99.546 78.1239 99.3236 78.5828 99.0044 79.0165C98.6853 79.4502 98.2944 79.7621 97.9287 79.9771C97.4662 80.1671 96.932 80.2351 96.4229 80.2063C96.1325 80.131 95.9389 80.0807 95.6485 80.0054L95.4549 79.9552C95.3582 79.9301 95.3582 79.9301 95.2865 79.8081C95.1897 79.783 95.118 79.6611 94.9244 79.6109C94.4907 79.2917 94.2039 78.8041 93.9889 78.4384C93.9423 78.2197 93.7738 78.0726 93.7273 77.8539C95.2545 77.9403 96.8069 77.9298 98.3844 77.8225C98.7967 77.8262 99.3309 77.7582 99.7432 77.7618C99.7432 77.7618 99.7432 77.7618 99.7181 77.8586ZM106.061 76.5082C105.695 76.7232 105.257 76.8163 104.942 76.8378L103.68 76.9236C101.909 76.9807 100.26 76.966 98.5639 76.7327C96.9649 76.5244 95.2692 76.2911 93.767 76.108C92.2649 75.9248 90.8595 75.7668 89.551 75.634C86.9338 75.3682 84.7039 75.2028 83.0798 75.0914C82.0616 75.0339 81.359 74.9549 80.9467 74.9512C81.1188 74.6859 81.2909 74.4207 81.4631 74.1554C83.4785 71.1657 84.7698 67.7815 85.1397 64.3649C85.3228 62.8628 85.3123 61.3104 85.1799 59.8297C85.1799 59.8297 85.1799 59.8297 85.2767 59.8548C85.6388 60.0521 86.1945 60.2995 86.9186 60.6941C88.2952 61.3611 90.274 62.4944 92.5181 63.7998C93.6759 64.5135 94.8338 65.2272 96.1853 65.9911C96.8126 66.3604 97.5116 66.8517 98.139 67.2211C98.8631 67.6156 99.5621 68.1069 100.311 68.4046C101.76 69.1936 103.208 69.9826 104.606 70.9652C105.882 72.0195 107.133 73.1706 107.24 74.7481C107.355 75.501 106.792 76.0781 106.061 76.5082Z" fill="#1C62C3"/>
<path d="M81.7063 57.6886C81.6922 56.5486 81.4594 55.455 81.3484 54.2898L81.2302 53.9492L80.8681 53.752C80.1691 53.2607 79.4199 52.963 78.6957 52.5685C77.9465 52.2708 77.1004 51.9479 76.3512 51.6502C75.5768 51.4493 74.7057 51.2233 73.9313 51.0224C73.157 50.8215 72.2607 50.6922 71.4612 50.5881L66.5927 49.8415C64.9937 49.6333 63.3948 49.4251 61.7242 49.0949L61.5306 49.0447L61.3835 49.2132C59.8919 50.5824 58.5686 52.0987 57.5824 53.909C56.5961 55.7194 55.972 57.727 55.6633 59.7131L55.6094 60.319L56.1399 60.6632L57.4663 61.5239L58.7926 62.3846C59.6852 62.9261 60.603 63.3709 61.5207 63.8156C62.4384 64.2603 63.478 64.6334 64.446 64.8845L65.9947 65.2863L67.5686 65.5914L69.0456 65.8713L70.5477 66.0544C71.0568 66.0832 71.5659 66.1119 72.075 66.1407L73.6274 66.1302C74.6707 66.091 75.714 66.0518 76.6605 65.9874C77.7289 65.8514 78.7005 65.6902 79.6972 65.4322L79.6507 65.2135C79.1416 65.1848 78.6325 65.156 78.0983 65.224L76.571 65.1377L75.0437 65.0514L73.6384 64.8934C72.6453 64.739 71.6522 64.5847 70.756 64.4554C69.7629 64.3011 68.795 64.05 67.9238 63.8239C66.9559 63.5728 66.1098 63.25 65.167 62.902L63.7653 62.3317C63.3064 62.1094 62.8476 61.887 62.4604 61.7866L61.1806 61.1446L59.9008 60.5026L58.6461 59.7638L57.9471 59.2725C58.0261 58.5698 58.2019 57.8923 58.3777 57.2147C58.5033 56.7307 58.6037 56.3436 58.8261 55.8847C58.9517 55.4007 59.1489 55.0387 59.3713 54.5798C59.6941 53.7338 60.2105 52.9379 60.6301 52.117C61.1214 51.418 61.6378 50.6222 62.2008 50.0451C63.7281 50.1314 65.2553 50.2177 66.8543 50.4259C67.6538 50.5301 68.4532 50.6342 69.2276 50.8351C70.002 51.036 70.7763 51.2369 71.5507 51.4378C73.0743 51.9364 74.5979 52.4351 76.0713 53.1273C76.4333 53.3245 76.7954 53.5218 77.1826 53.6222L78.2939 54.1172L79.2833 54.6838C79.5486 54.856 79.7422 54.9062 80.0074 55.0783C80.1937 55.9531 80.3549 56.9248 80.4443 57.7745C80.5804 58.8429 80.6196 59.8862 80.5621 60.9043C80.5045 61.9225 80.4219 63.0375 80.3392 64.1525C80.2565 65.2674 80.0771 66.3573 79.8976 67.4472L80.0912 67.4974C80.9341 65.4432 81.5834 63.3389 81.8706 61.0372C81.7346 59.9688 81.7456 58.7319 81.7063 57.6886Z" fill="#1C62C3"/>
<path d="M68.1881 69.5747C67.7794 69.1588 67.127 68.8862 66.4494 68.7104C65.7719 68.5346 65.0189 68.6492 64.5564 68.8391C63.9971 69.0039 63.7031 69.3409 63.7031 69.3409C63.7031 69.3409 64.0149 69.7317 64.4738 69.9541C64.9075 70.2732 65.56 70.5458 66.1658 70.5997C66.7466 70.7504 67.4744 70.7326 68.0337 70.5678C68.5679 70.4998 68.9337 70.2847 68.9337 70.2847C68.9337 70.2847 68.7186 69.919 68.1881 69.5747Z" fill="#1C62C3"/>
</svg>
