<svg width="122" height="141" viewBox="0 0 122 141" fill="none" xmlns="http://www.w3.org/2000/svg">
<path d="M86.6793 54.8292C88.0531 53.9791 89.23 53.1636 90.4586 52.6435C92.6204 51.6553 94.694 51.9008 96.726 53.0674C98.428 54.0888 99.6721 55.3935 100.672 57.0456C102.274 59.8105 101.958 63.2163 99.5624 65.7684C98.0312 67.4583 96.1355 68.8059 94.2225 70.0551C92.669 71.0382 90.8666 71.7604 89.047 72.384C86.6536 73.2098 84.1688 72.9349 81.8119 72.2314C79.8835 71.6558 78.019 70.866 76.0734 70.1919C73.8299 77.083 68.2776 79.5795 61.8272 76.9541C60.8315 81.6974 57.7174 84.7816 53.1226 85.7904C48.1511 86.9667 44.6607 84.4315 42.0933 80.2115C40.4169 82.2314 38.5212 83.5791 36.3594 84.5673C30.0537 87.399 24.2065 84.1603 21.3902 79.6793C19.0076 75.9346 18.7107 71.9256 20.2558 67.9997C21.801 64.0738 24.8684 61.3024 29.0692 60.3627C30.1354 60.0742 31.4038 60.3594 32.5218 60.3664C32.7897 58.9996 32.9246 57.4531 33.3896 56.0517C33.8545 54.6503 35.1126 53.7191 36.5209 53.066C37.9293 52.4129 39.355 51.8583 40.8618 51.188C40.8567 50.5798 40.8515 49.9715 40.7479 49.3805C40.3749 46.0956 40.9402 42.9507 42.0153 39.8179C43.2995 36.1408 47.4383 33.6891 51.4057 34.3133C57.1512 35.2348 61.7595 37.777 64.3373 43.2135C65.291 45.1783 66.0649 47.2761 66.972 49.5537C68.9195 48.5015 70.537 47.3042 72.6624 47.8452C74.6893 48.4035 75.7536 49.8413 76.4291 51.9564C78.2903 50.4117 80.1738 49.5738 82.3338 50.3118C84.5282 51.2468 85.8068 52.7486 86.6793 54.8292ZM43.2271 54.8343C42.1385 54.416 41.1778 53.5692 40.6214 53.8698C38.9003 54.4762 37.1325 55.3954 35.6947 56.4597C34.7961 57.1249 34.6094 58.376 34.7181 59.5752C34.8045 60.0677 34.9893 60.5429 35.0757 61.0354C35.3348 62.5128 34.7317 63.1262 33.1678 62.8928C32.7566 62.8634 32.328 62.7355 31.8995 62.6076C29.8726 62.0493 28.0184 62.476 26.2852 63.5921C22.8359 65.9229 20.9383 68.9968 20.9743 73.2546C20.9393 78.8447 26.0952 83.9306 31.7319 83.6528C35.5612 83.489 38.5058 81.7543 40.6816 78.5301C41.7203 76.9266 42.23 76.9387 43.1146 78.5095C43.6813 79.4254 44.2481 80.3413 44.7975 81.1587C46.527 83.4951 48.9703 84.691 51.8095 84.0916C55.4366 83.3541 58.4624 81.5036 59.5963 77.5484C59.7242 77.1198 59.8521 76.6913 59.9973 76.3613C60.5902 74.5314 60.9842 74.4623 62.6343 75.1882C63.7402 75.7049 65.0258 76.0886 66.2596 76.1769C69.8452 76.3603 73.5157 72.9755 73.8322 69.5696C74.0087 67.1021 74.5011 67.0157 76.6956 67.9507C78.7743 68.8045 80.9515 69.6411 83.2739 70.1475C84.7565 70.4967 86.3843 70.5159 87.8445 70.1583C91.437 69.2237 94.5614 67.356 97.1536 64.7694C97.8379 64.0403 98.372 63.0329 98.709 62.0601C99.1273 60.9715 99.2155 59.7377 98.4518 58.8563C97.5378 57.6968 96.5426 56.653 95.4661 55.725C94.2911 54.8142 92.8603 54.7605 91.4347 55.3151C89.9106 55.8869 88.8841 56.9807 87.8748 58.1729C87.289 58.8848 86.9519 59.8576 85.7994 59.6536C84.531 59.3684 84.6365 58.2331 84.3826 57.3639C84.3308 57.0684 84.3602 56.6572 84.2099 56.379C83.892 55.724 83.5568 54.9706 83.0592 54.4487C81.5318 52.686 80.0198 52.7481 78.3901 54.4552C78.048 54.8198 77.7231 55.2829 77.3982 55.746C76.8935 56.3421 76.4062 57.0367 75.5491 56.7809C74.6921 56.5251 74.4554 55.7544 74.3172 54.9664C74.2136 54.3754 74.0927 53.6859 73.8906 53.1122C73.2963 50.8813 71.6634 50.2539 69.7677 51.6016C69.2285 52.0007 68.8224 52.5796 68.3005 53.0772C67.1755 54.1882 66.2372 54.0482 65.4856 52.6571C65.3353 52.3789 65.2662 51.9849 65.1159 51.7066C64.2607 49.7246 63.4055 47.7425 62.5503 45.7604C60.4357 40.6488 56.3543 38.2172 51.1186 37.3079C48.0895 36.8238 44.9651 38.6915 43.954 41.61C42.9774 44.7255 42.5106 47.8531 42.8836 51.1381C43.0045 51.8275 43.0442 52.6328 43.426 53.0735C44.0221 53.5781 43.7145 54.1397 43.2271 54.8343Z" fill="#1C62C3"/>
</svg>
