<svg width="144" height="150" viewBox="0 0 144 150" fill="none" xmlns="http://www.w3.org/2000/svg">
<path d="M115.96 83.9714C113.01 80.7544 110.139 77.4188 106.527 74.9135C103.6 72.8842 100.282 71.4329 96.7367 70.9589C95.1641 70.7487 93.5506 70.7811 92.0251 71.2121C94.0138 64.3343 93.9185 57.1787 93.1468 50.1004C92.9224 48.0429 92.6501 45.9911 92.3677 43.9407C92.3489 43.8041 92.2663 43.7341 92.1683 43.7096C92.1135 43.6882 92.052 43.678 91.9782 43.6988C84.9612 45.6693 77.8277 47.7691 71.595 51.6442C70.0342 52.6146 68.5468 53.7006 67.1339 54.8752C66.7318 51.8634 64.8107 49.1046 62.7734 46.9504C60.0871 44.1099 56.658 42.1045 53.067 40.6228C50.7049 39.6482 48.2686 38.8686 45.8542 38.0375C45.5031 37.9166 45.2482 38.3146 45.3824 38.614C49.2382 47.2132 49.6857 57.1029 47.7803 66.231C47.2323 68.8566 46.5511 71.4586 45.6543 73.9865C45.4383 74.0342 45.3771 74.4053 45.6444 74.5108C56.4017 78.7558 66.4788 84.6482 75.444 91.9569C78.0036 94.0436 80.4643 96.2497 82.8289 98.5543C83.134 98.8517 83.5977 98.4912 83.4643 98.1704C84.5337 97.1735 85.646 96.2165 86.796 95.3022C86.8549 95.2751 86.9033 95.232 86.9441 95.183C93.0662 90.3496 100.259 86.7679 107.937 85.3308C110.482 84.8544 113.063 84.6204 115.654 84.6489C116 84.6528 116.198 84.2306 115.96 83.9714ZM54.8416 77.9164C51.9385 76.4947 48.9704 75.2133 45.9521 74.0577C46.4813 72.7245 46.9518 71.3667 47.3695 69.9914C58.6598 74.4543 69.24 80.6447 78.6473 88.3227C81.286 90.4764 83.8244 92.7509 86.2659 95.125C85.2294 96.0219 84.2315 96.9635 83.2632 97.9371C74.8999 89.8296 65.306 83.0411 54.8416 77.9164ZM89.3548 92.6808C88.4875 93.299 87.6569 93.9614 86.8427 94.643C78.0337 86.0941 67.92 78.9351 56.8898 73.5391C53.8314 72.0429 50.7055 70.6927 47.526 69.4764C49.7773 61.7767 50.2505 53.5279 48.5221 45.6619C48.0292 43.4184 47.3304 41.2234 46.4533 39.0997C50.1033 40.3603 53.7997 41.5502 57.1334 43.5405C60.1165 45.3214 62.7667 47.6622 64.6197 50.6232C65.5665 52.1359 66.3173 53.8306 66.4352 55.6286C66.4567 55.9567 66.8308 56.1693 67.0966 55.9288C72.5298 51.0144 79.448 48.2082 86.36 46.0425C88.1589 45.4788 89.9703 44.9557 91.7812 44.4317C92.6884 51.4373 93.5486 58.5472 92.5246 65.5838C92.2235 67.6529 91.7499 69.6885 91.0831 71.6695C90.9955 71.9297 91.2716 72.2669 91.5528 72.1657C94.6016 71.0695 98.0779 71.7864 101.027 72.8895C104.597 74.2245 107.703 76.573 110.398 79.2289C111.908 80.7169 113.325 82.2963 114.759 83.8575C105.614 84.0257 96.7506 87.4096 89.3548 92.6808Z" fill="#FF80A6"/>
<path d="M79.9451 50.3097C78.8533 50.5429 77.7841 51.018 76.768 51.4691C75.6491 51.9658 74.5585 52.5252 73.4967 53.1337C71.4123 54.3283 69.4508 55.7177 67.6268 57.279C67.4389 57.4399 67.6983 57.715 67.8872 57.5602C69.7401 56.0418 71.7157 54.672 73.809 53.5037C74.7891 52.9568 75.7941 52.4556 76.8175 51.9944C77.8866 51.5126 79.0114 51.1418 80.0685 50.6377C80.2526 50.5499 80.138 50.2685 79.9451 50.3097Z" fill="#FF80A6"/>
<path d="M86.1939 48.0495C84.8459 48.2548 83.473 48.5868 82.2467 49.19C82.0781 49.2729 82.1799 49.566 82.3649 49.5044C83.0117 49.2888 83.6554 49.0572 84.3106 48.8677C84.9582 48.6804 85.6165 48.532 86.2817 48.422C86.5259 48.3816 86.4357 48.0128 86.1939 48.0495Z" fill="#FF80A6"/>
<path d="M52.2342 57.725C52.2144 55.5842 52.1521 53.3352 51.622 51.2485C51.5834 51.0964 51.3296 51.1087 51.3387 51.2769C51.4572 53.4595 51.7634 55.619 51.7925 57.8099C51.8221 60.0344 51.7237 62.2574 51.4741 64.4674C51.4533 64.6523 51.7359 64.655 51.7612 64.4754C52.0766 62.2398 52.2553 59.9845 52.2342 57.725Z" fill="#FF80A6"/>
<path d="M51.2414 48.0698C51.2235 47.8698 51.2134 47.6691 51.2109 47.4683C51.2084 47.2712 51.2136 47.0739 51.2223 46.8771C51.2316 46.6658 51.2376 46.4577 51.2386 46.2462C51.2397 46.0456 50.924 45.9783 50.8779 46.1888C50.831 46.4031 50.8011 46.6105 50.7939 46.8301C50.7867 47.0449 50.7917 47.2596 50.805 47.4742C50.8181 47.6859 50.8392 47.8972 50.868 48.1073C50.8818 48.2083 50.9072 48.3086 50.9342 48.4069C50.9619 48.5081 51.0192 48.6018 51.0675 48.6949C51.1088 48.7745 51.2188 48.7383 51.2269 48.6579C51.2364 48.5647 51.2593 48.468 51.2559 48.3746C51.2522 48.2732 51.2504 48.171 51.2414 48.0698Z" fill="#FF80A6"/>
</svg>
