<svg width="130" height="162" viewBox="0 0 130 162" fill="none" xmlns="http://www.w3.org/2000/svg">
<path d="M99.2139 73.1614C99.132 73.162 97.1915 73.1943 95.9188 74.6251C95.1041 75.5408 94.7722 76.7788 94.9031 78.2175L89.879 78.4561C89.3413 78.4814 88.9256 78.9371 88.9516 79.473C88.9764 79.9939 89.4074 80.3989 89.9247 80.3989C89.9399 80.3989 89.9558 80.3982 89.9717 80.3976L95.4023 80.1396C96.0017 81.2398 97.2254 82.2758 99.5033 82.2758C99.6233 82.2758 99.7464 82.2732 99.874 82.2669C100.935 82.2169 103.108 81.4493 103.742 78.9168C103.81 78.6561 103.862 78.3745 103.898 78.0157C103.971 76.44 103.1 73.398 99.2139 73.1614ZM101.853 78.4359C101.42 80.1615 99.9381 80.3141 99.7813 80.3254C97.1242 80.452 96.8728 78.6801 96.8519 78.2517C96.737 77.2297 96.9109 76.4469 97.368 75.9255C98.044 75.1541 99.1859 75.1066 99.1643 75.1035C101.896 75.2731 101.964 77.4898 101.954 77.8714C101.934 78.0707 101.9 78.2549 101.853 78.4359Z" fill="#1C62C3"/>
<path d="M80.5765 74.0461C80.4946 74.0468 78.5535 74.0784 77.2808 75.5092C76.4347 76.4603 76.0963 77.7532 76.2703 79.2643C76.2976 80.6116 77.2922 83.1599 80.866 83.1599C80.9859 83.1599 81.1091 83.1574 81.2367 83.151C82.2967 83.1011 84.4702 82.3341 85.1037 79.8016C85.1722 79.5415 85.2243 79.2599 85.2598 78.9004C85.3328 77.3247 84.4619 74.2828 80.5765 74.0461ZM83.2146 79.32C82.7823 81.0457 81.3014 81.1982 81.144 81.2096C78.4761 81.3317 78.2349 79.5643 78.2139 79.1365C78.099 78.1139 78.2729 77.3311 78.7306 76.8096C79.406 76.0389 80.5473 75.9914 80.5264 75.9882C83.2578 76.1578 83.3257 78.3746 83.3162 78.7562C83.2958 78.9549 83.2616 79.139 83.2146 79.32Z" fill="#1C62C3"/>
<path d="M51.4376 80.1355L47.9844 80.2994C47.9133 78.6611 46.9009 76.0343 43.3011 75.8147C43.2192 75.8153 41.2781 75.847 40.0054 77.2778C39.1907 78.1935 38.859 79.4315 38.9897 80.8707L32.1667 81.1942C31.6291 81.2195 31.2133 81.6752 31.2393 82.2112C31.2641 82.732 31.6951 83.137 32.2124 83.137C32.2276 83.137 32.2435 83.1363 32.2594 83.1357L39.5009 82.7923C39.682 83.1246 39.9217 83.4645 40.2581 83.778C41.0782 84.5424 42.1966 84.9291 43.5861 84.9291C43.7087 84.9291 43.8337 84.9259 43.9607 84.9196C44.916 84.8747 46.7746 84.2476 47.5991 82.2637L51.5302 82.077C52.0679 82.0517 52.4837 81.5961 52.4576 81.0601C52.4322 80.5241 51.9873 80.1045 51.4376 80.1355ZM45.9418 81.0772C45.9411 81.0816 45.9399 81.0854 45.9392 81.0892C45.5069 82.8142 44.0254 82.9667 43.868 82.9781C42.8543 83.0218 42.0995 82.8225 41.605 82.3725C40.9868 81.8093 40.9449 80.9917 40.9385 80.905C40.8236 79.8824 40.9976 79.0996 41.4552 78.5782C42.1306 77.8074 43.2726 77.76 43.251 77.7568C45.9824 77.9264 46.0503 80.1431 46.0408 80.5222C46.0198 80.7215 45.9868 80.9063 45.9418 81.0772Z" fill="#1C62C3"/>
<path d="M112.992 62.7396C112.826 62.3353 112.411 62.0821 111.975 62.1422L101.908 63.3319C101.696 63.3566 101.498 63.4503 101.345 63.5977L96.9941 67.7882L81.9047 68.5723C81.9057 68.5594 81.9129 68.5487 81.9133 68.5355C82.2865 57.1437 81.1979 50.513 78.6773 48.8291C77.9936 48.3722 77.3024 48.3444 76.8358 48.4741L73.4829 48.7495L71.9234 38.0758C71.8478 37.5606 71.3819 37.1854 70.8614 37.2487C67.0395 37.6296 64.6134 38.4839 63.6505 39.7862C63.203 40.3925 63.1858 40.9272 63.2125 41.1829L63.6109 49.5602L35.8401 51.8407C33.5797 51.7217 31.9268 52.1691 30.9124 53.1544C29.9482 54.091 29.9501 55.1598 29.9546 55.2971L30.4746 66.186C30.2912 66.1615 30.119 66.1488 29.959 66.1498C25.7746 66.2378 23.1334 66.3992 21.7375 67.8977C20.3366 69.4006 20.4635 71.8002 20.694 76.1559C21.0285 82.4859 25.1627 88.3223 28.4838 93.0115C29.3024 94.1667 30.0867 95.2741 30.7671 96.3174C27.0846 97.5803 23.3364 99.4623 22.0517 102.116C21.8175 102.599 22.0206 103.18 22.5056 103.414C22.6421 103.479 22.7868 103.51 22.929 103.51C23.2914 103.51 23.6393 103.308 23.8075 102.961C24.8136 100.884 28.5873 98.8245 34.1612 97.3108C36.751 96.6065 39.7096 96.335 42.276 96.571C44.9401 96.8134 47.2259 98.0689 49.6456 99.3972C50.712 99.9832 51.8153 100.589 52.9528 101.1C56.3799 102.637 60.2164 103.204 64.6896 102.835C67.2559 102.621 69.5919 100.996 71.851 99.4238C72.9212 98.6796 73.9324 97.9765 74.9137 97.4608C79.8306 94.8776 85.4674 96.6388 90.8203 98.6656C94.1497 99.9262 96.5732 100.582 99.8518 100.42C101.707 100.33 110.963 99.6914 110.943 95.9787C110.94 95.4434 110.504 95.0118 109.968 95.0118C109.966 95.0118 109.964 95.0118 109.963 95.0118C109.424 95.015 108.99 95.4522 108.993 95.9889C108.999 96.9995 104.337 98.2556 99.7566 98.479C97.7594 98.5714 96.0899 98.3171 94.2615 97.7837C119.687 80.0742 113.284 63.4529 112.992 62.7396ZM65.1587 41.0468C65.2234 40.9025 65.8461 39.8426 70.1302 39.2882L71.5358 48.9093L65.5552 49.4005L65.1587 41.0538C65.1587 41.0512 65.1587 41.0493 65.1587 41.0468ZM32.2727 54.5472C32.8739 53.9638 34.1243 53.691 35.8014 53.7853C35.8446 53.7853 35.8903 53.786 35.9347 53.7834L77.1132 50.4023C77.2237 50.3928 77.3316 50.3656 77.4331 50.32C77.4998 50.2909 77.5366 50.4074 77.5918 50.4441C78.2717 50.8984 80.4533 53.5417 79.9646 68.4723C79.9623 68.5424 79.9862 68.605 79.9981 68.6714L45.1175 70.4841L44.4875 57.2987C44.4755 57.0411 44.3612 56.7988 44.1695 56.6254C43.9778 56.452 43.7252 56.3615 43.4675 56.3742L38.0992 56.6292C37.5616 56.6545 37.1458 57.1101 37.1718 57.6461C37.1972 58.1821 37.6295 58.5795 38.1919 58.5706L42.5864 58.3618L43.1674 70.5201C41.1617 70.3138 38.2026 69.0723 35.7677 68.042C34.5283 67.5174 33.4155 67.0527 32.4517 66.7142L31.9027 55.2231C31.9027 55.2199 31.9344 54.8763 32.2727 54.5472ZM91.9548 97.0107C91.8064 96.9558 91.6647 96.906 91.5122 96.8482C85.9968 94.7612 79.6389 92.7811 74.0048 95.7408C72.9155 96.3129 71.8072 97.0843 70.7351 97.8297C68.6873 99.2542 66.5704 100.727 64.5277 100.897C60.3909 101.239 56.8699 100.725 53.7538 99.3276C52.6874 98.8485 51.6197 98.2619 50.5863 97.6949C48.0974 96.328 45.5241 94.915 42.4537 94.6346C39.6633 94.3809 36.4539 94.6713 33.6483 95.4351C33.3332 95.5207 33.011 95.6125 32.6856 95.7078C31.919 94.4988 31.0248 93.2283 30.0771 91.8901C26.7344 87.1712 22.9461 81.8233 22.6414 76.0534C22.4459 72.3533 22.3279 70.1201 23.1657 69.2203C23.9611 68.3672 26.0031 68.1774 29.9996 68.0938C30.8172 68.0306 32.9665 68.9678 35.006 69.8309C38.1177 71.1484 41.6463 72.6444 44.0521 72.4862L44.2072 72.4781C44.217 72.4779 44.2268 72.4777 44.2368 72.4773C44.2381 72.4773 44.2392 72.4765 44.2405 72.4764L97.46 69.7107C97.4596 69.7107 97.4604 69.7107 97.46 69.7107L103.956 69.4025C104.493 69.3772 104.909 68.9216 104.883 68.3856C104.857 67.8496 104.401 67.4288 103.863 67.461L99.9477 67.6467L102.464 65.2234L111.415 64.166C112.361 67.4675 114.743 81.721 91.9548 97.0107Z" fill="#1C62C3"/>
<path d="M65.815 57.2594L67.9669 57.1575L68.1586 61.1708C68.1834 61.6916 68.6144 62.0966 69.1317 62.0966C69.1469 62.0966 69.1628 62.096 69.1787 62.0953C69.7163 62.07 70.1321 61.6144 70.1061 61.0784L69.868 56.0944C69.842 55.5577 69.3843 55.1508 68.848 55.1698L65.7224 55.3179C65.1847 55.3432 64.769 55.7988 64.795 56.3348C64.8204 56.8696 65.2571 57.2746 65.815 57.2594Z" fill="#1C62C3"/>
<path d="M57.6881 57.6454L59.84 57.5429L60.0317 61.5562C60.0564 62.077 60.4874 62.482 61.0047 62.482C61.02 62.482 61.0359 62.4813 61.0517 62.4807C61.5894 62.4554 62.0051 61.9998 61.9791 61.4638L61.7411 56.4797C61.729 56.2222 61.6148 55.9798 61.4231 55.8064C61.232 55.633 60.9711 55.5394 60.721 55.5552L57.5954 55.7039C57.0571 55.7292 56.642 56.1848 56.668 56.7208C56.6934 57.2568 57.1352 57.6504 57.6881 57.6454Z" fill="#1C62C3"/>
<path d="M49.5613 58.0307L51.7131 57.9288L51.9048 61.9421C51.9296 62.4629 52.3606 62.8679 52.8779 62.8679C52.8932 62.8679 52.909 62.8673 52.9249 62.8666C53.4625 62.8413 53.8783 62.3857 53.8523 61.8497L53.6142 56.8657C53.5889 56.3291 53.1407 55.9025 52.5942 55.9411L49.4686 56.0892C48.9309 56.1145 48.5152 56.5702 48.5412 57.1062C48.566 57.6415 48.9912 58.0484 49.5613 58.0307Z" fill="#1C62C3"/>
<path d="M48.7323 102.964C47.7306 102.85 46.7721 102.436 45.7571 101.998C44.6184 101.506 43.4402 100.998 42.0748 100.851C39.4107 100.565 36.652 101.964 34.8042 103.191C34.3561 103.489 34.2342 104.092 34.5332 104.539C34.7205 104.82 35.0302 104.972 35.3451 104.972C35.531 104.972 35.7189 104.92 35.8846 104.809C37.4645 103.76 39.7872 102.564 41.8641 102.783C42.9369 102.899 43.9303 103.328 44.9827 103.782C46.0834 104.257 47.2222 104.749 48.5114 104.895C49.0471 104.965 49.5302 104.573 49.5905 104.039C49.6514 103.506 49.2674 103.024 48.7323 102.964Z" fill="#1C62C3"/>
<path d="M67.4414 37.2075C67.4591 37.2081 67.4769 37.2088 67.494 37.2088C68.0088 37.2088 68.4392 36.8069 68.4671 36.2887C68.6569 32.7304 67.6629 29.8833 65.5123 27.8261C62.9828 25.4062 58.9501 24.2722 54.0973 24.5987C52.6862 22.0415 49.9504 20.3772 46.7937 20.2019C43.4688 20.0146 40.4702 21.5194 38.9518 24.1209C38.6814 24.5848 38.8388 25.1796 39.3047 25.4498C39.7687 25.7194 40.3673 25.5631 40.6377 25.098C41.7848 23.1325 44.094 22.0048 46.6852 22.1428C49.3582 22.2915 51.6344 23.7742 52.6259 26.013C52.7954 26.3965 53.1883 26.6294 53.6098 26.5883C58.1865 26.1618 61.9329 27.0952 64.1622 29.2284C65.8849 30.8768 66.6784 33.2176 66.5197 36.1849C66.4911 36.7209 66.9037 37.179 67.4414 37.2075Z" fill="#1C62C3"/>
<path d="M59.1233 36.0191C58.6853 36.1589 58.2835 36.288 57.9458 36.3671C55.7819 36.8746 53.7672 36.643 51.7886 35.6603C49.8837 34.7155 48.2238 35.5185 46.7587 36.2285C45.7685 36.7082 44.8335 37.1619 43.8122 37.1619H43.8058C43.3786 37.1607 42.9546 37.1417 42.535 37.1056C41.998 37.0543 41.5257 37.4543 41.4794 37.9896C41.433 38.525 41.8298 38.9958 42.3662 39.042C42.8435 39.0838 43.3786 39.1217 43.8109 39.1059C45.2823 39.1059 46.5194 38.506 47.6119 37.9764C49.054 37.2771 49.9199 36.9031 50.919 37.4005C53.3197 38.5927 55.7629 38.8749 58.3914 38.2592C58.7704 38.1706 59.2236 38.0276 59.7168 37.8707C61.0473 37.448 62.8704 36.8664 63.6905 37.4138C64.138 37.7106 64.7442 37.5903 65.0432 37.1448C65.3421 36.6981 65.2209 36.0944 64.7734 35.7963C63.1693 34.7307 60.9267 35.4445 59.1233 36.0191Z" fill="#1C62C3"/>
<path d="M36.4977 37.3658C36.6405 37.4392 36.7935 37.474 36.9446 37.474C37.2975 37.474 37.6384 37.2823 37.8117 36.9481C38.0586 36.471 37.8714 35.885 37.3927 35.6382C35.7773 34.8067 34.3871 33.6708 33.261 32.2622C32.9259 31.8439 32.3127 31.7755 31.8906 32.1084C31.4697 32.4431 31.4005 33.0544 31.7363 33.4746C33.0351 35.0978 34.6372 36.4071 36.4977 37.3658Z" fill="#1C62C3"/>
<path d="M72.0015 79.304L66.6153 79.5599C66.6036 77.9388 65.6572 75.1565 61.9386 74.9307C61.8567 74.9313 59.9156 74.9629 58.6429 76.3937C57.7967 77.3448 57.4584 78.6377 57.6323 80.1482C57.6596 81.4955 58.6549 84.0444 62.228 84.0444C62.348 84.0444 62.4711 84.0419 62.5987 84.0356C63.5306 83.9916 65.3208 83.3907 66.1714 81.5269L72.0942 81.2455C72.6318 81.2202 73.0476 80.7646 73.0216 80.2286C72.9956 79.6919 72.5576 79.2635 72.0015 79.304ZM64.5773 80.2045C64.145 81.9302 62.6628 82.0827 62.5061 82.0941C59.8305 82.2188 59.5969 80.4482 59.576 80.0204C59.4611 78.9984 59.635 78.2156 60.092 77.6942C60.7681 76.9234 61.91 76.8759 61.8884 76.8728C64.6205 77.0417 64.6884 79.2585 64.6789 79.6375C64.6579 79.8375 64.6249 80.0229 64.5773 80.2045Z" fill="#1C62C3"/>
</svg>
