<svg width="100" height="125" viewBox="0 0 100 125" fill="none" xmlns="http://www.w3.org/2000/svg">
<path d="M73.1399 11.91C65.1399 15.34 63.7299 24.28 67.3799 31.36C68.7099 33.93 75.6899 47.1 79.2399 45.36C81.8699 44.06 84.8099 38.63 86.4399 36.27C88.8599 32.78 91.4999 28.76 91.7799 24.4C91.3099 15.14 82.1999 8.05001 73.1399 11.91ZM80.7499 41.75C79.5799 43.16 79.1199 44.54 77.6899 43.95C75.6899 43.13 73.5199 38.74 72.3099 37.02C68.2399 31.23 63.8999 24.39 68.3099 17.47C75.0499 7.09001 89.9999 13.08 90.5799 24.39C90.1799 30.75 84.6299 37.07 80.7499 41.75ZM78.5099 16.61C76.8231 16.4206 75.1278 16.8853 73.7734 17.9086C72.419 18.9318 71.5087 20.4356 71.23 22.11C71.168 22.169 71.126 22.2459 71.11 22.33C70.8999 23.2923 70.887 24.2873 71.0721 25.2547C71.2571 26.2222 71.6364 27.1421 72.1868 27.9589C72.7373 28.7758 73.4476 29.4726 74.2749 30.0073C75.1021 30.542 76.0291 30.9035 76.9999 31.07C80.9099 31.8 85.3099 29.39 85.6299 25.15C85.6792 23.1055 84.9845 21.1127 83.6749 19.5419C82.3653 17.9711 80.53 16.9293 78.5099 16.61ZM72 24.46C72.144 24.4401 72.275 24.3658 72.3661 24.2524C72.4572 24.139 72.5015 23.995 72.4899 23.85C72.4399 20.6 74.6699 17.67 78.1699 17.92C79.7648 18.1413 81.2387 18.893 82.3543 20.054C83.4699 21.2149 84.1623 22.7176 84.3199 24.32C84.7499 31.85 72.71 31.35 72 24.46ZM24.4699 43.2C14.8799 43.61 6.46995 53.1 9.14995 62.8C11.4999 71.4 18.5499 79.26 24.3899 85.8C24.4448 85.863 24.5135 85.9125 24.5908 85.9445C24.668 85.9764 24.7515 85.99 24.8349 85.9842C24.9183 85.9784 24.9991 85.9533 25.0712 85.9109C25.1432 85.8686 25.2044 85.8101 25.25 85.74C25.2978 85.7951 25.357 85.8393 25.4234 85.8696C25.4898 85.8999 25.562 85.9155 25.635 85.9155C25.7079 85.9155 25.7801 85.8999 25.8465 85.8696C25.9129 85.8393 25.9721 85.7951 26.02 85.74C31.71 79.15 38.7999 71.13 40.7999 62.46C43.0899 52.41 34.4999 42.78 24.4699 43.2ZM37.5299 67.34C34.3399 73.7 29.78 79.47 25.15 84.83C20.5702 79.8859 16.5245 74.4726 13.0799 68.68C10.7899 64.68 9.07995 60.51 10.3299 55.83C11.1799 52.6769 13.0053 49.8733 15.545 47.8203C18.0848 45.7673 21.2087 44.5702 24.4699 44.4C27.4742 44.2625 30.4481 45.0523 32.9882 46.6623C35.5284 48.2722 37.512 50.6245 38.6699 53.4C40.7699 58.42 39.8499 62.73 37.5299 67.34ZM33 55.59C35.23 60.28 33.2099 65.37 29.2099 68.3C28.5799 68.76 27.77 67.7 28.37 67.22C31.58 64.67 33.47 60.73 31.87 56.71C31.1534 54.9031 29.7642 53.4445 27.9944 52.6407C26.2246 51.8369 24.212 51.7506 22.3799 52.4C12.9999 55.66 18.29 69.54 27.7 66.68C28.2 66.53 28.41 67.3 27.91 67.45C23.22 68.88 18.1199 66.87 16.5499 61.99C15.8859 59.8599 16.048 57.5578 17.0041 55.5418C17.9602 53.5258 19.6403 51.9436 21.7099 51.11C23.8113 50.312 26.1353 50.3292 28.2247 51.1583C30.314 51.9873 32.0175 53.5683 33 55.59ZM78.3999 48.26C78.9499 52.49 76.2199 55.74 72.3399 57.21C64.5799 60.14 53.6799 54.94 50.5299 65.65C48.9999 71 48.2099 75.46 44.3699 79.77C40.8655 83.7102 36.1714 86.3995 31 87.43C29.89 87.66 29.41 85.97 30.53 85.72C36.4811 84.5154 41.7227 81.0257 45.13 76C48.03 71.65 47.7199 66.38 50.2599 62C55.7199 52.66 78.5099 61.41 77.4399 48.23C77.3899 47.63 78.3199 47.66 78.3999 48.26Z" fill="#1C62C3"/>
</svg>
