<svg width="107" height="108" viewBox="0 0 107 108" fill="none" xmlns="http://www.w3.org/2000/svg">
<g clip-path="url(#clip0_61_128)">
<path d="M66.2214 48.5106C65.5953 52.0301 65.2 55.3323 64.3937 58.5319C63.1719 63.3808 63.8373 67.9581 65.5587 72.5233C65.927 73.5924 66.0686 74.7271 65.9743 75.8552C65.8929 77.065 64.9909 77.7108 63.7625 77.835C63.1312 77.8196 62.5019 77.9154 61.9031 78.1179C59.9036 79.1412 57.8383 78.8882 55.7594 78.6405C51.4208 78.1236 47.5939 76.3497 44.0154 73.9292C43.6433 73.6087 43.198 73.3847 42.7185 73.2769C42.2391 73.1691 41.7402 73.1807 41.2656 73.3107C39.9925 73.7009 37.7745 72.1532 37.3528 70.3236C37.2358 69.8159 37.2104 69.2868 37.1503 68.8235C34.38 67.8502 32.1288 66.1741 29.949 64.3786C29.5994 64.066 29.2144 63.7954 28.8018 63.5724C26.684 62.5451 25.5306 60.6239 24.3383 58.7567C23.6013 57.6024 23.285 53.9551 23.6779 53.0716C24.8085 50.5293 26.9392 49.3441 29.5123 48.9694C33.3506 48.4103 36.2529 46.3248 38.7885 43.5944C40.3092 41.957 41.7191 40.217 43.2095 38.5505C43.5429 38.2907 43.8892 38.0479 44.2473 37.8233C44.4858 37.6483 44.6461 37.3864 44.6933 37.0946C43.881 35.1663 45.1898 33.678 45.8186 32.1272C46.7357 29.7802 47.8729 27.5249 49.2148 25.3913C50.1833 24.1008 51.3766 22.9954 52.737 22.1285C53.6435 21.474 55.9075 22.271 56.5096 23.2613C57.5129 24.9116 58.4792 26.5845 59.5418 28.3846C59.8562 27.8923 60.1279 27.374 60.3538 26.8354C61.6332 22.8075 64.0568 19.4434 66.5809 16.1484C67.0457 15.7208 67.5974 15.3988 68.1978 15.2045C68.6635 15.0083 69.1391 14.8369 69.6227 14.6909C71.1562 15.7539 71.3281 17.0987 70.2717 19.5228C69.4078 21.5053 68.7129 23.5671 67.7547 25.5006C67.0311 26.7209 66.2336 27.8958 65.3667 29.0189C64.6744 30.0233 64.1149 31.1128 63.7022 32.2603C65.8441 31.4589 68.0196 30.7364 70.1197 29.8367C72.9548 28.6223 74.6921 29.7948 74.1952 33.0468C73.4727 37.7758 72.1671 42.3621 69.3765 46.3626C68.5958 47.4819 67.7985 48.7375 66.2214 48.5106ZM59.8 40.0452C58.2796 39.1531 56.8638 38.707 56.0688 37.7463C55.2937 36.8094 54.7205 36.9312 53.9028 37.2667C52.0207 38.0389 50.1656 38.8823 48.2594 39.5877C47.6122 39.7268 46.9475 39.7639 46.2895 39.6977C45.8178 39.7095 45.3454 39.695 44.8734 39.6923C45.0113 40.1751 45.129 40.6649 45.2926 41.1388C45.4743 41.6652 45.6978 42.1771 45.9031 42.6954L45.4856 42.884L44.2807 41.7142L43.9857 41.9384C44.316 42.4762 44.6464 43.014 45.0654 43.6962L40.7388 43.6941L40.0018 44.7349C40.8991 45.3643 41.708 45.9317 42.5086 46.4932C41.191 47.0535 40.0096 47.5559 38.5612 48.1719L40.2497 49.6065L40.1217 49.9871C39.5347 49.8551 38.941 49.7468 38.3621 49.5858C38.1561 49.5053 37.9331 49.4777 37.7135 49.5056C37.4938 49.5335 37.2844 49.616 37.1045 49.7455C36.9246 49.875 36.7798 50.0475 36.6834 50.2471C36.587 50.4468 36.5421 50.6673 36.5526 50.8884C36.7119 51.3345 36.9585 51.7441 37.278 52.0934L37.1434 52.487C35.8404 52.0656 34.5103 51.732 33.1622 51.4885C31.8407 51.3289 30.4637 50.4928 28.7915 51.4744C29.6494 51.7656 30.5262 51.9981 31.416 52.1702C36.1851 52.7064 40.083 55.373 44.1879 57.455C47.2948 59.1453 50.3134 60.9927 53.2321 62.9899C55.8246 64.6574 58.3386 66.4465 60.9087 68.1496C61.5248 68.494 62.1633 68.7966 62.82 69.0555C62.4592 68.0842 62.0243 67.1423 61.5193 66.238C61.3196 65.9355 60.6498 65.9281 60.1857 65.8226C59.8268 65.7409 59.2675 65.8483 59.1219 65.6419C58.5554 64.8392 58.1183 63.9448 57.5312 62.9039C58.1303 62.9604 58.6985 63.014 59.192 63.0606C60.2908 61.7677 59.1548 61.035 58.1268 59.9244L60.1628 59.8866L60.9728 58.3879C61.1931 59.7228 61.3561 60.7099 61.5815 62.0754C62.6282 60.8012 63.1243 59.6903 62.5102 58.7014C61.9599 57.8154 60.9012 57.2463 60.0668 56.5375L60.4509 55.9634L62.9816 57.0812C62.8268 56.7319 63.6779 55.837 62.4274 56.1063C62.2607 56.0004 62.1193 55.8593 62.0129 55.6929C61.9065 55.5265 61.8377 55.3388 61.8114 55.1429C61.9134 53.9973 62.1708 52.8652 62.3696 51.728L62.9544 51.7191L63.5501 53.4092L64.094 53.1643C63.7391 52.4166 63.3842 51.6689 62.9687 50.7935C63.5212 50.7688 63.9204 50.751 64.3052 50.7338C64.5673 50.1434 64.6332 49.4849 64.4933 48.8553C64.3535 48.2258 64.0151 47.6584 63.5282 47.2366C62.7949 46.5795 62.1908 45.7912 61.7466 44.912C60.9427 43.2022 60.3314 41.4012 59.8 40.0452ZM46.7597 63.2871C45.7669 64.6425 44.8956 65.7864 44.0745 66.9651C43.1455 68.2987 43.8363 71.6401 45.2832 72.2353C48.3467 73.5944 51.4927 74.7603 54.7029 75.7261C56.2506 76.1453 58.0748 75.574 59.7697 75.408C60.0298 75.3351 60.2544 75.1691 60.4007 74.9416C60.7233 74.5046 60.9872 74.0243 61.4179 73.3324C57.3306 68.986 51.7313 66.5445 46.7597 63.2871ZM43.6722 61.1988C40.0539 59.8732 36.5561 58.4273 32.9501 57.3365C30.9331 56.8241 28.8615 56.5546 26.7791 56.5335C25.5562 56.4698 25.2924 57.0955 25.9124 58.1874C26.2458 58.8678 26.7041 59.4791 27.2637 59.9894C30.0091 62.1451 32.8015 64.2423 35.6156 66.308C36.0863 66.6535 36.9571 67.0888 37.2831 66.89C38.911 65.8972 41.2622 66.168 42.2557 64.0786C42.6608 63.2265 43.0878 62.3849 43.6722 61.1988ZM67.1947 46.4079C67.5801 46.1065 67.9216 45.7529 68.2094 45.3573C70.1159 41.8297 71.6986 38.1767 72.2722 34.1669C72.4123 33.4713 72.461 32.7606 72.4171 32.0528C72.3336 31.8684 72.2039 31.7087 72.0406 31.5893C71.8772 31.4698 71.6857 31.3947 71.4845 31.371C68.2551 32.183 65.0354 33.0302 62.851 35.8958C62.3989 36.4889 62.4429 36.7591 62.9039 37.3243C63.8332 38.3802 64.6227 39.5515 65.2529 40.8095C66.0384 42.5519 66.5259 44.4294 67.1947 46.4079ZM55.9617 33.9543C56.44 33.3329 56.8315 32.7389 57.3082 32.2237C58.1256 31.3402 58.4894 30.2777 57.9826 29.2352C57.1591 27.5086 56.1847 25.8584 55.0706 24.3041C54.8111 23.9483 53.4227 23.9206 53.0038 24.275C51.8733 25.2595 50.872 26.3833 50.0236 27.6194C48.3782 29.9559 47.4791 32.6305 46.6738 35.4985C47.6882 35.3094 48.5078 35.1823 49.3151 35.0003C50.653 34.6988 52.0919 34.5779 53.2831 33.9741C54.3013 33.4582 55.0763 33.2365 55.9617 33.9543ZM25.3403 54.291C26.7629 54.5059 28.3348 54.7714 29.9148 54.9768C34.2396 55.539 38.104 57.5526 42.1533 58.9445C44.4733 59.7419 46.5045 61.3881 48.6459 62.6849C52.1894 64.8307 55.7169 67.0029 59.2512 69.1639C58.2007 68.1398 57.0511 67.2226 55.8193 66.4257C53.0279 64.6479 50.1642 62.9832 47.3767 61.1996C42.3364 57.9746 37.2348 54.8843 31.2434 53.7372C29.1558 53.3375 27.0198 52.9991 25.3403 54.291ZM69.2091 17.1065L68.8286 16.7327C67.837 17.6368 66.9002 18.5995 66.0235 19.6154C65.1148 20.8702 64.2755 22.1736 63.5093 23.5199C63.0655 24.2375 62.661 24.9786 62.2976 25.74C61.853 26.6821 61.5251 27.6807 61.0568 28.6096C60.5529 29.6089 60.4319 30.3901 61.9574 30.7986C64.6472 27.0651 67.4334 23.3765 68.0952 18.6736C69.3724 18.9013 69.0151 17.7776 69.2091 17.1065ZM61.0351 35.3297L61.1207 35.3979C61.3641 35.1794 61.5448 34.8998 61.6438 34.5881C61.5043 33.8066 61.2242 33.0572 60.817 32.3765C60.6176 32.2355 60.3859 32.1469 60.143 32.1188C59.9002 32.0907 59.654 32.1241 59.4271 32.2158C58.5688 33.1989 57.847 34.2933 57.2815 35.4692C57.2041 35.801 57.2112 36.1467 57.3021 36.4745C57.3929 36.8024 57.5647 37.1019 57.8015 37.3457C58.4616 37.841 59.2664 37.3698 59.8238 36.7501C60.2398 36.2877 60.6322 35.804 61.0351 35.3297ZM61.1446 38.3598C61.6023 41.3611 62.8916 44.1716 64.8665 46.4728C65.4091 44.0058 63.5432 39.8176 61.1446 38.3598ZM41.5147 68.3522C40.6141 67.5814 40.0894 67.633 39.2611 68.5738C38.5357 69.3977 38.5442 70.4982 39.4175 71.0416C40.1805 71.5163 41.0696 72.156 41.9306 71.1235C42.1937 70.6842 42.2962 70.1673 42.2203 69.6617C42.1444 69.156 41.8949 68.693 41.5147 68.3522ZM34.9173 51.039L35.9527 48.9253L35.7089 48.6551C34.8741 49.0013 34.0393 49.3475 32.8651 49.8344L34.9173 51.039ZM63.0816 72.478C63.4679 73.5357 63.7992 74.4427 64.1642 75.4421C64.8196 73.9969 64.4211 72.8703 63.0816 72.478Z" fill="#1C62C3"/>
</g>
<defs>
<clipPath id="clip0_61_128">
<rect width="67" height="84" fill="white" transform="translate(55.1636 0.30188) rotate(40.3508)"/>
</clipPath>
</defs>
</svg>
