<svg width="148" height="166" viewBox="0 0 148 166" fill="none" xmlns="http://www.w3.org/2000/svg">
<g clip-path="url(#clip0_62_8)">
<path d="M58.1443 61.0147C59.0938 60.3615 60.1065 59.8013 61.067 59.163C65.2159 56.4053 69.3881 53.6807 73.4842 50.8458C75.7317 49.2903 77.873 47.5748 80.0095 45.8652C81.7715 44.4553 83.9169 43.5377 85.3516 41.7143C85.7257 41.2649 86.1849 40.8942 86.7025 40.6236C87.22 40.353 87.7857 40.1878 88.3668 40.1377C88.4589 40.123 88.5504 40.1025 88.6418 40.0826C89.2844 40.708 89.9788 41.2775 90.7176 41.7852C91.4423 42.7097 92.169 43.62 92.7729 44.381C94.4456 44.4161 95.3985 45.4794 96.3426 46.4779C97.3297 47.5217 98.2324 48.6457 99.1471 49.7058L99.3128 49.547C99.4442 49.917 99.6895 50.2352 100.013 50.4559C100.332 50.8452 100.697 51.2023 100.988 51.6118C103.364 55.0746 105.056 58.963 105.972 63.0671C105.995 63.3922 105.939 63.7182 105.809 64.0175C105.679 64.3167 105.479 64.5802 105.226 64.7858C101.978 66.8209 98.6277 68.6927 95.3642 70.7051C89.9647 74.0345 84.6049 77.4288 79.2334 80.8038C78.9261 81.022 78.6324 81.2588 78.3537 81.5127C78.2355 81.2732 78.1173 81.0338 77.999 80.7943C78.5912 80.3915 79.1754 79.9764 79.7768 79.588C82.6489 77.7331 85.498 75.8404 88.4068 74.0454C93.7263 70.763 99.0678 67.5166 104.431 64.3062C104.625 64.228 104.8 64.1086 104.944 63.9563C105.088 63.804 105.198 63.6224 105.265 63.4239C105.332 63.2254 105.356 63.0147 105.335 62.8063C105.313 62.598 105.247 62.3969 105.14 62.2169C104.483 60.6292 104.01 58.9498 103.214 57.439C102.23 55.541 101.093 53.7271 99.8148 52.0152C98.4996 50.2796 96.9272 48.7392 95.4536 47.126C94.8905 46.5093 94.2897 45.9273 93.6375 45.2595C93.2724 45.431 92.9208 45.6301 92.5857 45.855C90.4084 47.4943 88.303 49.2365 86.0644 50.7852C83.8012 52.351 81.9103 54.4751 79.0359 55.1604C77.5263 55.631 76.0844 56.2983 74.7472 57.145C73.1721 58.0092 71.6796 59.0243 70.1307 59.9389C69.6236 60.2014 69.1009 60.4325 68.5657 60.6309C69.276 58.7561 71.1137 58.5697 72.4096 57.6296L72.2409 56.5424L73.0651 57.4602C73.438 57.2358 73.7378 57.0659 74.0263 56.8785C74.306 56.6968 74.5741 56.497 74.807 56.3334C74.5266 55.9427 74.3013 55.6287 74.0759 55.3147C75.5009 56.1924 75.5009 56.1924 77.7435 54.7414L77.5095 53.7136C78.5923 54.5171 79.2423 54.3824 80.4901 53.1752C80.2087 52.6506 79.926 52.1236 79.642 51.5942L79.9352 51.4336C80.096 51.6565 80.2405 51.8907 80.3676 52.1345C80.6946 52.8776 81.1295 53.1586 81.8721 52.6085C82.5453 52.1098 83.246 51.6485 83.9881 51.1336C83.5948 50.5871 83.228 50.0774 82.8612 49.5678L83.113 49.3626C83.6173 49.8978 84.1214 50.4329 84.6363 50.9795C85.4542 50.3434 86.2537 49.7214 87.0446 49.1062C86.6988 48.6968 86.4211 48.3681 86.1433 48.0394L86.3162 47.8812L87.4022 48.7815C88.0476 48.1888 88.6442 47.641 89.2355 47.0978C88.8367 46.5699 88.4923 46.1138 88.1477 45.6576C88.3069 45.5899 88.4815 45.5678 88.6523 45.5939C88.823 45.6199 88.9829 45.6931 89.1143 45.8052C89.1896 45.9436 89.2916 46.0655 89.4143 46.164C89.5371 46.2625 89.6781 46.3356 89.8293 46.379C89.9806 46.4225 90.1389 46.4354 90.2953 46.417C90.4517 46.3986 90.603 46.3494 90.7404 46.272C91.4601 46.0983 92.2651 45.8278 91.6408 44.8566C90.9292 43.7883 90.1607 42.7592 89.3388 41.7738C89.2116 41.7354 89.0774 41.726 88.9459 41.7464C88.8145 41.7667 88.6892 41.8163 88.5792 41.8914C87.6315 42.6002 86.6878 43.3214 85.8047 44.1082C84.661 45.1273 83.6651 46.3334 82.4445 47.241C80.6274 48.5919 78.6408 49.7107 76.7813 51.0078C75.4751 51.9189 74.3909 53.2559 72.9792 53.8877C69.5946 55.4028 66.6532 57.7316 63.1086 58.9727C61.2772 59.8026 59.5289 60.8062 57.8876 61.9699L57.6299 61.8563C57.7448 61.5448 57.9196 61.2589 58.1443 61.0147ZM82.9458 45.5189C84.582 44.1233 86.2183 42.7277 87.8547 41.3319L87.5413 40.9877C85.9442 42.4211 84.3471 43.8545 82.7498 45.2878L82.9458 45.5189ZM74.4701 51.0098C76.3725 49.7477 78.275 48.4856 80.1775 47.2235L79.9375 46.8605L74.3173 50.7774L74.4701 51.0098Z" fill="#FF80A6"/>
<path d="M68.3575 62.8276C71.1664 65.2847 73.3784 68.3525 74.8256 71.7981C75.6991 73.7954 76.4334 75.8514 77.0232 77.9512C77.1926 78.9459 77.2496 79.9569 77.193 80.965C76.6079 80.5001 76.1616 80.1455 75.7532 79.821C75.1917 80.4968 74.6701 81.2049 74.1909 81.9416C73.9653 82.5027 73.7734 83.0767 73.6163 83.6606C73.2218 84.5986 74.154 84.5935 74.5043 84.9989C75.2306 85.8394 75.9734 86.6658 76.6887 87.5154C77.0871 87.9886 77.4676 88.012 77.7981 87.4934C78.4336 86.4964 79.564 85.891 79.9756 84.7096C80.0566 84.6486 80.1505 84.6072 80.25 84.5886C80.3495 84.5699 80.4518 84.5746 80.5491 84.6021C81.2887 84.8901 82.008 85.2304 82.7583 85.5624C82.7049 85.603 82.6456 85.6353 82.5825 85.6581C82.0695 85.7268 81.5556 85.7892 81.0421 85.8534C81.45 86.0968 81.8713 86.3205 82.2633 86.5874C83.3212 87.2536 84.3449 87.9727 85.3307 88.7419C88.1771 91.0482 90.6754 93.7552 92.7484 96.7791C93.2257 97.608 93.6501 98.4663 94.0192 99.3491C94.9951 98.8238 96.0928 98.2529 97.172 97.6484C101.133 95.43 105.101 93.2244 109.04 90.9694C114.2 88.0164 119.331 85.0148 124.484 82.0514C125.158 81.6641 125.184 81.3827 124.478 81.0569L124.365 81.0871C123.503 81.7923 122.601 82.4466 121.663 83.0464C118.325 84.9381 114.924 86.7188 111.589 88.6156C108.992 90.0928 106.481 91.7239 103.887 93.2068C100.761 94.9939 97.5864 96.6967 94.4329 98.436L94.1279 98.223C94.2404 97.8975 94.4207 97.5995 94.6567 97.349C97.1708 95.7927 99.694 94.2497 102.249 92.7623C104.87 91.2365 107.53 89.7771 110.173 88.2886L110.088 88.1087C109.695 88.1229 109.302 88.1371 108.908 88.1513C107.972 88.6554 107.017 89.1285 106.102 89.6689C102.837 91.5975 99.5741 93.5317 96.3344 95.5036C95.5902 95.9945 94.8711 96.5228 94.1799 97.0864C90.6401 93.3032 87.1999 89.6265 83.6932 85.8787C84.3157 86.0218 84.917 86.245 85.482 86.5427C89.7961 89.5422 91.2108 90.767 94.064 95.4852C94.049 95.0787 93.9778 94.6764 93.8524 94.2898C92.1215 90.8908 89.4864 88.0396 86.238 86.0508C84.2546 84.8681 82.0705 84.0609 79.7943 83.6695C79.2625 83.5957 78.7769 83.3279 78.4305 82.9173C78.084 82.5067 77.901 81.9821 77.9163 81.4438C78.0167 74.951 75.072 69.7096 71.2205 64.8339C70.508 63.9319 69.794 63.0299 69.0446 62.1592C68.6821 61.8272 68.2916 61.5275 67.8772 61.2634L68.3745 62.8658L68.3575 62.8276ZM76.0811 81.049C77.1289 82.452 78.0159 83.6396 78.9184 84.8481C77.5278 87.1044 77.0711 87.1649 75.4701 84.9549C75.3138 84.7353 75.1801 84.5004 75.0711 84.2536C74.8624 83.9711 74.7421 83.6326 74.7255 83.281C75.1275 82.5078 75.5804 81.7621 76.0811 81.049Z" fill="#FF80A6"/>
<path d="M124.478 81.0568C124.176 80.214 123.821 79.3909 123.417 78.5924C122.281 76.6317 121.453 74.5011 119.767 72.8516C116.844 69.9699 113.597 67.4386 110.09 65.3086L110.555 66.071C109.624 65.6588 108.562 65.1753 107.487 64.7224C107.209 64.5932 106.905 64.5327 106.599 64.546C106.379 64.6361 106.183 64.7757 106.026 64.9539C106.158 65.0985 106.311 65.2227 106.479 65.3224C109.162 66.4117 111.643 67.9435 113.82 69.8545C115.098 70.9832 116.291 72.2048 117.389 73.5093C117.962 74.3098 118.473 75.153 118.918 76.0317C119.881 77.5896 120.861 79.1366 121.923 80.8291C119.634 82.0136 117.458 83.1297 115.294 84.2709C114.953 84.4864 114.63 84.7298 114.329 84.9986L115.341 84.7926L115.418 84.9553C113.641 86.0064 111.865 87.0575 110.088 88.1086C110.116 88.1686 110.145 88.2286 110.173 88.2886C111.43 87.6323 112.725 87.0375 113.937 86.3055C115.863 85.142 117.713 83.8517 119.637 82.6851C120.634 82.0812 121.721 81.6281 122.937 81.0227C121.873 78.8443 120.69 76.7269 119.393 74.68C117.945 72.8305 116.393 71.0658 114.744 69.3947C115.079 69.4358 115.392 69.5846 115.635 69.8189C117.512 71.8813 119.468 73.8823 121.196 76.0649C122.346 77.6775 123.404 79.3543 124.365 81.087L124.478 81.0568Z" fill="#FF80A6"/>
<path d="M68.3745 62.8658C67.4117 61.786 66.4602 60.6955 65.4795 59.6323C65.1407 59.3031 64.7825 58.9945 64.4069 58.7081L64.0765 58.9811C64.3191 59.4467 64.6031 59.8892 64.925 60.3035C65.984 61.4518 67.4786 62.3701 68.1094 63.7083C69.8778 67.4598 73.0015 70.5602 73.3548 75.0363C70.6731 69.4012 66.6341 64.5266 61.6014 60.8513C61.5842 61.2121 61.6674 61.5704 61.8419 61.886C62.0163 62.2016 62.2751 62.4621 62.5892 62.6382C64.2789 63.8746 65.8514 65.2642 67.2869 66.7896C70.1779 70.179 72.5119 74.0091 74.2016 78.1363C74.1539 78.231 74.0954 78.3198 74.0272 78.4009C70.3688 71.7392 65.3363 65.9379 59.2641 61.3823C59.286 62.0453 59.2961 62.3493 59.3002 62.4748C60.0068 62.8028 60.6813 63.1961 61.3148 63.6497C62.6671 64.8291 63.9786 66.0619 65.2351 67.3436C68.7399 71.0014 71.7087 75.1401 74.0529 79.6361C74.3379 80.0479 74.6579 80.4343 75.0092 80.7908C75.19 80.3787 75.3076 79.9416 75.358 79.4946C75.2631 78.2315 75.0406 76.9818 74.6941 75.7644C73.9167 73.5249 73.0089 71.3334 71.9754 69.2011C71.0003 67.2149 69.7721 65.3542 68.659 63.4361C68.5459 63.2413 68.4581 63.0317 68.358 62.8283L68.3745 62.8658Z" fill="#FF80A6"/>
<path d="M88.9081 106.533C89.4086 104.365 88.5476 102.603 87.6 100.956C85.6697 97.601 83.5758 94.3412 81.5487 91.0425C81.3129 90.7148 81.156 90.3368 81.0901 89.9379C81.7102 90.5471 82.3486 91.1389 82.9454 91.7703C83.5777 92.4391 84.1972 93.1237 84.7756 93.8394C87.3508 96.7306 89.0345 100.309 89.6234 104.144C89.7645 104.402 89.9683 104.621 90.2159 104.779C90.3589 104.515 90.4438 104.223 90.4651 103.923C89.8443 100.612 88.4137 97.5091 86.3016 94.8923C84.3769 92.5167 82.2498 90.3058 80.2011 88.0321C79.9245 87.7544 79.6319 87.4932 79.3248 87.2499C78.8074 87.5155 79.5849 88.3506 78.6868 88.2806C78.7528 88.5453 78.858 88.7984 78.9989 89.0317C82.5645 93.0628 85.4647 97.6398 87.5902 102.59C87.933 103.443 88.0969 104.366 88.376 105.247C88.5156 105.688 88.7284 106.105 88.9081 106.533Z" fill="#FF80A6"/>
<path d="M125.089 83.569C124.774 83.6173 124.467 83.7047 124.173 83.8292C121.741 85.2377 119.352 86.7222 116.894 88.0826C111.74 90.9353 106.547 93.7154 101.382 96.5486C99.571 97.5421 97.7914 98.5939 96.0124 99.6446C95.7583 99.8438 95.5313 100.076 95.3373 100.334L95.5787 100.682L125.212 84.0283L125.089 83.569Z" fill="#FF80A6"/>
<path d="M107.733 95.8412C110.689 93.9685 113.599 92.0169 116.615 90.2475C119.129 88.7725 121.768 87.5127 124.347 86.1481C124.446 86.0595 124.526 85.9516 124.583 85.8311L124.426 85.5344C123.413 85.8815 122.424 86.2972 121.467 86.7788C118.539 88.4885 115.673 90.3056 112.761 92.0429C109.287 94.2524 105.658 96.2048 101.902 97.8846C98.7014 99.3977 95.59 101.094 92.583 102.964C92.3866 103.145 92.2104 103.346 92.0575 103.565C92.3807 103.569 92.7031 103.53 93.016 103.448C97.0986 101.286 101.168 99.0991 105.254 96.9433C106.064 96.5156 106.932 96.1963 107.774 95.8268L107.733 95.8412Z" fill="#FF80A6"/>
<path d="M91.4313 101.91C91.5687 97.1404 84.2109 87.6187 79.4983 86.2163C79.6004 86.535 79.7686 86.8283 79.9919 87.0769C83.0846 88.5391 84.9746 91.2787 87.1922 93.6997C88.8994 95.7837 90.133 98.2163 90.8073 100.829C90.9771 101.21 91.1862 101.573 91.4313 101.91Z" fill="#FF80A6"/>
<path d="M73.9525 81.0363C73.7968 80.3844 73.5539 79.7568 73.2305 79.1705C71.8602 77.324 70.4659 75.486 68.9495 73.7607C67.1634 71.7285 65.3245 69.7268 63.3498 67.8826C61.82 66.578 60.2246 65.3527 58.5698 64.2114L58.1824 64.5185C58.3677 64.8929 58.6118 65.2349 58.9054 65.5315C60.3993 66.4314 61.8328 67.4283 63.1966 68.5158C66.4196 71.5526 69.6553 74.6075 71.8525 78.5513C72.3584 79.4594 72.9536 80.3174 73.5077 81.1984L73.9525 81.0363Z" fill="#FF80A6"/>
<path d="M100.587 63.013C100.654 62.6684 100.681 62.3172 100.668 61.9664C100.327 59.97 99.5036 58.0886 98.2706 56.4861C96.9169 54.6333 95.6595 52.7098 94.3434 50.8289C94.1441 50.6518 93.9189 50.5062 93.6757 50.3972C93.6331 51.4564 93.676 52.2496 94.7757 52.544C95.0096 52.645 95.2034 52.8207 95.3269 53.0439C96.5937 55.0024 97.9632 56.9079 99.0541 58.9621C99.5972 60.2559 100.012 61.6004 100.293 62.9761L100.587 63.013Z" fill="#FF80A6"/>
<path d="M87.123 54.78C87.4493 55.2148 87.7644 55.6588 88.1066 56.0807C88.3276 56.2823 88.5367 56.4965 88.7329 56.7223C90.432 59.4375 92.129 62.1543 93.7911 64.8923C94.2272 65.6106 94.5411 66.4037 94.9315 67.2044C95.0344 66.9865 95.0749 66.7444 95.0486 66.5051C94.4376 64.9861 93.7305 63.5079 92.9315 62.0796C91.5242 59.7701 89.9584 57.5573 88.4368 55.3194C88.1783 55.0073 87.8897 54.7216 87.5752 54.4665L87.123 54.78Z" fill="#FF80A6"/>
<path d="M114.641 80.638C113.514 76.2407 106.744 69.2273 104.183 69.9008C108.826 72.1285 112.53 75.9314 114.641 80.638Z" fill="#FF80A6"/>
<path d="M90.9554 52.8614C91.3064 53.5004 90.7408 54.5598 92.1009 54.4173C92.3682 54.5653 92.5797 54.7969 92.7031 55.0769C94.793 57.8896 96.3799 61.0455 97.3934 64.4044C97.5351 64.7837 97.7819 65.1143 98.1048 65.3575C98.456 63.0288 93.0371 53.6077 90.9554 52.8614Z" fill="#FF80A6"/>
<path d="M101.893 71.7905C105.865 74.8854 109.215 78.7082 111.765 83.0568C112.119 81.3079 103.691 71.4938 101.893 71.7905Z" fill="#FF80A6"/>
<path d="M108.87 95.4636L107.734 95.8409L107.773 95.8267C106.051 96.8196 104.333 97.8206 102.605 98.8028C99.9964 100.285 97.3802 101.753 94.7701 103.232C94.6529 103.315 94.5445 103.41 94.4466 103.515L94.6316 103.829C99.4072 101.108 104.183 98.387 108.958 95.6658C108.929 95.5983 108.9 95.5309 108.87 95.4636Z" fill="#FF80A6"/>
<path d="M99.1651 74.1924C102.785 77.39 105.707 81.3036 107.748 85.6885L108.081 85.5423C107.857 84.7553 107.536 83.9996 107.125 83.2926C104.939 80.409 102.682 77.5782 100.403 74.7675C100.034 74.4923 99.613 74.2965 99.1651 74.1924Z" fill="#FF80A6"/>
<path d="M88.9655 80.2766C91.6264 83.2006 94.684 85.8301 96.2061 89.9324C96.3704 89.654 96.4641 89.3395 96.479 89.0167C96.3051 88.4268 96.0276 87.8731 95.6594 87.3815C93.7917 85.0522 91.8848 82.7543 89.9668 80.4663C89.7099 80.2488 89.4198 80.074 89.1074 79.9489L88.9655 80.2766Z" fill="#FF80A6"/>
<path d="M96.4926 76.6875C99.4271 79.0903 101.856 82.0538 103.638 85.4065C104.254 84.0693 98.3863 76.7265 96.4926 76.6875Z" fill="#FF80A6"/>
<path d="M100.278 87.8284C100.228 87.4601 100.119 87.1024 99.9556 86.7693C98.2275 84.3872 96.477 82.0215 94.7042 79.6723C94.4945 79.4005 94.2257 79.1803 93.9182 79.0285C93.8133 79.0245 93.7086 79.0428 93.6112 79.0823C93.5138 79.1218 93.4258 79.1815 93.353 79.2576C93.3415 79.3418 93.3489 79.4276 93.3747 79.5085C93.4005 79.5894 93.4441 79.6635 93.5022 79.7252C96.4008 81.8556 97.9802 85.0387 100.278 87.8284Z" fill="#FF80A6"/>
<path d="M82.0709 67.0054C83.0708 69.1643 84.0708 71.3233 85.0708 73.4822L85.3083 73.5488C85.3769 73.0942 85.3541 72.6307 85.2415 72.1855C84.3136 70.4014 83.298 68.6633 82.3134 66.9089L82.0709 67.0054Z" fill="#FF80A6"/>
<path d="M114.613 92.7087C117.362 91.4488 120.11 90.1889 122.859 88.929L122.661 88.5017C119.87 89.6855 117.179 91.0924 114.613 92.7087Z" fill="#FF80A6"/>
<path d="M82.5114 74.2814C81.347 72.2181 80.1827 70.1548 79.0184 68.0914L78.6749 68.287C79.7831 70.376 80.8913 72.465 81.9995 74.5539L82.5114 74.2814Z" fill="#FF80A6"/>
<path d="M84.5375 63.6411C84.7422 64.1114 84.9226 64.5943 85.1559 65.0499C86.1956 67.0799 87.2505 69.102 88.333 71.1909C88.4522 71.0738 88.5329 70.9229 88.564 70.7586C87.2331 68.379 85.8678 66.0189 84.5089 63.6551L84.5375 63.6411Z" fill="#FF80A6"/>
<path d="M91.3158 69.2242C91.8375 68.2227 89.6063 63.5674 88.44 62.9627C89.3593 64.9643 90.3179 67.0514 91.3158 69.2242Z" fill="#FF80A6"/>
<path d="M83.8229 57.1331L87.9098 62.4474L88.1768 62.2445C86.8724 60.418 85.568 58.5914 84.2636 56.7649L83.8229 57.1331Z" fill="#FF80A6"/>
<path d="M84.5089 63.6551C83.806 62.5032 83.103 61.3514 82.2737 59.9924L81.687 60.8237C82.693 61.8182 83.6152 62.7296 84.5374 63.6411L84.5089 63.6551Z" fill="#FF80A6"/>
<path d="M81.3131 65.7452C80.5242 63.8215 79.259 62.6002 77.9702 62.4785C79.0547 63.5383 80.1404 64.5992 81.3131 65.7452Z" fill="#FF80A6"/>
<path d="M108.958 95.6659C110.154 95.0599 111.35 94.4539 112.546 93.8479L112.358 93.498C111.196 94.1533 110.033 94.8085 108.87 95.4636C108.9 95.531 108.929 95.5984 108.958 95.6659Z" fill="#FF80A6"/>
</g>
<defs>
<clipPath id="clip0_62_8">
<rect width="110" height="138" fill="white" transform="matrix(-0.94926 -0.314492 -0.314492 0.94926 147.819 34.5941)"/>
</clipPath>
</defs>
</svg>
