<svg width="100" height="125" viewBox="0 0 100 125" fill="none" xmlns="http://www.w3.org/2000/svg">
<path d="M49.9312 76.3715C51.0615 78.6084 52.0966 80.7378 53.2186 82.8261C53.5787 83.4372 54.0416 83.9815 54.587 84.4349C55.4481 85.1956 56.3258 85.5011 57.3839 84.6602C57.9779 84.2739 58.6852 84.1002 59.3906 84.1672C60.096 84.2343 60.7579 84.5382 61.2686 85.0294C61.3289 85.184 61.3527 85.3504 61.338 85.5157C61.3968 86.2888 61.5469 87.0522 61.7851 87.7901C62.6195 89.6625 62.2112 91.4224 60.1082 92.4215C56.1884 94.2837 52.361 96.4445 47.7573 96.6638C47.1425 96.7549 46.5146 96.6537 45.9596 96.374C45.4047 96.0943 44.9497 95.6498 44.6573 95.1015C44.1881 94.4763 43.7785 93.8087 43.4337 93.1073C43.2402 92.5649 43.2516 91.9705 43.4658 91.4359C43.8761 90.4312 44.4906 89.5226 45.2704 88.7678C46.0501 88.013 46.9782 87.4283 47.9958 87.0509C47.6725 85.6179 47.3783 84.0457 46.9503 82.5034C46.622 81.3204 46.1297 80.1737 45.7009 79.0139C45.6723 78.8857 45.6124 78.7666 45.5265 78.6671C45.4406 78.5677 45.3315 78.4911 45.2088 78.4441C45.0861 78.3972 44.9537 78.3813 44.8234 78.398C44.6931 78.4147 44.569 78.4634 44.4621 78.5397C42.352 79.4821 40.118 80.1178 37.8279 80.4277C35.8544 80.7425 34.3783 80.1274 33.7742 78.2506C33.5491 77.551 33.4438 76.8195 33.2199 75.816C34.164 75.7076 35.0898 75.5946 36.0177 75.4962C37.97 75.2892 40.0122 75.3526 41.8578 74.8327C45.7121 73.7469 49.3414 72.1732 51.7268 68.8121C51.4114 69.0105 51.1116 69.2325 50.8297 69.4762C49.5886 70.7248 48.0211 71.5988 46.3066 71.9983C44.2732 72.4915 42.3023 73.2426 40.2397 73.5781C37.6409 74.0008 35.0207 74.0669 32.4634 72.7616C30.7582 71.8911 28.853 71.4114 27.1187 70.5875C26.1364 70.1485 25.2673 69.4908 24.5779 68.6647C22.9814 66.571 21.6437 64.2997 20.0734 62.1861C19.133 60.8515 18.5387 59.3043 18.3439 57.6834C18.0091 55.548 17.7867 53.3964 17.6776 51.2377C17.4773 47.3307 19.1635 44.1693 21.8336 41.4632C24.2077 39.0305 27.0229 37.0716 30.1292 35.6913C29.5609 33.7719 28.9967 31.8888 28.449 30.0019C28.285 29.4551 28.1524 28.8995 28.0517 28.3377C28.0179 28.203 28.029 28.0608 28.0835 27.9329C28.1379 27.8051 28.2327 27.6985 28.3533 27.6295C28.4739 27.5605 28.6138 27.5329 28.7516 27.5508C28.8894 27.5687 29.0176 27.6311 29.1166 27.7286C29.6495 28.1851 30.135 28.6942 30.5657 29.2481C31.565 28.9576 32.0485 29.4733 32.1591 30.5992C32.2142 31.1594 32.3968 31.749 33.3263 31.4882C36.7659 30.5332 40.3896 30.4532 43.868 31.2555C48.119 32.1201 52.0569 34.1185 55.2646 37.039C56.8142 38.6458 58.208 40.3958 59.4272 42.2657C60.3746 43.5624 61.1887 44.9497 62.0178 46.3205C62.2804 46.7456 62.4587 47.2172 62.5429 47.7097C63.06 51.1421 64.0203 54.5575 63.2492 58.0371C62.8708 59.7442 62.854 61.5616 62.2896 63.1936C61.6713 64.6401 60.8842 66.0085 59.9447 67.2704C58.3354 69.763 55.8789 71.4599 53.6414 73.3568C52.4495 74.3672 51.2147 75.3312 49.9312 76.3715ZM54.386 63.7827C53.4145 64.5713 53.0954 63.5682 52.5499 63.1208C52.8109 63.8112 53.072 64.5015 53.4118 65.4002C53.7599 64.7988 54.0577 64.2841 54.3556 63.7695L55.0674 62.9908C53.2783 62.1714 53.9164 60.1995 52.4692 59.3163C53.1082 60.8051 53.7471 62.2939 54.386 63.7827ZM51.4887 66.8307C51.3009 66.7772 51.1245 66.6896 50.9684 66.5723C50.1917 65.8111 49.1516 65.1338 48.7507 64.2205C48.1245 62.7936 49.1068 61.8729 50.3447 61.1371C50.6707 60.9164 50.938 60.6196 51.1234 60.2723C51.3088 59.925 51.4067 59.5377 51.4086 59.1441C51.4105 58.7504 51.3163 58.3622 51.1343 58.0132C50.9523 57.6641 50.6878 57.3647 50.3639 57.1409C50.1866 57.061 50.0304 56.9406 49.9079 56.7894C49.7855 56.6382 49.7001 56.4605 49.6587 56.2704C49.6173 56.0803 49.6209 55.8832 49.6693 55.6948C49.7178 55.5064 49.8097 55.3319 49.9377 55.1854C50.4621 54.4436 50.6877 53.5315 50.5695 52.6308C50.4513 51.7301 49.998 50.9071 49.2999 50.3258C48.8146 49.8873 48.4683 49.3163 48.3037 48.6833C48.1391 48.0503 48.1634 47.383 48.3736 46.7636C48.6788 45.3515 50.1276 45.0133 51.3417 45.9138C52.1799 46.4473 52.8401 47.2183 53.2384 48.1285C53.6366 49.0388 53.7548 50.047 53.5778 51.0246C53.3484 52.5119 54.3096 53.3598 55.9019 53.2803C56.4956 53.2829 57.0888 53.3164 57.6791 53.3807C57.6364 52.3035 57.4718 51.2346 57.1886 50.1945C56.1434 47.2133 54.4029 44.524 52.1113 42.3495C50.9512 41.3021 49.937 40.0908 48.7131 39.1257C47.3981 38.0442 45.9695 37.1088 44.4525 36.3358C41.8591 35.0864 39.0433 35.1717 36.2692 35.2692C35.572 35.2938 34.6981 35.1855 34.2243 35.5336C33.0138 36.5446 31.5098 37.1385 29.9351 37.2271C30.6497 37.5758 31.4089 37.7314 32.0187 38.1153C32.2236 38.2516 32.3937 38.4342 32.5152 38.6483C32.6367 38.8624 32.7062 39.102 32.7182 39.3479C32.461 40.1015 32.1268 40.8267 31.721 41.5118C31.5429 41.8932 31.4084 42.2947 31.1965 42.8339C32.4091 42.8478 33.3919 42.8228 34.3726 42.8807C34.7911 42.8526 35.204 42.9898 35.5224 43.2628C35.8408 43.5359 36.0394 43.923 36.0754 44.3409C36.1434 45.2003 35.4347 45.3554 34.7043 45.3841C34.5851 45.3831 34.468 45.4147 34.3654 45.4753C34.0433 45.7058 33.7373 45.9568 33.4252 46.2001C33.6775 46.4746 33.9619 46.7177 34.2723 46.9243C35.4849 47.5413 36.4677 48.2893 36.7757 49.6857C36.9136 50.2211 36.8835 50.786 36.6896 51.3038C36.4956 51.8216 36.1472 52.2672 35.6914 52.5803C34.8231 53.1305 34.0259 52.5751 33.2391 52.1924C32.746 51.9526 32.2613 51.6895 31.7518 51.4911C30.8265 51.1309 29.8928 50.7878 28.9478 50.4855C28.5591 50.3229 28.1341 50.2667 27.7165 50.3228C26.5605 50.6457 25.4521 51.1076 24.3052 51.4608C22.1722 52.1178 21.0144 51.6779 20.0025 49.7704C19.7557 49.1403 19.5753 48.4862 19.4642 47.8187C17.7926 51.184 19.9002 61.3606 22.7235 64.2681C23.3157 61.9783 23.8352 61.5894 26.3913 61.5224C26.9249 61.4843 27.4547 61.636 27.8872 61.9508C28.3197 62.2655 28.627 62.723 28.7548 63.2424C28.8769 63.6898 28.9556 64.1466 29.0737 64.595C29.1955 65.2046 29.5316 65.7506 30.0211 66.1338C30.5106 66.5171 31.1213 66.7123 31.7423 66.6842C32.7024 66.5181 33.6366 66.2268 34.521 65.8179C36.7596 64.9505 37.9416 65.5785 38.3074 67.868C38.2366 67.7469 38.1221 67.6575 37.9874 67.6182C37.8527 67.579 37.708 67.5928 37.5832 67.6569C37.4584 67.721 37.3629 67.8305 37.3163 67.9629C37.2697 68.0952 37.2757 68.2404 37.3329 68.3686C37.3901 68.4967 37.4942 68.598 37.6238 68.6517C37.7535 68.7055 37.8987 68.7075 38.0298 68.6573C38.1609 68.6072 38.2677 68.5088 38.3284 68.3823C38.3892 68.2557 38.3991 68.1108 38.3562 67.9772C39.811 68.4081 41.0661 68.7018 42.2461 69.1812C42.5886 69.5142 42.791 69.9654 42.8119 70.4426C42.8217 70.8817 42.7685 71.3199 42.6542 71.7439C46.203 71.0284 49.3621 69.7886 51.4887 66.8307ZM33.2776 32.8027L33.4698 33.3726C33.8316 33.3343 34.1917 33.2699 34.5553 33.262C37.0941 33.2069 39.6738 32.8399 42.1608 33.2145C44.3158 33.539 46.3482 34.7614 48.4666 35.4927C52.0762 36.7387 54.2936 39.484 56.4177 42.3154C57.253 43.429 57.8326 44.714 58.6411 45.8487C60.5052 48.4648 60.8275 51.4743 60.9685 54.3849C61.149 58.1144 59.3547 61.3481 57.4412 64.4155C55.8849 66.8799 53.9912 69.1143 51.8151 71.0534C48.8294 73.679 45.1822 75.4374 41.2685 76.138C39.7093 76.4532 38.058 76.3931 36.4729 76.6273C36.1751 76.651 35.8858 76.7379 35.6241 76.882C35.3625 77.0262 35.1345 77.2244 34.9553 77.4635C34.6295 78.3847 35.5589 78.7671 36.2842 79.0613C36.7011 79.1872 37.1384 79.231 37.572 79.1904C39.8811 79.1496 41.9267 78.3069 43.9924 77.4783C46.6533 76.411 49.6764 75.9654 51.4433 73.4354C51.5569 73.3329 51.6805 73.2421 51.8121 73.1642C54.0207 71.1577 56.2785 69.1983 58.4202 67.1273C61.3729 64.272 62.0652 60.4369 62.1795 56.6201C62.2992 52.6231 62.0599 48.5327 59.7029 44.8672C59.2069 44.0354 58.6606 43.2346 58.0671 42.4693C56.5343 40.6257 55.18 38.5407 53.3198 37.0716C50.8759 35.0899 48.0505 33.6321 45.0192 32.7887C41.9879 31.9454 38.8156 31.7345 35.6993 32.1691C34.8785 32.3246 34.0694 32.5363 33.2776 32.8027ZM58.5354 86.8003C56.0303 86.6791 53.9344 85.9964 52.6613 83.8356C51.5524 81.9532 50.4489 80.0564 49.5318 78.0898C48.9691 76.8831 48.251 77.1983 47.4176 77.4477C46.4642 77.733 46.5877 78.3857 46.8431 79.1139C47.4057 80.718 48.0281 82.311 48.4715 83.9424C49.128 86.3578 49.7468 88.7722 48.2688 91.1186C47.7562 91.9324 47.3269 91.9275 46.4586 91.5417C46.7672 90.985 47.0502 90.505 47.303 90.0098C47.5464 89.5333 47.7585 89.0412 48.0728 88.366C46.7781 88.8167 44.9084 90.6927 44.8291 91.6056C44.7757 92.2215 44.8137 92.9779 45.7798 93.0674C46.5089 93.2088 47.2545 93.2443 47.9937 93.1729C49.4414 92.8645 50.8239 92.3175 52.2623 91.966C55.0716 91.2066 57.5678 89.5759 59.3919 87.3084C59.6277 87.0391 59.3374 86.2702 59.1666 85.7681C58.9116 85.5613 58.6123 85.4163 58.2919 85.3445L58.5354 86.8003ZM58.7623 57.5043C60.3572 54.2163 59.7072 50.831 58.2479 47.6973C56.8922 44.971 55.1656 42.4454 53.1173 40.1924C51.3508 38.2519 49.1227 36.7891 46.6398 35.9396C48.3304 37.346 49.7853 38.5504 51.2334 39.7626C53.5363 41.7336 55.4629 44.1057 56.9197 46.7638C58.4993 49.4784 59.2059 52.6131 58.9436 55.7429C58.9015 56.3319 58.8237 56.9172 58.7623 57.5043ZM60.5169 88.2C56.7313 92.5736 51.5247 94.0247 45.7912 94.6652C46.378 95.0549 47.0919 95.5975 47.6311 95.4827C49.9449 94.9974 52.2309 94.3877 54.4791 93.6564C55.9211 93.0948 57.3319 92.4563 58.7055 91.7436C60.7194 90.8314 61.2007 89.936 60.5169 88.2ZM25.8408 47.0603L26.2418 47.0765L26.687 39.5269L26.322 39.303L23.3449 41.5925C24.4579 43.5875 23.4007 45.694 24.0976 47.62C25.957 45.6704 24.3989 42.8541 25.8563 40.8417C25.8512 42.9146 25.846 44.9874 25.8408 47.0603ZM39.7237 70.0459L39.1438 71.4809C38.4615 71.0311 37.8908 70.6548 37.3201 70.2786L37.8552 70.4793C37.6372 70.9386 37.3146 71.3404 36.9133 71.6525C36.6402 71.7696 36.0792 71.3015 35.8064 71.1714L33.9159 71.7241C34.363 72.7844 36.4793 72.8975 41.208 72.0724L41.8437 70.0618L40.8766 69.862C40.8785 70.2906 40.8801 70.6463 40.8817 71.002L40.6074 71.0638L39.7237 70.0459ZM28.8157 47.1454L28.187 48.2007C27.7564 47.9026 27.3258 47.6045 26.9844 47.3681C26.8077 48.0209 26.6013 48.7836 26.3531 49.7009L25.2926 48.9026C24.9399 49.2372 24.5222 49.4955 24.0653 49.6617C23.4167 49.6586 22.7707 49.5775 22.1415 49.4202C22.4002 50.889 22.6985 51.0683 23.8765 50.6444C24.6682 50.4451 25.4404 50.1751 26.1838 49.8375C26.8422 49.355 27.6528 49.1265 28.4663 49.1939C29.2799 49.2614 30.0417 49.6204 30.6117 50.2048C30.6982 50.2082 30.7843 50.1923 30.8638 50.1583C30.15 49.1083 29.4396 48.0632 28.8157 47.1454ZM32.4398 48.1424C32.282 48.9891 32.1534 49.6791 32.0235 50.3765C32.7591 50.7395 33.5086 51.1158 34.2639 51.4804C34.3779 51.5568 34.5085 51.6049 34.6448 51.6208C34.7811 51.6367 34.9193 51.6199 35.0478 51.5717C35.1763 51.5235 35.2915 51.4454 35.3838 51.3438C35.4761 51.2423 35.5428 51.1201 35.5785 50.9876C36.2391 49.5991 35.6182 48.6336 33.4596 47.9015C33.5979 48.6035 33.7237 49.242 33.8494 49.8805L33.3875 50.0179L32.4398 48.1424ZM29.4095 45.0433L29.7569 45.0681C29.7893 45.0474 29.8158 45.0186 29.8337 44.9846C29.8668 43.8795 29.9818 42.7784 30.1779 41.6903C30.4786 41.0446 30.8632 40.4414 31.3216 39.8963C31.4666 39.6569 31.5147 39.3712 31.4562 39.0976C30.9934 38.8021 30.4865 38.5822 29.9545 38.4463C29.8198 38.4627 29.6918 38.5141 29.5831 38.5954C29.4745 38.6767 29.3891 38.7851 29.3354 38.9097C29.3249 40.9528 29.3752 42.9984 29.4095 45.0433ZM25.4054 67.3579C25.1355 66.5958 24.8246 65.8427 24.6148 65.0675C24.5776 64.7132 24.5975 64.3551 24.674 64.0071C25.0314 64.1656 25.3888 64.3241 25.779 64.4971C26.5143 63.3994 26.7567 64.5108 27.116 64.9142C27.1795 64.7187 27.2544 64.5271 27.3404 64.3404C27.5474 64.0921 27.7066 63.8077 27.81 63.5014C27.5512 63.1193 27.1626 62.844 26.7162 62.7268C25.1671 62.6694 23.8678 63.0874 23.9292 65.0655C23.9367 65.5474 24.0789 66.0174 24.3399 66.4226C24.6008 66.8277 24.9699 67.1517 25.4054 67.3579ZM55.401 56.4361C56.9379 55.9335 56.5267 57.4081 57.0575 58.0013C57.1659 57.8777 57.2454 57.7316 57.2903 57.5735C57.2536 57.0522 57.1643 56.5327 57.1093 56.0116C56.9267 54.2789 56.1859 53.8417 54.3986 54.4524L55.401 56.4361ZM37.0448 67.2012C35.6292 66.4834 34.4108 67.0262 33.0219 67.4904L34.4843 70.3844L34.6815 70.3251C34.4855 69.408 34.2894 68.491 34.0934 67.5739L34.5658 67.3887C35.0756 68.0568 35.5854 68.7248 36.2769 69.6311C36.1891 68.6231 36.1266 67.9047 36.0564 67.0993L37.0448 67.2012ZM49.3273 48.381L49.6023 48.5538C50.5036 47.9808 50.9183 48.3818 51.1759 49.2237C51.319 49.6915 51.6279 50.1566 52.1916 49.8103C52.2842 49.6718 52.345 49.5146 52.3697 49.3498C52.3945 49.1851 52.3825 49.0169 52.3346 48.8573C52.2776 48.4654 52.0937 48.1029 51.8113 47.8253C51.1859 47.3972 50.5339 47.0094 49.8593 46.6641C49.6819 47.2364 49.5046 47.8087 49.3273 48.381ZM28.4054 38.5606L27.7922 38.4685C27.3165 40.6962 27.2722 42.9944 27.6615 45.2388L27.9771 45.264L28.4054 38.5606ZM31.8346 44.8899L34.523 44.2048L34.4396 43.7518C33.3455 43.8548 31.9278 43.6052 31.258 44.1707C30.7072 44.6358 31.0441 46.0684 30.9875 47.0721L31.338 47.0991L31.8346 44.8899ZM32.5536 71.0085C33.154 68.8099 32.3029 67.447 30.9225 67.7805L32.5536 71.0085ZM55.5343 62.0699C55.9597 61.1933 56.3696 60.3488 56.7974 59.4672C56.2163 59.3485 55.7948 59.2624 55.3731 59.177C55.3983 60.1079 54.3542 61.012 55.5343 62.0699ZM29.4012 66.9055L29.1276 67.0854C29.3845 69.0997 29.8617 69.9254 30.9518 69.974L29.4012 66.9055ZM20.6415 45.5543L21.6435 45.5172C21.5757 44.9593 21.5195 44.4967 21.4633 44.0342C20.9123 44.9962 19.4341 45.6501 20.6497 47.0301C20.6471 46.5623 20.6445 46.0946 20.6415 45.5543ZM22.5908 44.9004L22.8257 44.8594C22.9083 44.0183 22.9909 43.1772 23.0734 42.3361C22.5428 42.4882 21.9921 42.7659 22.0137 43.0186C22.1335 43.6659 22.3272 44.2973 22.5908 44.9004ZM51.4583 62.7207C51.3001 62.5992 51.1167 62.5146 50.9216 62.4733C50.505 62.753 49.8078 63.104 49.8254 63.4208C49.9804 64.0342 50.2484 64.6133 50.6156 65.1285C51.5208 64.4452 49.2285 63.1938 51.4583 62.7207ZM27.2784 68.8296L26.9772 69.1189C27.3115 70.0872 28.4315 70.0002 29.3131 70.2393L27.2784 68.8296Z" fill="#FF80A6"/>
<path d="M45.5403 58.414C44.5279 59.6137 42.7567 60.1466 42.8513 62.0657C42.7256 62.2711 42.5458 62.4379 42.3316 62.5477L41.4368 61.5862C40.0557 62.0509 38.3365 60.5679 38.4009 58.8081C38.3715 58.2683 38.5226 57.7341 38.8304 57.2897C39.1382 56.8453 39.5852 56.516 40.1009 56.3538C41.9038 55.6683 42.1449 54.5944 41.4983 52.8094C40.9474 51.1871 40.5335 49.5216 40.2612 47.8301C40.0594 46.7168 41.6539 45.0292 42.78 44.9384C43.229 44.837 43.6896 44.796 44.1496 44.8163C44.3561 44.8553 44.5527 44.9353 44.7276 45.0518C44.9025 45.1683 45.0522 45.3188 45.1677 45.4943C45.8039 46.9948 46.2823 48.4749 45.5601 50.1192C45.3446 50.6247 45.3075 51.1883 45.4547 51.7176C45.6019 52.247 45.9247 52.7105 46.3701 53.0322C47.6068 54.0621 47.5616 54.1633 46.5506 55.4322C45.8401 56.324 45.1181 57.2487 45.5403 58.414ZM42.5503 59.3212L42.9206 59.2254C42.7523 58.4341 42.584 57.6428 42.3914 56.737L40.2252 57.6935L40.2596 57.7994L41.9712 57.4881C42.1655 58.1032 42.3579 58.7122 42.5503 59.3212ZM43.5778 46.3224C43.8547 47.3342 44.1092 48.2646 44.4004 49.3289C44.9131 47.8601 44.548 46.6286 43.5778 46.3224Z" fill="#FF80A6"/>
</svg>
