<svg width="57" height="69" viewBox="0 0 57 69" fill="none" xmlns="http://www.w3.org/2000/svg">
<g clip-path="url(#clip0_61_132)">
<path d="M53.0005 16.7598C52.7222 16.5828 52.4178 16.4514 52.0985 16.3705C50.9633 16.2939 49.824 16.2689 48.6857 16.2488C46.2809 16.2063 43.8751 16.2029 41.4709 16.139C38.8252 16.0687 36.1809 15.9463 33.5358 15.8507C31.2902 15.7694 29.0423 15.7305 26.7992 15.6066C24.0519 15.455 21.3073 15.2497 18.5637 15.0391C16.0795 14.8485 13.5984 14.6187 11.1158 14.4079C10.1765 14.3282 9.23768 14.2346 8.29659 14.1888C8.03026 14.216 7.76926 14.2824 7.52195 14.386C7.5605 14.6423 7.64436 14.8895 7.76956 15.1158C8.67192 16.1827 9.62202 17.2086 10.5274 18.2731C12.2849 20.3395 14.0465 22.4032 15.7589 24.5073C16.4754 25.3878 17.0142 26.4156 17.7328 27.2941C19.3356 29.2534 21.0188 31.1457 22.6336 33.0953C23.5635 34.218 24.4546 35.3767 25.307 36.5603C26.2462 37.8643 27.1149 39.2197 28.0283 40.543C28.2385 40.8952 28.5047 41.2102 28.8163 41.4753C28.9139 41.5606 29.0282 41.6243 29.1518 41.6623C29.2754 41.7003 29.4056 41.7117 29.5339 41.6959C29.6623 41.68 29.786 41.6373 29.897 41.5703C30.008 41.5034 30.1039 41.4137 30.1786 41.3072C31.4387 39.8978 32.688 38.4718 34.0492 37.1664C34.3418 36.8859 35.1187 36.9592 35.6187 37.085C37.8116 37.6367 39.9833 38.2731 42.1657 38.8674C43.3124 39.1797 44.4598 39.4947 45.6203 39.7463C45.7648 39.76 45.9105 39.7413 46.0472 39.6917C46.1838 39.6421 46.3079 39.5627 46.4107 39.4592C46.4781 39.3433 46.5204 39.2144 46.5349 39.081C46.5494 38.9475 46.5358 38.8126 46.495 38.6849C45.6824 35.8967 44.8524 33.1138 44.0048 30.3361C43.7889 29.6296 43.5014 28.9441 43.2225 28.2589C42.9966 27.704 42.7846 27.1715 43.293 26.6496C45.819 24.0567 48.3439 21.4627 50.8677 18.8676C51.5101 18.2093 52.1754 17.5738 53.0005 16.7598ZM15.888 21.4992L15.6057 21.3462C15.3931 21.6238 15.1804 21.9012 15.0158 22.116C13.3132 21.4518 14.1511 20.2139 14.5052 19.1027C13.4126 18.9884 13.7011 19.8775 13.3516 20.463C12.3583 19.0667 11.4262 17.7565 10.5049 16.4615C12.1826 17.1576 13.975 17.8149 15.6902 18.6356C17.6998 19.5972 19.645 20.6959 21.6132 21.7443C25.433 23.7789 29.2636 25.7937 33.0597 27.8722C34.416 28.6305 35.7297 29.4636 36.9949 30.3675C37.9598 31.0445 37.9573 31.6828 37.1674 32.5325C35.447 34.3831 33.7396 36.2462 32.0099 38.0879C31.3143 38.8285 30.5873 39.5412 29.8414 40.23C29.6396 40.3131 29.4204 40.3438 29.2039 40.3195C29.6489 39.8817 30.0659 39.4159 30.4524 38.925C30.6423 38.6508 31.3636 38.456 30.8446 37.9744C30.3621 37.5267 30.1031 38.1471 29.777 38.3828C29.6707 38.3993 29.5627 38.3998 29.4564 38.3843C29.4693 38.0392 29.4818 37.7041 29.4943 37.368C28.0471 37.0804 27.6584 36.6836 27.855 35.6798L26.4303 35.2223C26.5639 35.4571 26.6719 35.7058 26.7524 35.9641C26.7563 36.1801 26.7271 36.3953 26.6657 36.6023C25.3108 35.7587 26.4889 35.2005 26.6863 34.5708C26.0962 34.1995 26.0962 34.1995 25.5226 35.0575C23.9717 34.4611 25.7034 33.5784 25.2713 32.6891L24.2085 33.6497C24.1728 33.607 24.0865 33.5011 23.9978 33.3974C23.5268 32.8474 22.998 32.3156 23.8411 31.622C23.8619 31.513 23.8586 31.4007 23.8315 31.2931C23.8044 31.1856 23.7542 31.0854 23.6844 30.9996C23.2629 30.5795 22.6805 30.2908 22.3518 29.8163C21.8698 29.1208 21.5511 29.1437 21.2096 29.8578C20.4217 29.4281 20.4054 28.8269 20.659 28.1136C20.6754 27.9071 20.6474 27.6995 20.5768 27.505C20.3813 27.6033 20.179 27.6905 19.9943 27.8063C19.9426 27.8691 19.9072 27.9439 19.8916 28.0239C18.7509 27.2598 18.3576 26.3176 19.1457 25.0405C18.0616 25.2607 17.2255 24.4705 17.1353 22.9112C16.7764 23.1966 16.5213 23.3994 16.2628 23.605C15.2459 23.1328 15.7852 22.2659 15.888 21.4992ZM26.0401 16.3948C26.8062 16.6448 27.4085 16.8487 28.0165 17.0335C28.1439 17.0634 28.2768 17.0593 28.4023 17.0217C28.8487 16.9053 29.2907 16.7718 29.6592 16.6663C29.6912 16.9275 29.7778 17.1789 29.9134 17.4037C30.4124 17.4966 30.9163 17.5604 31.4227 17.5947C31.975 17.6562 32.5258 17.7437 33.0797 17.7737C33.4097 17.7916 33.9239 17.8468 34.0473 17.6687C34.7192 16.6993 35.6109 16.8292 36.5414 17.0129C36.5801 17.0332 36.613 17.063 36.6372 17.0996L36.3672 17.83C37.2319 17.8705 38.1273 17.4165 38.515 18.2278C39.2027 18.1238 39.7795 18.0606 40.3457 17.9448C41.0041 17.8101 41.7585 17.7875 42.2828 17.4329C43.1506 16.846 43.9064 17.2184 44.7111 17.2411L44.7458 17.4837C44.3903 17.5927 44.0348 17.7017 43.6793 17.8107L43.6667 18.0429C44.6736 18.2114 45.6758 18.4263 46.6894 18.5284C47.219 18.5209 47.7463 18.4552 48.2619 18.3326C48.0594 18.8129 47.9379 19.1008 47.8165 19.3887L48.0085 19.5807C48.9203 18.8322 49.8321 18.0837 50.7439 17.3353L50.886 17.5091C50.783 17.6282 50.6856 17.7528 50.5762 17.8656C47.939 20.5854 45.3016 23.3049 42.664 26.0242C42.4562 26.2438 42.1845 26.391 41.8883 26.4444C41.5921 26.4978 41.2869 26.4546 41.017 26.3212C40.3527 26.0809 39.6779 25.8704 39.0106 25.6383C37.236 25.0213 35.4421 24.4536 33.6948 23.7661C31.4947 22.9004 29.3677 21.8388 27.1466 21.0369C24.2059 19.9753 21.2044 19.0839 18.2294 18.118C17.0122 17.7229 15.7789 17.3701 14.5849 16.9135C13.5769 16.5281 12.615 16.0205 11.6327 15.567L11.6916 15.3398C12.6306 15.4419 13.5703 15.5377 14.5082 15.6489C14.9032 15.6958 15.4892 15.6365 15.6502 15.8664C16.1011 16.5101 16.44 16.3623 16.7517 15.9506C17.2891 16.1079 17.7289 16.2357 18.168 16.3656C18.3433 16.3779 18.5127 16.4344 18.6604 16.53C18.9911 17.9042 19.3992 16.6741 19.7644 16.5439C20.2254 16.7175 20.6754 16.887 21.1746 17.0751C22.0543 16.0574 23.1604 17.1909 24.1562 16.8563C24.1713 16.8778 24.188 16.8981 24.2062 16.917C24.6139 17.0642 25.0323 17.1795 25.4577 17.2619C25.8695 17.3147 26.2489 17.2021 26.0401 16.3948ZM44.742 36.5456L44.5363 36.6425C44.0865 36.2103 43.6292 35.7857 43.1884 35.3443C41.9875 34.1421 40.7816 32.9446 39.6056 31.718C39.3165 31.4165 39.2095 30.9067 38.8892 30.672C37.6084 29.6972 36.2789 28.789 34.906 27.9509C32.0861 26.2998 29.227 24.7145 26.3548 23.1567C24.1656 21.9694 21.9312 20.8663 19.7169 19.7257L19.8052 19.5382C25.6957 21.6533 31.7974 23.2448 37.1836 26.9554C37.19 26.5163 37.1927 26.3312 37.1954 26.1461C37.5319 26.4683 37.8089 26.8481 38.0136 27.2679C38.2727 27.759 38.5432 28.076 38.8307 27.6289C39.2033 27.8752 39.5901 28.0989 39.989 28.299C40.5162 28.526 41.0695 28.6656 41.2849 29.3157C41.3979 29.4689 41.5493 29.5889 41.7237 29.6636L42.2169 28.5116C43.8567 31.1455 43.828 33.9858 44.742 36.5456ZM38.6119 32.1714C40.4293 34.0354 42.1551 35.8053 44.0268 37.7249L42.9404 37.9717L43.1046 37.7074C42.9297 37.4979 42.7523 37.1079 42.5802 37.1106C42.4718 37.1331 42.3598 37.1312 42.2522 37.1051C42.1447 37.0789 42.0442 37.0292 41.958 36.9594C41.8718 36.8896 41.802 36.8015 41.7535 36.7013C41.705 36.6011 41.6791 36.4913 41.6776 36.3798L40.1146 35.4296C39.9834 35.5686 39.8179 35.67 39.6351 35.7232C39.0225 35.7047 38.7105 35.8369 38.9943 36.5293C38.9104 36.6903 38.795 36.8324 38.6549 36.947C38.3631 36.2038 38.122 35.5894 37.8753 34.9612C37.3098 35.0287 36.6679 35.1053 35.8223 35.2062C36.8193 34.1215 37.67 33.196 38.6119 32.1714ZM41.3192 17.0903C40.1225 17.5371 37.5898 17.4462 37.1465 16.9647C38.6152 17.0089 39.9672 17.0496 41.3192 17.0903ZM27.4372 36.7247C28.2719 37.9625 28.2719 37.9625 27.9005 38.4324C27.0164 37.2796 27.0164 37.2796 27.4372 36.7247ZM35.194 35.8685C35.6884 35.3838 37.0401 35.7996 37.4385 36.4659C36.7026 36.27 36.0025 36.0837 35.194 35.8685ZM23.0643 31.6626L22.7706 31.8559C22.4414 31.3949 21.7667 31.1349 21.979 30.1375C22.412 30.7459 22.7381 31.2043 23.0643 31.6626Z" fill="#1C62C3"/>
</g>
<defs>
<clipPath id="clip0_61_132">
<rect width="50" height="63" fill="white" transform="matrix(-0.994147 -0.108038 -0.108038 0.994147 56.5137 5.40186)"/>
</clipPath>
</defs>
</svg>
