<svg width="379" height="379" viewBox="0 0 379 379" fill="none" xmlns="http://www.w3.org/2000/svg">
<path d="M181.054 259.755C179.858 259.755 179.06 260.551 179.06 261.747L173.477 333.458C173.477 334.653 174.275 335.45 175.471 335.45C176.667 335.45 177.465 334.653 177.465 333.458L183.048 261.747C182.649 260.95 181.852 260.153 181.054 259.755Z" fill="#1C62C3"/>
<path d="M151.144 226.688C150.347 225.891 149.15 225.891 148.353 226.688L56.6292 317.921C55.8316 318.717 55.8316 319.913 56.6292 320.709C57.028 321.108 57.4268 321.108 58.2244 321.108C59.022 321.108 59.4208 321.108 59.8196 320.709L151.144 229.476C151.543 229.078 151.543 227.484 151.144 226.688Z" fill="#1C62C3"/>
<path d="M3.5892 190.035H87.3367C88.5331 190.035 89.3307 189.238 89.3307 188.043C89.3307 186.848 88.5331 186.051 87.3367 186.051H3.5892C2.39281 186.051 1.59521 186.848 1.59521 188.043C1.59521 189.238 2.39281 190.035 3.5892 190.035Z" fill="#1C62C3"/>
<path d="M137.585 137.845C137.984 137.845 138.782 137.845 139.18 137.447C139.978 136.65 139.978 135.455 139.18 134.658L80.1583 75.2971C79.3607 74.5003 78.1643 74.5003 77.3668 75.2971C76.5692 76.0939 76.5692 77.289 77.3668 78.0858L136.389 137.049C136.389 137.845 137.186 137.845 137.585 137.845Z" fill="#1C62C3"/>
<path d="M60.2184 61.7515C60.6172 62.1499 61.016 62.1499 61.8136 62.1499C62.6112 62.1499 63.01 62.1499 63.4088 61.7515C64.2064 60.9547 64.2064 59.7595 63.4088 58.9627L59.8196 55.3771C59.022 54.5803 57.8256 54.5803 57.028 55.3771C56.2304 56.1739 56.2304 57.3691 57.028 58.1659L60.2184 61.7515Z" fill="#1C62C3"/>
<path d="M191.822 131.073V1.99198C191.822 0.796794 191.024 0 189.828 0C188.631 0 187.834 0.796794 187.834 1.99198V131.073C187.834 132.268 188.631 133.065 189.828 133.065C191.024 133.065 191.822 132.268 191.822 131.073Z" fill="#1C62C3"/>
<path d="M228.112 149.797C228.511 150.196 229.309 150.594 230.106 150.594C230.904 150.594 231.303 150.196 232.1 149.797L297.902 84.0618C299.098 82.8666 299.098 81.273 297.902 80.4762C296.705 79.6795 295.11 79.2811 294.313 80.4762L228.112 145.813C227.315 147.009 227.315 148.602 228.112 149.797Z" fill="#1C62C3"/>
<path d="M303.485 76.8905C304.283 76.8905 304.681 76.4921 305.479 76.0937L313.455 68.1258C314.651 66.9306 314.651 65.337 313.455 64.5402C312.258 63.7434 310.663 63.345 309.866 64.5402L301.89 72.5081C300.693 73.7033 300.693 75.2969 301.89 76.0937C302.289 76.8905 302.687 76.8905 303.485 76.8905Z" fill="#1C62C3"/>
<path d="M376.066 185.653H246.856C245.659 185.653 244.463 186.848 244.463 188.043C244.463 189.238 245.659 190.434 246.856 190.434H376.066C377.262 190.434 378.459 189.238 378.459 188.043C378.459 186.848 377.262 185.653 376.066 185.653Z" fill="#1C62C3"/>
<path d="M231.701 226.688C230.904 225.891 229.309 225.891 228.511 226.688C227.713 227.484 227.713 229.078 228.511 229.875L306.675 307.961C307.074 308.359 307.872 308.757 308.271 308.757C308.669 308.757 309.467 308.359 309.866 307.961C310.663 307.164 310.663 305.57 309.866 304.773L231.701 226.688Z" fill="#1C62C3"/>
<path d="M214.553 280.073C214.154 278.878 213.357 278.479 212.16 278.479C210.964 278.878 210.565 279.675 210.565 280.87L236.886 377.282C237.285 378.079 238.082 378.876 238.88 378.876H239.279C240.475 378.477 240.874 377.68 240.874 376.485L214.553 280.073Z" fill="#1C62C3"/>
<path d="M146.757 270.113C145.96 269.715 144.764 269.715 143.966 270.91L95.3126 357.76C94.9138 358.557 94.9138 359.752 96.1102 360.549C96.509 360.549 96.9078 360.948 96.9078 360.948C97.7054 360.948 98.1042 360.549 98.503 359.752L147.555 272.902C148.353 271.707 147.954 270.511 146.757 270.113Z" fill="#1C62C3"/>
<path d="M98.503 207.166L16.3507 227.485C15.1543 227.883 14.7555 228.68 14.7555 229.875C15.1543 230.672 15.9519 231.469 16.7495 231.469H17.1483L99.3006 211.15C100.497 210.752 100.896 209.955 100.896 208.76C100.497 207.565 99.3006 206.768 98.503 207.166Z" fill="#1C62C3"/>
<path d="M4.78557 230.273L1.59519 231.07C0.398798 231.469 0 232.265 0 233.461C0.398798 234.257 1.19639 235.054 1.99399 235.054H2.39279L5.58317 234.257C6.77956 233.859 7.17836 233.062 7.17836 231.867C6.77956 230.672 5.58317 230.273 4.78557 230.273Z" fill="#1C62C3"/>
<path d="M66.5992 125.495L106.08 147.805C106.479 148.204 106.878 148.204 107.277 148.204C108.074 148.204 108.872 147.805 109.27 147.008C110.068 145.813 109.669 144.22 108.473 143.821L68.9919 121.511C67.7955 120.714 66.2003 121.113 65.8016 122.308C65.004 123.503 65.4028 125.097 66.5992 125.495Z" fill="#1C62C3"/>
<path d="M19.5411 98.0057L49.8497 115.137C50.2485 115.137 50.6473 115.535 50.6473 115.535C51.4449 115.535 51.8437 115.137 52.2425 114.34C52.6413 113.543 52.6413 112.348 51.4449 111.551L21.1363 94.4202C20.3387 94.0218 19.1423 94.0218 18.3447 95.217C17.9459 96.4121 18.3447 97.6073 19.5411 98.0057Z" fill="#1C62C3"/>
<path d="M161.114 102.388C161.513 103.185 162.311 103.981 163.108 103.981H163.507C164.703 103.583 165.102 102.786 165.102 101.591L138.782 5.57747C138.383 4.38228 137.585 3.98389 136.389 3.98389C135.192 4.38228 134.794 5.17908 134.794 6.37427L161.114 102.388Z" fill="#1C62C3"/>
<path d="M213.755 107.169C214.154 107.169 214.154 107.169 214.553 107.169C215.351 107.169 216.148 106.77 216.547 105.973L252.838 21.5134C253.236 20.3182 252.838 19.5214 251.641 18.7246C250.445 18.3262 249.647 18.7246 248.85 19.9198L212.559 104.38C212.16 105.575 212.559 106.77 213.755 107.169Z" fill="#1C62C3"/>
<path d="M275.17 167.327C275.569 168.123 276.367 168.92 277.164 168.92H277.563L373.673 142.228C374.87 141.829 375.268 141.032 374.87 139.837C374.471 138.642 373.673 138.244 372.477 138.642L276.367 165.335C275.569 165.335 274.771 166.53 275.17 167.327Z" fill="#1C62C3"/>
<path d="M356.126 284.854L269.188 235.453C268.391 235.054 267.194 235.054 266.397 236.249C265.998 237.046 265.998 238.241 267.194 239.038L354.531 288.041C354.93 288.041 355.329 288.439 355.329 288.439C356.126 288.439 356.525 288.041 356.924 287.244C357.721 286.447 357.323 285.252 356.126 284.854Z" fill="#1C62C3"/>
<path d="M211.363 221.11C210.565 219.915 208.97 219.915 208.172 220.712C206.976 221.509 206.976 223.102 207.774 223.899L256.427 286.846C256.826 287.642 257.623 287.642 258.421 287.642C258.82 287.642 259.617 287.642 260.016 287.244C261.212 286.447 261.212 284.854 260.415 284.057L211.363 221.11Z" fill="#1C62C3"/>
<path d="M275.569 305.172C274.772 304.375 273.575 303.977 272.778 304.774C271.98 305.57 271.581 306.766 272.379 307.562L287.932 327.482C288.331 327.881 288.729 328.279 289.527 328.279C289.926 328.279 290.325 328.279 290.723 327.881C291.521 327.084 291.92 325.889 291.122 325.092L275.569 305.172Z" fill="#1C62C3"/>
<path d="M195.012 284.854C196.607 284.854 197.804 283.26 197.804 282.065L195.81 245.014C195.81 243.421 194.214 242.225 193.018 242.225C191.423 242.225 190.226 243.819 190.226 245.014L192.22 282.065C192.22 283.659 193.417 284.854 195.012 284.854Z" fill="#1C62C3"/>
<path d="M198.202 342.223C199.399 342.223 200.196 341.028 200.196 339.832L198.601 311.945C198.601 310.749 197.405 309.554 196.208 309.953C195.012 309.953 194.214 311.148 194.214 312.343L195.81 340.231C196.208 341.426 197.006 342.223 198.202 342.223Z" fill="#1C62C3"/>
<path d="M199 348.996C197.804 348.996 197.006 350.191 197.006 351.386L198.202 374.493C198.202 375.688 199.399 376.485 200.196 376.485C201.393 376.485 202.19 375.29 202.19 374.095L200.994 350.988C200.994 349.792 200.196 348.597 199 348.996Z" fill="#1C62C3"/>
<path d="M127.216 285.651C127.615 286.049 128.014 286.049 128.413 286.049C129.21 286.049 130.008 285.651 130.407 284.854L169.489 223.899C170.287 222.704 169.888 221.509 168.691 220.712C167.495 219.915 165.9 220.314 165.501 221.509L126.419 282.463C125.621 283.659 126.02 284.854 127.216 285.651Z" fill="#1C62C3"/>
<path d="M103.687 321.506C102.491 320.71 100.896 321.108 100.497 322.303L86.9379 343.418C86.1403 344.613 86.5391 346.207 87.7355 346.605C88.1343 347.004 88.5331 347.004 88.9319 347.004C89.7295 347.004 90.5271 346.605 90.9259 345.809L104.485 324.693C105.283 323.498 104.884 322.303 103.687 321.506Z" fill="#1C62C3"/>
<path d="M130.806 210.752C130.407 209.557 128.812 208.76 127.615 209.158L15.1543 252.982C13.9579 253.38 13.1603 254.974 13.5591 256.169C13.9579 257.364 14.7555 257.763 15.9518 257.763C16.3506 257.763 16.7494 257.763 16.7494 257.763L129.21 213.939C130.806 213.541 131.204 211.947 130.806 210.752Z" fill="#1C62C3"/>
<path d="M8.77355 143.025L120.836 172.506C121.234 172.506 121.234 172.506 121.633 172.506C122.83 172.506 123.627 171.709 124.026 170.912C124.425 169.717 123.627 168.522 122.431 168.124L10.3687 138.244C9.17235 137.845 7.97596 138.642 7.57716 139.837C6.77956 141.431 7.57716 142.626 8.77355 143.025Z" fill="#1C62C3"/>
<path d="M149.15 142.228C149.549 142.626 150.347 143.024 151.144 143.024C151.543 143.024 152.341 143.024 152.739 142.626C153.936 141.829 153.936 140.236 153.138 139.439L74.1763 42.2301C73.3787 41.0349 71.7835 41.0349 70.9859 41.8317C69.7895 42.6285 69.7895 44.2221 70.5871 45.0189L149.15 142.228Z" fill="#1C62C3"/>
<path d="M172.281 37.4492C170.685 37.4492 169.489 39.0428 169.888 40.6364L178.661 147.407C178.661 149 179.858 149.797 181.453 149.797C181.453 149.797 181.453 149.797 181.852 149.797C183.447 149.797 184.643 148.204 184.245 146.61L175.471 39.8396C175.471 38.6444 173.876 37.4492 172.281 37.4492Z" fill="#1C62C3"/>
<path d="M171.483 27.8878C173.078 27.8878 174.275 26.2943 174.275 24.7007L173.477 14.3424C173.477 12.7488 171.882 11.5536 170.287 11.952C168.691 11.952 167.495 13.5456 167.894 15.1391L168.691 25.4975C168.691 26.6927 169.888 27.8878 171.483 27.8878Z" fill="#1C62C3"/>
<path d="M224.523 133.861C224.922 134.26 225.321 134.26 225.719 134.26C226.517 134.26 226.916 133.861 227.315 133.463L292.319 32.6686C293.116 31.8718 292.717 30.6766 291.92 29.8799C291.122 29.4815 289.926 29.4815 289.128 30.2783L224.124 131.073C223.327 132.268 223.725 133.463 224.523 133.861Z" fill="#1C62C3"/>
<path d="M226.517 174.099C226.916 174.896 227.713 175.295 228.511 175.295C228.91 175.295 228.91 175.295 229.309 175.295L364.501 122.706C365.697 122.308 366.096 121.113 365.697 120.316C365.299 119.121 364.102 118.722 363.305 119.121L227.713 171.311C226.916 171.709 226.118 172.904 226.517 174.099Z" fill="#1C62C3"/>
<path d="M226.916 197.605C226.517 199.198 227.315 200.792 228.91 201.19L316.645 224.297C317.044 224.297 317.044 224.297 317.443 224.297C318.639 224.297 319.836 223.501 320.234 222.305C320.633 220.712 319.836 219.118 318.24 218.72L230.505 195.613C228.91 195.214 227.315 196.011 226.916 197.605Z" fill="#1C62C3"/>
<path d="M364.501 231.07L341.77 225.094C340.174 224.696 338.579 225.493 338.18 227.086C337.782 228.68 338.579 230.273 340.174 230.672L362.906 236.648C363.305 236.648 363.305 236.648 363.703 236.648C364.9 236.648 366.096 235.851 366.495 234.656C366.894 233.062 366.096 231.469 364.501 231.07Z" fill="#1C62C3"/>
<path d="M169.489 261.348C168.293 260.95 167.495 261.747 167.096 262.942L151.144 322.303C150.745 323.498 151.543 324.295 152.739 324.693H153.138C153.936 324.693 154.733 324.295 155.132 323.1L171.084 263.739C171.483 262.942 170.685 261.747 169.489 261.348Z" fill="#1C62C3"/>
<path d="M149.549 335.052C148.353 334.653 147.555 335.45 147.156 336.645L140.377 362.143C139.978 363.338 140.775 364.135 141.972 364.533H142.371C143.168 364.533 143.966 364.135 144.365 362.939L151.144 337.442C151.543 336.645 150.745 335.45 149.549 335.052Z" fill="#1C62C3"/>
<path d="M66.9979 270.511C66.2004 269.715 65.004 269.316 64.2064 270.113L24.7254 296.009C23.9278 296.806 23.529 298.001 24.3266 298.798C24.7254 299.196 25.523 299.594 25.9218 299.594C26.3206 299.594 26.7194 299.594 27.1182 299.196L66.5991 273.3C67.3967 272.902 67.7955 271.707 66.9979 270.511Z" fill="#1C62C3"/>
<path d="M102.89 190.434H125.222C126.818 190.434 127.615 189.238 127.615 188.043C127.615 186.848 126.419 185.653 125.222 185.653H102.89C101.295 185.653 100.497 186.848 100.497 188.043C100.497 189.238 101.295 190.434 102.89 190.434Z" fill="#1C62C3"/>
</svg>
