<svg width="136" height="165" viewBox="0 0 136 165" fill="none" xmlns="http://www.w3.org/2000/svg">
<path d="M39.4124 78.343C38.9868 78.3598 38.7054 78.3496 38.436 78.3905C37.8184 78.4786 37.2124 78.6315 36.5909 78.6965C32.7607 79.0963 29.9941 77.4261 28.0963 74.2176C27.648 73.4601 27.1298 72.9718 26.3201 72.6247C24.3868 71.7951 22.9175 70.4022 21.9411 68.5391C21.6385 67.9665 21.3012 67.586 20.6595 67.3187C17.9239 66.1929 17.2768 63.1448 19.3401 61.0236C19.9926 60.3567 20.813 59.7695 21.6674 59.3954C25.4741 57.7334 29.2982 56.0996 33.1598 54.5775C36.7916 53.1485 40.0965 53.8622 42.9907 56.4715C43.6393 57.0567 44.2786 57.6461 44.9032 58.258C46.1341 59.4719 46.1293 59.4764 48.0757 59.4364C47.6981 58.7644 47.1569 58.4041 46.5308 58.0867C42.489 56.0389 40.9193 50.9179 42.1853 47.7227C42.394 47.1917 42.3564 46.8266 41.9893 46.376C39.9734 43.8767 39.4481 41.0357 40.1791 37.9454C40.8667 35.0331 42.2464 32.5234 44.6019 30.6246C46.7957 28.8534 49.3276 28.0797 52.2352 28.406C52.8809 25.3772 54.122 22.7428 57.2041 21.5701C60.1129 20.4648 62.9254 20.9948 65.5967 22.4912C65.7586 22.3589 65.8959 22.2672 66.0109 22.1517C69.6889 18.5605 74.0264 17.6727 78.9016 19.0418C80.6757 19.5434 82.3192 20.3396 83.784 21.4746C86.0443 23.2185 87.6153 25.3793 87.8504 28.3204C87.866 28.5281 87.9142 28.7278 87.9576 28.932C87.9732 29.0108 88.0121 29.0859 88.0666 29.2398C89.9756 29.843 91.3759 31.1046 92.293 32.947C93.2359 34.8456 92.7822 36.6569 91.9993 38.3734C92.0994 38.5427 92.1284 38.6358 92.187 38.6748C96.6686 41.8435 96.7909 49.8123 92.8766 53.6804C91.6117 54.9328 90.4215 56.1603 89.4618 57.6585C88.7616 58.7519 87.6931 59.5557 86.4835 60.0458C85.6584 60.3796 85.3103 60.9332 85.0004 61.7092C84.3752 63.2841 83.6766 64.8424 82.8877 66.3422C81.4736 69.0348 79.4859 71.237 76.8089 72.8295C76.8758 73.0253 76.8927 73.1962 76.9809 73.3099C78.119 74.7922 79.1902 76.3364 80.4429 77.7169C81.4645 78.845 82.5983 79.9357 83.8662 80.7689C87.5483 83.1812 91.323 85.4588 95.064 87.7766C95.4073 87.9916 95.7852 88.1434 96.239 88.367C97.4408 83.3787 98.2867 78.5202 96.7252 73.5514C95.98 71.1718 95.1452 68.8398 94.0531 66.595C93.2922 65.0297 92.5316 63.4553 91.8832 61.8436C91.3239 60.4514 91.0213 58.9857 91.3815 57.4611C91.8999 55.2655 93.7625 53.8369 96.0185 53.9187C98.3714 54.0039 100.585 56.0177 100.865 58.3528C101.028 59.726 100.575 60.8835 99.5437 61.8084C99.2094 62.1093 98.8529 62.3864 98.4623 62.7129C99.2253 64.094 99.9667 65.433 100.708 66.7765C102.112 69.3272 103.347 71.9501 104.025 74.8013C105.091 79.2963 104.594 83.6932 103.203 88.0396C102.938 88.8679 102.69 89.706 102.374 90.514C102.15 91.0998 102.292 91.5146 102.838 91.7324C104.254 92.2993 105.691 92.821 107.217 93.401C107.235 92.9091 107.233 92.5914 107.263 92.2748C107.317 91.6599 107.322 91.0247 107.463 90.4314C107.931 88.501 109.629 87.6509 111.383 88.5755C112.195 89.0054 112.927 89.7133 113.496 90.4428C114.207 91.3525 114.742 92.3985 115.296 93.4177C116.093 94.8737 116.863 96.3426 117.598 97.8332C118.278 99.2205 118.039 99.8334 116.633 100.496C114.335 101.573 112.033 102.65 109.513 103.106C108.541 103.283 107.51 103.429 106.549 103.298C103.993 102.948 102.966 100.963 104.08 98.6462C104.435 97.9086 104.976 97.2561 105.444 96.5733C105.649 96.2769 105.885 96.0046 106.205 95.5926C105.22 95.2163 104.355 94.8857 103.416 94.5294C103.352 94.8816 103.307 95.1193 103.261 95.357C102.816 97.8315 101.405 99.5482 99.1614 100.65C98.7382 100.856 98.3292 101.177 98.0341 101.544C94.2185 106.258 89.5526 109.703 83.5851 111.203C81.6504 111.69 79.7038 112.122 77.7612 112.571C77.2395 112.691 76.7142 112.782 76.207 112.883C75.8644 118.128 69.4233 119.189 66.5728 115.757C66.1814 117.377 65.8261 118.897 66.2685 120.455C66.3955 120.902 66.74 121.338 67.0884 121.668C67.8119 122.353 68.6029 122.962 69.3697 123.602C69.8134 123.977 70.2954 124.316 70.6913 124.736C71.6299 125.732 71.4374 126.964 70.2572 127.662C69.9409 127.849 69.5832 128.034 69.2258 128.08C67.9121 128.254 66.5742 128.587 65.2809 128.458C63.2235 128.25 61.1853 127.766 59.1598 127.32C57.3907 126.933 56.5433 125.715 56.3298 123.958C56.0805 121.914 56.4258 119.905 56.6283 117.887C56.9026 115.162 57.255 112.45 57.4601 109.723C57.5688 108.253 57.6426 106.727 56.6125 105.323C56.4602 105.575 56.306 105.749 56.2387 105.949C55.559 108.005 54.3692 109.735 52.8411 111.24C52.1608 111.911 51.4404 112.543 50.7425 113.19C48.3956 115.361 46.0712 117.551 43.7021 119.697C42.2453 121.017 41.5508 122.589 41.7196 124.561C41.7746 125.212 41.7265 125.901 41.5605 126.53C41.1923 127.893 40.0315 128.44 38.7449 127.869C38.1494 127.603 37.5767 127.219 37.0985 126.774C35.5344 125.317 34.3036 123.592 33.3847 121.667C32.273 119.329 32.5185 117.142 34.2746 115.212C35.1117 114.294 36.0472 113.463 36.9513 112.607C38.1281 111.494 39.3537 110.434 40.486 109.273C41.0856 108.66 41.5972 107.928 42.0217 107.179C42.7173 105.957 42.6432 104.688 41.8256 103.54C41.2013 102.665 40.4824 101.852 39.7965 101.021C38.7123 99.707 37.5852 98.4323 36.5437 97.087C34.2575 94.1452 33.806 90.9248 35.2977 87.4937C36.4368 84.8695 37.6395 82.2751 38.8149 79.6706C39.0006 79.263 39.1861 78.86 39.4317 78.3303L39.4124 78.343ZM91.0133 52.1861C93.5787 49.724 93.9062 44.8928 92.1391 42.0297C91.0136 40.1981 89.3283 39.5386 87.236 39.785C86.9483 39.8206 86.6634 39.9069 86.3764 39.9241C85.8117 39.9543 85.4007 39.6954 85.2592 39.1378C85.1136 38.5663 85.3938 38.1023 85.9118 37.9554C86.6633 37.7432 87.4478 37.6381 88.2268 37.5559C88.7045 37.5041 89.1961 37.5772 89.6621 37.5941C90.2404 36.4227 90.685 35.3707 90.2115 34.1612C89.3617 31.9897 87.284 30.6852 84.9046 31.713C84.0834 32.0653 83.563 31.8946 83.2876 31.3367C82.9991 30.7554 83.2793 30.1625 84.0841 29.7543C84.5218 29.5308 84.9896 29.3682 85.4212 29.1859C85.4534 27.1521 84.8685 25.6992 83.3497 24.2722C80.8033 21.8781 77.7453 20.7268 74.2619 20.8629C71.7592 20.961 69.5845 21.9502 67.8146 23.7505C66.7979 24.7817 66.1296 26.0144 65.893 27.4467C65.7093 28.5634 65.898 29.6014 66.755 30.4289C68.1698 31.7969 71.0593 31.8601 72.4983 30.522C72.8281 30.2163 73.042 29.7959 73.3364 29.4475C73.7034 29.0096 74.1873 28.9121 74.681 29.1832C75.1339 29.4344 75.3202 29.9015 75.1327 30.3597C74.9196 30.886 74.6368 31.4236 74.2568 31.8379C72.7991 33.4377 70.8969 33.9213 68.8155 33.7353C67.1947 33.5891 65.7427 32.9932 64.6718 31.6975C63.2691 29.994 63.2238 28.0587 63.7588 26.0434C63.9081 25.4917 64.1216 24.9562 64.3022 24.4334C62.9677 23.5287 61.231 23.1389 59.6245 23.3615C57.0477 23.7193 55.1453 25.6069 54.7841 28.1811C54.678 28.9415 54.7367 29.6158 55.4134 30.1927C55.9064 30.6111 56.2965 31.1915 56.6081 31.7691C58.9734 36.0995 56.3859 41.3413 51.4026 42.459C47.4578 43.3427 45.2174 39.7719 45.6536 37.0438C45.8741 35.6753 46.7632 34.8513 47.8854 34.2244C48.4182 33.9261 49.0167 34.1089 49.343 34.5397C49.6602 34.9655 49.6382 35.5724 49.243 36.023C49.0263 36.2684 48.6833 36.4263 48.5166 36.6918C48.2863 37.0564 48.0164 37.4932 48.0203 37.8939C48.0479 39.4279 49.3088 40.4542 50.8037 40.1217C52.7549 39.6906 54.2372 38.5612 54.866 36.632C55.8123 33.72 53.7882 30.1708 49.9828 30.7787C48.0592 31.0865 46.4389 31.9485 45.1353 33.3745C43.6972 34.9428 42.7983 36.8024 42.4224 38.888C42.1097 40.6353 42.1852 42.3736 43.0836 43.9715C43.8778 45.3815 44.895 46.5048 46.5941 46.9116C47.4551 47.1178 47.637 48.2154 46.9331 48.6456C46.5836 48.8586 46.0705 48.8676 45.6364 48.8657C45.2439 48.8606 44.8567 48.7085 44.4765 48.621C43.9378 50.3556 44.0844 51.7926 44.8631 52.8658C45.8886 48.9162 48.8054 47.9723 51.8535 49.3947C52.2548 48.774 52.6067 48.1145 53.0663 47.5419C53.55 46.9426 54.2417 46.8479 54.7232 47.2015C55.2226 47.5695 55.2028 48.1166 54.7835 48.8517C54.4382 49.4561 54.0783 50.083 53.9063 50.7489C53.4328 52.5962 54.4569 54.1664 56.3129 54.5744C58.5586 55.0701 60.7182 53.9836 61.6575 51.9045C62.0493 51.0348 62.0861 50.1476 61.8746 49.2285C61.7348 48.6249 61.558 48.0201 61.4786 47.4095C61.3992 46.7944 61.7453 46.2959 62.2502 46.13C62.7691 45.9601 63.2833 46.1767 63.6144 46.7273C63.719 46.9014 63.8181 47.0984 63.8478 47.2974C64.0452 48.4785 64.3168 49.6531 64.3799 50.8432C64.4144 51.5488 64.6042 52.0482 65.1733 52.405C65.5933 52.6688 66.0266 52.9515 66.4923 53.1019C69.5557 54.1015 72.4903 53.8165 75.2144 52.0692C76.6523 51.1453 77.4644 49.7661 77.7332 48.0862C78.1873 45.2438 76.3201 42.9755 73.4372 42.8572C71.8136 42.7892 70.8823 43.6301 70.7679 45.2557C70.7558 45.4624 70.7299 45.6686 70.6719 45.8645C70.5246 46.361 70.1688 46.6197 69.6641 46.652C69.1594 46.6844 68.7612 46.4536 68.5653 45.9953C68.4545 45.7381 68.41 45.4372 68.388 45.151C68.2102 42.7921 70.2044 40.6638 72.7565 40.48C77.1148 40.1684 80.4432 43.4149 80.1379 47.759C80.0627 48.8151 79.7339 49.8575 79.4968 51.0458C80.5031 52.0859 81.8147 52.7319 83.3749 52.7654C85.3873 52.8107 86.4483 51.0675 85.5532 49.2534C85.4069 48.9581 85.1857 48.6877 85.0908 48.3758C84.9336 47.8683 85.016 47.3787 85.4811 47.0365C85.9225 46.7118 86.5168 46.7563 86.9686 47.164C87.1521 47.3272 87.3016 47.5352 87.4421 47.7382C88.6177 49.4612 88.4978 51.8739 87.1668 53.5474C86.9395 53.8292 86.6466 54.1362 86.5931 54.4657C86.4378 55.4361 86.3929 56.4197 86.2797 57.6309C87.7474 56.5194 88.627 55.3221 88.6201 53.6C88.6197 53.1028 88.5179 52.5973 88.5861 52.1164C88.7276 51.1455 89.7285 50.8044 90.4532 51.4567C90.6636 51.6439 90.8062 51.9116 91.0133 52.1861ZM50.9572 58.4316C51.136 58.3414 51.2774 58.2637 51.4231 58.1953C52.3872 57.7239 52.8824 57.9536 53.1554 58.9625C54.6171 64.388 57.8702 68.4374 62.8499 70.9935C68.546 73.9162 76.2242 72.7443 80.2716 66.1051C81.8141 63.5692 82.9424 60.8617 83.6517 57.987C83.8741 57.0789 83.968 56.1432 84.1408 55.0721C81.6999 55.1217 79.7731 54.2417 78.1702 52.8393C73.3938 56.6576 68.4996 57.0972 63.3167 53.9169C62.4275 55.1277 61.3401 56.0688 59.9485 56.6122C56.6077 57.9091 52.8286 56.5199 51.7518 53.3458C51.5599 52.7772 51.1637 52.238 50.7457 51.7901C49.7409 50.7086 48.1369 50.9911 47.6201 52.3765C47.4003 52.9624 47.3461 53.6925 47.4623 54.3089C47.8377 56.3159 49.2453 57.4994 50.9623 58.4318L50.9572 58.4316ZM92.3564 95.5597C83.3606 92.163 74.7644 88.081 67.0807 81.9883C66.7141 82.928 66.3864 83.6849 66.1181 84.4579C65.2725 86.8856 64.4681 89.3241 64.1578 91.8955C64.0779 92.5694 64.2638 93.0503 64.6506 93.5937C65.7585 95.1438 66.8471 96.7164 67.818 98.3537C69.4505 101.106 69.7693 104.036 68.7483 107.098C68.52 107.789 68.36 108.506 68.099 109.463C71.3382 107.399 74.8396 106.766 78.1857 105.704C80.0877 105.101 82.0025 104.526 83.8582 103.801C86.5432 102.752 89.0459 101.379 91.1787 99.3798C92.2977 98.3292 92.9434 97.2109 92.3567 95.5554L92.3564 95.5597ZM39.0701 125.278C39.1793 125.195 39.2308 125.178 39.2364 125.151C39.2653 124.991 39.3176 124.822 39.3048 124.665C39.0402 121.769 40.2711 119.544 42.372 117.659C44.7544 115.527 47.0923 113.351 49.4303 111.166C50.4008 110.262 51.3854 109.354 52.2307 108.335C54.1195 106.055 54.7826 103.437 54.0703 100.529C53.3864 97.7329 52.2809 95.0963 50.8562 92.6001C50.0874 91.251 49.0236 90.1398 47.8115 89.1705C47.0034 88.5243 46.0927 88.1598 45.0415 88.2322C42.1517 88.4313 39.7701 89.6479 37.934 91.874C37.2237 92.7368 37.0085 93.7049 37.7947 94.7002C38.9035 96.0984 39.9839 97.5141 41.0928 98.9125C41.9986 100.05 43.0042 101.109 43.8296 102.299C45.1248 104.16 45.2358 106.198 44.1752 108.186C43.6152 109.233 42.8684 110.21 42.0561 111.083C40.9508 112.263 39.6981 113.304 38.517 114.412C37.6993 115.179 36.868 115.936 36.0949 116.746C34.9522 117.938 34.8293 119.292 35.5616 120.755C36.3329 122.288 37.313 123.668 38.5254 124.886C38.6858 125.048 38.894 125.166 39.0561 125.283L39.0701 125.278ZM86.3317 85.5252L86.4325 85.2941C85.4523 84.6785 84.4726 84.0537 83.4875 83.4471C81.2375 82.0535 79.2758 80.3527 77.7042 78.2103C76.8678 77.0704 75.9507 75.9922 75.1236 74.8481C74.6485 74.191 74.198 74.0043 73.3484 74.2498C69.5664 75.3557 65.8463 75.0137 62.2743 73.388C57.9387 71.417 54.8088 68.173 52.6885 63.9667C52.2316 63.0616 51.641 62.5338 50.6874 62.3335C50.3206 62.2558 49.9595 62.1506 49.5867 62.1141C46.4847 61.7945 43.3803 61.4149 40.2526 61.6791C37.8338 61.8814 35.4667 62.3205 33.2535 63.3497C31.7029 64.0716 31.4892 64.8695 32.654 66.1271C33.5743 67.118 34.6306 68.054 35.7926 68.7498C38.3925 70.3035 41.0408 71.7944 43.7646 73.1176C47.5415 74.9533 51.4538 76.4946 55.5264 77.563C56.318 77.7713 57.17 77.8436 57.9884 77.8226C58.8623 77.799 59.0804 77.2637 58.495 76.5888C58.0117 76.0326 57.424 75.5509 56.8257 75.1057C54.4548 73.3532 52.0453 71.6454 49.6745 69.8884C46.9035 67.8313 44.0981 65.8284 40.9598 64.3427C40.8463 64.2879 40.7326 64.2378 40.629 64.165C40.2192 63.8739 40.0018 63.4977 40.1726 62.9929C40.338 62.5063 40.7135 62.2161 41.2147 62.2803C41.6561 62.3377 42.0984 62.4964 42.5026 62.6906C45.2909 64.0163 47.8973 65.6437 50.3863 67.4558C53.0417 69.389 55.712 71.295 58.3335 73.2729C59.1832 73.916 59.897 74.7429 60.6739 75.4847C60.8793 75.6809 61.0588 75.9544 61.3046 76.0554C62.9989 76.7199 64.7086 77.3481 66.3902 77.9799C66.9294 77.5069 67.3333 76.9415 68.071 77.2352C68.8177 77.5339 68.6487 78.246 68.7184 78.8746C74.6061 81.0998 80.4612 83.3193 86.3176 85.5342L86.3317 85.5252ZM62.6129 94.6465C62.4734 94.6736 62.3813 94.6657 62.3198 94.7049C59.8527 96.2406 58.2259 98.4283 57.3321 101.167C57.2437 101.44 57.2992 101.82 57.4234 102.091C57.6071 102.503 57.8892 102.877 58.1624 103.241C59.4979 105.012 60.0306 107.01 59.8726 109.205C59.8346 109.743 59.8334 110.286 59.7772 110.818C59.4328 114.074 59.0515 117.329 58.744 120.586C58.6469 121.609 58.7246 122.653 58.7334 123.684C58.7378 124.453 59.1314 124.937 59.8932 125.075C61.894 125.442 63.889 125.841 65.9021 126.126C66.5961 126.225 67.3328 126.035 68.3245 125.951C67.8501 125.529 67.6175 125.318 67.3756 125.111C66.6593 124.482 65.9286 123.867 65.2222 123.219C64.2115 122.299 63.7186 121.116 63.716 119.786C63.7101 118.671 63.724 117.526 63.9755 116.448C64.7818 112.937 65.657 109.438 66.5915 105.959C67.0833 104.117 67.0131 102.356 66.2912 100.608C65.4461 98.561 64.2706 96.7091 62.9441 94.9438C62.8471 94.816 62.7072 94.7235 62.6132 94.6418L62.6129 94.6465ZM41.1028 74.5445C40.4727 74.2132 39.8731 73.9337 39.3081 73.5909C37.1475 72.2788 34.963 70.9889 32.8515 69.6003C31.6333 68.7965 30.6282 67.7243 29.9556 66.397C29.1278 64.7649 29.4161 63.1825 30.8613 62.0564C31.5695 61.5066 32.4075 61.072 33.2461 60.7525C35.7473 59.8027 38.3605 59.3311 41.0393 59.221C41.4557 59.2039 41.9263 59.3452 42.3173 59.0095C40.089 56.5072 37.4658 55.5973 34.4503 56.7126C30.3673 58.2266 26.3895 60.0206 22.37 61.7072C22.1073 61.8173 21.8563 61.9878 21.6284 62.1591C21.3958 62.3302 21.1672 62.5199 20.9882 62.7436C20.2239 63.6918 20.4641 64.7134 21.6137 65.1141C22.2249 65.3296 22.9105 65.4051 23.5659 65.4197C24.3922 65.4358 25.2237 65.3094 26.0524 65.2612C26.4643 65.2393 26.8904 65.2087 27.29 65.2738C27.7721 65.3558 28.126 65.6586 28.1998 66.1723C28.2856 66.7371 28.0345 67.1653 27.5235 67.3724C27.1484 67.5246 26.7259 67.5829 26.3174 67.6372C25.6397 67.7277 24.9586 67.7859 24.1424 67.8714C24.3478 68.1965 24.4381 68.3793 24.5666 68.5313C25.7764 69.9471 27.2965 70.8308 29.1557 71.0271C30.3521 71.1534 31.5629 71.142 32.7609 71.2269C33.6916 71.2928 34.2233 71.7909 34.1848 72.4708C34.1521 73.1187 33.6522 73.5288 32.7814 73.5939C32.3692 73.625 31.9498 73.596 31.5338 73.6039C31.2194 73.6109 30.9093 73.6273 30.3219 73.6475C31.8289 75.5298 33.4874 76.5475 35.6892 76.3418C37.2142 76.1991 38.7193 75.8394 40.2339 75.5996C40.796 75.5141 40.9799 75.1571 41.0946 74.5397L41.1028 74.5445ZM62.8541 86.46C63.7032 84.3178 64.5122 82.2617 65.3513 80.1422C63.8565 79.5816 62.4757 79.0573 61.0902 78.5375C60.0137 80.0729 58.5697 80.4028 56.9498 80.2335C56.4573 80.1835 55.9561 80.1192 55.4752 80.0051C51.7373 79.1331 48.2157 77.6474 44.6933 76.1799C44.2017 75.978 43.7152 75.7624 43.1648 75.5261C42.1535 77.8097 41.1773 80.0163 40.0809 82.4856C48.4893 79.9084 56.167 80.1544 62.8589 86.4647L62.8541 86.46ZM97.4127 60.3348C98.2487 59.9554 98.5419 59.386 98.4364 58.5995C98.2735 57.3598 96.9149 56.2241 95.7152 56.3141C94.386 56.4086 93.5034 57.4355 93.6669 58.9146C93.775 59.8853 94.0581 60.8669 94.427 61.778C95.0209 63.2359 95.7321 64.6427 96.4246 66.0581C97.6767 68.5988 98.5874 71.2605 99.3061 73.9889C100.435 78.279 100.008 82.5358 98.9951 86.7755C98.7449 87.8161 98.481 88.8515 98.1947 89.9967C98.8242 90.2175 99.376 90.4124 100.037 90.6435C100.49 89.1131 100.937 87.7344 101.307 86.339C102.812 80.6206 102.43 75.0915 99.5819 69.8228C98.6554 68.1088 97.7148 66.4035 96.7977 64.6854C96.3089 63.77 95.7547 62.8752 95.4109 61.9098C95.0421 60.8698 94.8237 59.757 94.6694 58.6603C94.581 58.0402 95.0454 57.592 95.5752 57.5054C96.1097 57.4142 96.5984 57.6944 96.8449 58.288C96.9725 58.5918 97.0205 58.925 97.1058 59.2458C97.1995 59.5945 97.3025 59.9389 97.4127 60.3388L97.4127 60.3348ZM94.1412 99.6152C92.852 100.77 91.702 101.912 90.4374 102.901C88.4597 104.446 86.2244 105.575 83.8442 106.373C81.0479 107.308 78.2053 108.116 75.4007 109.023C73.8628 109.519 72.3196 110.039 70.841 110.685C70.104 111.008 69.4277 111.568 68.866 112.156C68.1458 112.908 68.2676 114.008 68.9849 114.738C70.1611 115.932 72.7564 115.446 73.4547 113.897C73.495 113.806 73.4306 113.67 73.3856 113.383C72.6478 113.729 71.9895 114.046 71.3273 114.349C70.8622 114.562 70.4162 114.505 70.084 114.11C69.7074 113.669 69.7178 113.126 70.1192 112.758C70.5683 112.346 71.0999 111.956 71.666 111.755C72.7566 111.362 73.8892 111.086 75.0173 110.804C77.9587 110.073 80.9251 109.416 83.8545 108.634C88.2532 107.463 91.805 104.931 94.8221 101.601C95.0916 101.302 95.325 100.979 95.6152 100.622C95.0698 100.247 94.5964 99.9263 94.1457 99.6153L94.1412 99.6152ZM37.8921 87.8074C39.168 87.2736 40.3243 86.7216 41.5268 86.3002C45.4386 84.9227 49.3755 84.6374 53.3717 86.039C55.9854 86.9578 58.3525 88.305 60.6147 89.8739C60.9797 90.1265 61.35 90.3609 61.7381 90.6144C62.1221 89.5787 62.2039 89.4896 61.7482 88.9344C61.0181 88.047 60.2667 87.1129 59.3435 86.4534C56.2363 84.2415 52.6911 83.2751 48.9026 83.2897C45.9687 83.303 43.1514 84.0526 40.3585 84.8905C38.9387 85.3179 38.0773 86.1429 37.897 87.803L37.8921 87.8074ZM109.837 90.6037C109.253 91.8026 109.47 92.9567 109.716 94.0751C109.945 95.1331 109.804 95.8462 108.77 96.4532C107.618 97.1297 106.812 98.2329 106.223 99.4408C105.719 100.477 105.989 100.924 107.114 100.983C107.566 101.009 108.025 100.956 108.475 100.89C110.547 100.573 112.461 99.7819 114.353 98.9297C114.64 98.802 114.896 98.6087 115.198 98.4264C114.412 96.9201 113.688 95.4759 112.908 94.0665C112.431 93.1975 111.894 92.3585 111.337 91.5419C111.012 91.0698 110.607 90.6455 109.837 90.6037ZM95.3301 91.8043C95.2929 91.6833 95.2604 91.5624 95.2232 91.4413C87.8135 88.6362 80.3991 85.8353 72.989 83.0302C72.9486 83.1254 72.9083 83.216 72.8633 83.311C79.2776 87.4521 86.1597 90.6709 93.1922 93.5545C93.9683 92.9151 94.649 92.3597 95.3299 91.7997L95.3301 91.8043ZM50.1024 87.8079C53.1387 90.5743 54.4263 94.3086 55.9949 98.1865C57.3193 95.9327 58.923 94.2552 61.0416 92.9002C57.6299 90.4241 54.2042 88.4538 50.1027 87.8033L50.1024 87.8079ZM101.063 94.6316C99.4329 94.2227 97.935 93.9981 96.4077 94.334C95.4483 94.5478 94.8727 95.2636 94.8862 96.1618C94.9093 97.6911 97.1834 99.0579 98.3287 98.4319C99.8414 97.6074 100.847 96.4883 101.063 94.6271L101.063 94.6316ZM74.3636 23.8489C74.0359 23.4596 73.5717 23.3921 73.1203 23.6105C72.6502 23.8375 72.4818 24.2779 72.6214 24.7572C72.8594 25.5853 73.1299 26.4053 73.438 27.2083C73.6363 27.7265 74.0712 27.9633 74.6339 27.8594C75.206 27.7512 75.4425 27.3454 75.5147 26.7542C75.325 25.7437 75.0858 24.6991 74.3636 23.8489ZM71.3013 48.4368C71.2972 47.9119 70.9061 47.488 70.3948 47.4464C69.8603 47.4086 69.3401 47.8685 69.3158 48.4109C69.2917 48.9487 69.7675 49.4585 70.3032 49.4641C70.8665 49.4707 71.3034 49.017 71.2967 48.4367L71.3013 48.4368ZM83.4145 45.3402C82.8983 45.3077 82.4463 45.6688 82.368 46.1724C82.2831 46.731 82.6711 47.2422 83.2277 47.3084C83.7933 47.3796 84.2881 46.9832 84.3409 46.4188C84.3937 45.8545 83.9814 45.3746 83.4145 45.3402ZM74.6734 69.0729C75.5014 68.5321 76.0783 67.7796 76.3847 66.8469C76.5872 66.2327 76.3605 65.7319 75.862 65.4653C75.368 65.2034 74.8326 65.3175 74.4223 65.8044C74.2631 65.992 74.1621 66.2278 74.0253 66.4346C73.1208 67.8105 71.4968 68.0095 70.2902 66.8885C70.0802 66.6921 69.9205 66.3825 69.6745 66.2861C69.3602 66.1642 68.9104 66.0835 68.6465 66.2258C68.3829 66.3636 68.1268 66.8009 68.1298 67.1002C68.1348 67.4733 68.3361 67.9087 68.5841 68.2031C69.4518 69.2428 70.5918 69.7813 72.2712 69.8421C72.9488 69.8805 73.8504 69.6047 74.669 69.0682L74.6734 69.0729ZM80.1054 58.8884C78.571 58.2711 76.4491 59.207 75.8932 60.7798C75.7182 61.2753 75.7328 61.7638 76.2003 62.1214C76.6272 62.4499 77.3018 62.4468 77.6472 61.9667C78.2308 61.1592 78.8705 60.7173 79.9311 60.8939C80.4913 60.9879 80.8637 60.5272 80.903 59.9532C80.9129 59.4241 80.6107 59.0955 80.0962 58.8881L80.1054 58.8884ZM68.0975 59.4384C67.2946 59.4139 66.6393 60.0347 66.6575 60.8041C66.679 61.6151 67.3819 62.3588 68.13 62.3674C68.8826 62.3763 69.5486 61.7191 69.5718 60.9511C69.5921 60.137 68.9329 59.4595 68.0975 59.4384Z" fill="#FF80A6"/>
</svg>
