<svg width="138" height="153" viewBox="0 0 138 153" fill="none" xmlns="http://www.w3.org/2000/svg">
<g clip-path="url(#clip0_66_363)">
<path d="M79.7563 101.289C74.5635 97.5836 72.5468 91.5041 68.3575 86.3515C67.8312 88.1855 66.0017 94.7227 65.3873 96.4082C64.9356 97.2984 64.3371 98.1061 63.6169 98.7973C63.3228 97.8545 63.1858 96.8698 63.2116 95.8826C63.8347 92.2378 64.4765 88.5859 65.3455 84.9979C65.6027 84.3273 65.6592 83.5964 65.508 82.8942C65.3569 82.1921 65.0047 81.5491 64.4943 81.0437C57.2774 73.2501 48.6236 67.3134 39.335 62.3004C34.8708 59.9878 31.024 56.8757 29.2037 51.7696C28.3453 49.1948 28.4137 46.4009 29.3969 43.8712C30.3802 41.3414 32.2166 39.2348 34.5886 37.9156C41.2998 34.0893 46.264 34.8664 51.7435 39.671C53.3253 41.03 54.788 42.4981 56.3055 43.9134C56.8774 40.9826 57.2725 37.9797 58.0494 35.1105C59.006 31.5156 60.7095 28.1627 63.0489 25.2705C65.3884 22.3782 68.3112 20.0116 71.6267 18.3248C77.6089 15.1156 84.0573 18.1543 84.4027 26.9703C84.664 33.7231 83.1763 40.2595 80.9812 46.5926C78.216 54.6907 75.5077 62.7887 72.8564 70.8866C71.8044 74.0841 70.8601 77.3122 70.0235 80.5708C69.8722 81.3225 69.9786 82.1032 70.3255 82.7869C72.7149 86.9087 75.3206 90.8955 77.6445 95.042C78.6854 96.8937 78.8439 99.3243 79.7563 101.289ZM67.0191 78.3593C67.9297 75.1083 68.7564 71.9745 69.7342 68.9012C72.7595 59.4437 75.9787 51.4628 78.9746 41.9843C80.528 37.1226 81.9916 32.4764 80.6963 25.5047C79.8948 21.2004 77.2141 19.337 73.3793 21.2974C68.8263 23.5119 65.1671 27.2162 63.0084 31.7959C60.3584 37.5926 59.2836 43.9856 59.8924 50.3302C60.0396 51.3644 59.7763 52.4151 59.159 53.2578C58.2088 52.8553 57.4459 52.1086 57.0232 51.1673C54.7681 46.3535 51.0855 42.8267 46.8632 39.8242C45.8651 39.0441 44.6917 38.5193 43.4449 38.2952C42.1981 38.0711 40.9154 38.1544 39.7081 38.5379C35.6927 39.7648 31.5835 43.1222 32.2582 48.308C32.9699 53.8753 36.2792 57.4041 40.9962 59.7068C49.0751 63.5121 56.5028 68.5689 63.0049 74.6904C64.3113 75.8861 65.62 77.0596 67.0191 78.3593Z" fill="#1C62C3"/>
<path d="M74.2185 79.5647C74.2862 79.4209 74.3836 79.293 74.5041 79.1894C74.6247 79.0857 74.7657 79.0087 74.918 78.9633C75.0704 78.9179 75.2306 78.9052 75.3882 78.9259C75.5458 78.9467 75.6972 79.0004 75.8326 79.0837C76.0633 79.2265 76.2404 79.4415 76.3362 79.6953C76.432 79.9491 76.4412 80.2275 76.3623 80.4871C76.1967 80.7318 75.9594 80.9192 75.683 81.0235C75.4065 81.1278 75.1046 81.144 74.8186 81.0697C74.6772 81.0103 74.5493 80.9226 74.4428 80.8121C74.3363 80.7016 74.2535 80.5706 74.1993 80.427C74.1451 80.2835 74.1207 80.1304 74.1276 79.9771C74.1345 79.8238 74.1726 79.6735 74.2395 79.5354L74.2185 79.5647Z" fill="#1C62C3"/>
</g>
<defs>
<clipPath id="clip0_66_363">
<rect width="100" height="125" fill="white" transform="translate(0.151367 35.6821) rotate(-20.678)"/>
</clipPath>
</defs>
</svg>
