<svg width="117" height="139" viewBox="0 0 117 139" fill="none" xmlns="http://www.w3.org/2000/svg">
<path d="M43.0801 64.1436C42.0608 63.646 41.206 62.866 40.6172 61.8966C37.3465 57.5747 35.0723 52.5828 33.9574 47.2787C32.4542 41.3675 32.8359 35.1343 35.049 29.4506C36.6001 25.7248 38.5749 22.2827 42.2031 20.0506C46.7857 17.2294 52.7046 19.6141 55.1405 23.1607C57.4017 26.4495 58.0888 30.3486 59.1936 34.086C59.3353 34.5714 59.446 35.0624 59.669 35.893C60.791 34.3582 61.6425 33.0166 62.6747 31.8225C65.8776 28.1342 69.2019 24.5141 74.0675 22.9465C81.4918 20.5277 87.3601 22.7737 90.9895 29.5855C92.5004 32.0286 93.2064 34.8843 93.0079 37.75C92.7829 42.2948 91.1796 47.2155 87.8621 50.3011C83.8843 53.9679 67.5198 67.7203 63.3322 70.9525C58.4067 74.8257 54.3113 79.6508 51.2899 85.1402C50.1667 87.261 48.9334 89.3216 47.5951 91.3136C47.2115 91.863 46.7178 92.3267 46.1454 92.6751C45.573 93.0234 44.9343 93.2489 44.27 93.337C44.3508 92.0574 44.7041 90.8099 45.3062 89.6779C47.1889 85.706 49.4108 81.9038 51.947 78.3138C55.3371 73.1269 60.0989 69.2101 65.0328 65.5002C69.2584 62.3544 81.9392 51.0079 84.3918 48.9386C86.3364 47.3223 87.8215 45.2226 88.6978 42.8507C89.5741 40.4787 89.8108 37.9179 89.3842 35.4255C88.8153 32.3822 87.255 28.7202 84.7173 27.0586C80.3226 24.1978 77.317 24.3679 73.3377 26.7916C67.9019 29.906 63.6784 34.7663 61.3529 40.5835C60.888 42.2142 60.6072 43.8919 60.5159 45.5851C60.3723 46.5747 60.4069 47.5902 59.0731 47.6594C58.7852 47.6467 58.5028 47.576 58.2429 47.4516C57.983 47.3271 57.7509 47.1514 57.5606 46.9351C57.3702 46.7187 57.2255 46.4662 57.1351 46.1925C57.0448 45.9189 57.0106 45.6298 57.0347 45.3427C57.2049 39.3996 56.2872 33.4756 54.3269 27.8626C53.9636 26.8567 53.5393 25.8739 53.0563 24.9196C50.8419 20.3341 45.9867 20.4379 42.7344 23.4218C39.8349 26.2273 37.8318 29.8292 36.9783 33.7725C35.0266 41.5124 36.3978 48.8454 39.8343 55.8717C40.9535 58.1864 43.1526 62.6687 43.0801 64.1436Z" fill="var(--primary-color)"/>
<path d="M48.6208 69.3432C47.7798 69.7769 47.1875 70.3074 46.9233 70.1781C46.4613 69.9494 46.211 69.3068 45.8741 68.8436C46.3074 68.573 46.754 68.0719 47.164 68.1011C47.5741 68.1303 47.9151 68.7052 48.6208 69.3432Z" fill="var(--primary-color)"/>
</svg>
