<svg width="299" height="215" viewBox="0 0 299 215" fill="none" xmlns="http://www.w3.org/2000/svg">
<path d="M291.341 214.753C291.757 215.116 292.389 215.074 292.753 214.659L298.679 207.885C299.043 207.47 299.001 206.838 298.585 206.474C298.169 206.111 297.538 206.153 297.174 206.568L291.906 212.589L285.885 207.321C285.47 206.957 284.838 206.999 284.474 207.415C284.111 207.831 284.153 208.462 284.568 208.826L291.341 214.753ZM290.002 199.067L291.002 214.067L292.998 213.933L291.998 198.933L290.002 199.067Z" fill="black"/>
<path d="M1.01678 1.78467C6.67008 31.4645 25.5357 63.0001 47.7988 83.2988C63.7536 97.8458 84.2565 104.352 105.331 107.103C152.161 113.218 208.943 111.418 246.445 78.8687C263.408 64.1464 271.195 43.5442 255.837 24.8213C254.795 23.5505 246.136 15.1062 243.197 16.1973C240.842 17.0713 239.906 20.5432 240.066 23.0492C241.165 40.2971 254.408 71.6716 259.322 84.2439C262.664 92.7921 281.572 137.825 286.375 150.873C289.771 160.096 291.092 166.515 291.278 175.8C291.38 180.875 291.278 185.962 291.278 191.039" stroke="black" stroke-width="2" stroke-linecap="round" stroke-dasharray="6 6"/>
</svg>
