<svg width="53" height="223" viewBox="0 0 53 223" fill="none" xmlns="http://www.w3.org/2000/svg">
<path d="M1 1C22.5014 14.032 41.7003 34.1629 35.9842 70.6961C34.4546 80.4725 32.498 89.8163 24.6529 89.8163C15.8297 89.8163 9.08471 81.218 14.4766 68.0748C18.2135 58.966 27.5257 58.4897 34.114 59.2857C43.0823 60.3693 50.6658 79.3945 51.4961 90.7415C53.604 119.548 49.1134 143.693 37.7444 168.147C31.8664 180.791 15.6507 188.304 16.8419 205" stroke="white" stroke-width="2" stroke-linecap="round" stroke-dasharray="6 6"/>
<path d="M14.1778 222.569C14.4922 223.023 15.1151 223.137 15.5692 222.822L22.9689 217.699C23.423 217.385 23.5363 216.762 23.2219 216.308C22.9076 215.854 22.2846 215.741 21.8305 216.055L15.253 220.609L10.6993 214.031C10.3849 213.577 9.76198 213.464 9.3079 213.778C8.85382 214.092 8.74055 214.715 9.05492 215.169L14.1778 222.569ZM16.0161 210.821L14.0161 221.821L15.9839 222.179L17.9839 211.179L16.0161 210.821Z" fill="white"/>
</svg>
