<svg width="94" height="108" viewBox="0 0 94 108" fill="none" xmlns="http://www.w3.org/2000/svg">
<path d="M55.9719 38.0916L55.9704 38.099L55.9688 38.1063C55.9688 38.1063 55.9704 38.099 55.9719 38.0916ZM55.9719 38.0916C55.971 38.0607 55.9757 38.0387 55.9716 38.0225C55.9741 38.0461 55.9694 38.0681 55.9719 38.0916ZM61.2557 32.305C61.1684 31.9637 61.1886 31.6227 61.3073 31.2876C61.4348 30.9468 61.7247 30.6719 62.0864 30.5967C62.2075 30.5692 62.3312 30.5653 62.4574 30.585C62.4794 30.5898 62.5087 30.5961 62.5307 30.6009C62.6114 30.6184 62.6904 30.6432 62.759 30.681C62.8668 30.7505 62.9729 30.8272 63.0702 30.9097C63.0948 30.938 63.1193 30.9664 63.1439 30.9947C63.1512 30.9963 63.1643 31.0068 63.1716 31.0084C63.3381 31.0905 63.5192 31.1758 63.6509 31.3118C63.7335 31.3911 63.7951 31.4966 63.8257 31.603C63.8538 31.6859 63.8788 31.7834 63.8744 31.8746C63.8656 32.0569 63.8389 32.2507 63.7364 32.405C63.6339 32.5593 63.5272 32.6974 63.3682 32.7935C63.1914 32.901 63.0005 32.9671 62.8055 33.017C62.708 33.0419 62.5958 33.0636 62.4941 33.0723C62.4071 33.0842 62.3233 33.0814 62.2322 33.077C62.1557 33.0757 62.0645 33.0713 61.9928 33.0481C61.899 33.0201 61.8069 32.9848 61.7253 32.9364C61.6437 32.888 61.5709 32.8339 61.5103 32.7594C61.3917 32.6339 61.303 32.4765 61.2557 32.305ZM62.3302 31.4555C62.3375 31.4571 62.3464 31.4514 62.3538 31.453C62.3464 31.4514 62.3391 31.4498 62.3302 31.4555ZM62.3433 31.466C62.3579 31.4692 62.3742 31.4651 62.3888 31.4682C62.3742 31.4651 62.3595 31.4619 62.3433 31.466ZM62.3139 31.4597C62.3213 31.4613 62.3213 31.4613 62.3302 31.4555C62.3228 31.4539 62.3228 31.4539 62.3139 31.4597ZM62.1317 31.6275C62.1174 31.6934 62.1047 31.7521 62.0904 31.8181C62.0924 31.8799 62.0943 31.9417 62.0979 31.9962C62.1046 32.0361 62.1186 32.0775 62.1343 32.1116C62.14 32.1205 62.1442 32.1368 62.1573 32.1473C62.163 32.1562 62.1703 32.1578 62.1761 32.1667L62.1834 32.1683C62.2127 32.1747 62.2347 32.1794 62.2641 32.1858C62.3406 32.187 62.4113 32.1793 62.4821 32.1716C62.5958 32.1425 62.7096 32.1134 62.8249 32.077C62.859 32.0614 62.8874 32.0368 62.9215 32.0212C62.9304 32.0154 62.9409 32.0024 62.9514 31.9893C62.9619 31.9762 62.9667 31.9542 62.9772 31.9411C62.9788 31.9338 62.9804 31.9265 62.982 31.9192C62.9134 31.8813 62.8449 31.8434 62.7747 31.8128C62.7062 31.775 62.6408 31.7224 62.6006 31.66C62.5582 31.6431 62.51 31.6173 62.4724 31.5785C62.4332 31.5469 62.4013 31.517 62.3621 31.4855C62.3547 31.4839 62.349 31.475 62.3417 31.4734C62.3343 31.4718 62.3197 31.4686 62.3123 31.467C62.2977 31.4638 62.2888 31.4696 62.2814 31.468C62.2725 31.4737 62.2652 31.4721 62.2562 31.4779C62.24 31.482 62.2295 31.4951 62.2206 31.5009C62.2101 31.5139 62.1906 31.5328 62.1801 31.5458C62.1591 31.572 62.1454 31.5997 62.1317 31.6275ZM58.0808 36.0462C58.102 35.7361 58.1881 35.4093 58.3878 35.1609C58.4929 35.0301 58.6315 34.922 58.7857 34.8479C59.0852 34.7056 59.3873 34.5868 59.7242 34.5907C59.8007 34.5919 59.8829 34.6021 59.9562 34.618C60.0295 34.6339 60.0955 34.6482 60.1673 34.6714C60.2626 34.692 60.3563 34.72 60.4573 34.7496C60.5233 34.7639 60.5919 34.8018 60.6442 34.8438C60.7175 34.8597 60.7892 34.8829 60.852 34.9119C60.9164 34.9335 60.9719 34.9609 61.0331 34.9972C61.0944 35.0335 61.1744 35.0892 61.2235 35.1459C61.3275 35.2682 61.4184 35.38 61.4616 35.5352C61.5079 35.6757 61.5348 35.8351 61.5266 35.9791C61.5207 36.2542 61.4839 36.5303 61.3681 36.7815C61.249 37.0474 61.0337 37.2617 60.7741 37.3974C60.6524 37.4631 60.5249 37.5199 60.399 37.5694C60.1416 37.6595 59.8669 37.7228 59.5918 37.7169C59.3021 37.7078 59.0209 37.6239 58.7792 37.4641C58.5506 37.3147 58.3315 37.1214 58.2089 36.8723C58.1406 36.727 58.0943 36.5864 58.0747 36.4287C58.0667 36.2888 58.0701 36.1667 58.0808 36.0462ZM59.0245 35.8362C58.9949 35.9372 58.9726 36.0399 58.9651 36.1457C58.9654 36.2148 58.9658 36.284 58.9735 36.3548C58.9818 36.3873 58.9917 36.4124 59 36.4449C59.0172 36.4717 59.0329 36.5058 59.0574 36.5341C59.1082 36.5835 59.1589 36.6329 59.2185 36.6765C59.287 36.7144 59.3483 36.7507 59.4184 36.7812C59.4771 36.7939 59.5357 36.8066 59.5944 36.8194C59.6709 36.8206 59.7416 36.8129 59.8197 36.8068C59.966 36.7694 60.1065 36.7231 60.2486 36.6694C60.3273 36.6251 60.406 36.5807 60.4863 36.529C60.5057 36.5102 60.5252 36.4914 60.5388 36.4636C60.5541 36.4286 60.5751 36.4024 60.5831 36.3658C60.6111 36.272 60.6317 36.1767 60.6377 36.0782C60.6373 36.0091 60.637 35.9399 60.6293 35.8692C60.6267 35.8456 60.6168 35.8204 60.6069 35.7952C60.5938 35.7847 60.5881 35.7758 60.575 35.7653C60.5546 35.7532 60.5342 35.7411 60.5122 35.7363C60.2368 35.6613 59.955 35.6156 59.6732 35.5699C59.6659 35.5683 59.6585 35.5667 59.6512 35.5651C59.6072 35.5556 59.5648 35.5387 59.524 35.5145C59.4411 35.5426 59.3583 35.5707 59.2754 35.5988C59.2146 35.6317 59.1553 35.6573 59.1002 35.699C59.0913 35.7048 59.0808 35.7179 59.0703 35.7309C59.0639 35.7603 59.0397 35.8011 59.0245 35.8362ZM67.0887 78.9651C67.0863 79.118 67.0676 79.2752 67.0358 79.4218C66.9834 79.6638 66.9074 79.9083 66.7832 80.127C66.6575 80.3531 66.504 80.5655 66.317 80.7552C66.139 80.9393 65.9421 81.1039 65.7322 81.258C65.3391 81.5489 64.9204 81.7806 64.4558 81.9409C64.0001 82.0955 63.5074 82.1729 63.0358 82.2243C62.5714 82.2772 62.1013 82.3212 61.6334 82.3196C61.142 82.3205 60.6511 82.2833 60.1602 82.246C59.6694 82.2087 59.1769 82.1788 58.6987 82.0828C58.241 81.999 57.7928 81.8712 57.3461 81.736C57.1294 81.6737 56.9142 81.6041 56.6974 81.5417C56.466 81.4762 56.2345 81.4107 56.0063 81.3306C55.7649 81.2399 55.5204 81.1639 55.3048 81.0251C55.0501 80.8547 54.8163 80.6582 54.6603 80.3865C54.4985 80.1058 54.3739 79.7948 54.3055 79.4729C54.2381 79.182 54.2047 78.8754 54.2609 78.5805C54.3156 78.293 54.4403 78.036 54.6132 77.8048C54.7425 77.6332 54.8938 77.4664 55.0623 77.3264C55.2592 77.1618 55.4634 76.9988 55.6889 76.8788C55.9145 76.7588 56.1516 76.6566 56.3886 76.5545C56.8539 76.3559 57.3258 76.1972 57.8284 76.1449C58.048 76.1234 58.2676 76.1019 58.4881 76.1113C58.7469 76.1213 59.0099 76.1476 59.2624 76.1869C59.4619 76.2225 59.6615 76.2581 59.8521 76.2994C59.9439 76.2655 60.0293 76.261 60.1262 76.2743C60.1864 76.2797 60.2377 76.2908 60.298 76.2962C60.3059 75.799 60.3139 75.3018 60.3381 74.8004C60.3591 74.3137 60.4021 73.8317 60.4305 73.3466C60.4557 72.8761 60.4735 72.4041 60.484 71.9305C60.4945 71.4568 60.5035 70.9905 60.514 70.5169C60.5302 70.0522 60.5538 69.589 60.5774 69.1259C60.5984 68.6392 60.6268 68.1541 60.6567 67.6616C60.6908 67.1854 60.7338 66.7035 60.7695 66.2199C60.845 65.2691 60.9263 64.3272 61.0312 63.3828C61.0334 63.3372 61.0413 63.3005 61.0419 63.2623C61.0827 62.8259 61.0869 62.3816 61.1041 61.9478C61.1204 61.4831 61.1351 61.0257 61.1513 60.561C61.1937 59.6567 61.1979 58.7518 61.299 57.8603C61.3322 57.5297 61.3214 57.1897 61.3563 56.8518C61.3803 56.6344 61.4191 56.4202 61.4505 56.2044C61.4549 56.1132 61.4373 56.0173 61.4328 55.9319C61.4276 55.8847 61.4445 55.8423 61.454 55.7983C61.4174 55.7904 61.3791 55.7898 61.3425 55.7818C61.0989 55.7367 60.8544 55.6607 60.6262 55.5806C60.1754 55.4292 59.7367 55.2574 59.2907 55.0839C59.0844 55.0086 58.8813 54.9185 58.6735 54.8504C58.4599 54.7734 58.2431 54.7111 58.0205 54.6399C57.7907 54.567 57.5729 54.4738 57.3705 54.3455C57.1884 54.2293 57.0095 54.0984 56.85 53.9487C56.6717 53.7796 56.482 53.5926 56.3531 53.3728C56.2742 53.2406 56.2028 53.1099 56.1402 52.9736C56.0933 52.8713 56.061 52.7722 56.0214 52.6715C55.9438 52.4628 55.8841 52.2426 55.8227 52.0297C55.7547 51.777 55.6882 51.517 55.6453 51.2544C55.573 50.8088 55.5405 50.3566 55.4755 49.9126C55.4121 49.4614 55.3308 49.0216 55.2983 48.5693C55.2616 48.1008 55.2795 47.6288 55.29 47.1551C55.2828 46.8696 55.2756 46.584 55.2285 46.3051C55.1831 46.0189 55.123 45.7296 55.0702 45.4418C54.9745 44.8914 54.9732 44.3308 54.9231 43.7826C54.8775 43.3198 54.8466 42.8603 54.8393 42.3981C54.8351 41.9213 54.8619 41.4435 54.8724 40.9699C54.8813 40.5036 54.896 40.0462 54.9431 39.5805C54.9929 39.1384 55.0515 38.6905 55.0557 38.2462C55.0585 38.1624 55.0556 38.0696 55.0584 37.9858C55.0584 37.0647 55.0568 36.1509 55.0951 35.2304C55.126 34.3083 55.1936 33.3941 55.2465 32.4768C55.2749 31.9917 55.2943 31.5123 55.3226 31.0272C55.3478 30.5567 55.3861 30.0968 55.4422 29.6253C55.4662 29.4079 55.4887 29.1979 55.5128 28.9805C55.5385 28.7558 55.5772 28.5415 55.6029 28.3168C55.6327 28.1084 55.6405 27.8951 55.663 27.6851C55.6813 27.4588 55.7086 27.2267 55.7358 26.9947C55.746 26.9124 55.7854 26.8365 55.8364 26.7785C55.8281 26.746 55.8214 26.7061 55.8204 26.6752C55.82 26.6061 55.8197 26.5369 55.8266 26.4693C55.8384 26.3798 55.8606 26.2771 55.9001 26.2012C56.0016 26.016 56.1351 25.8607 56.3307 25.7726C56.3989 25.7413 56.4687 25.7027 56.5368 25.6714C56.6391 25.6245 56.7472 25.5865 56.8552 25.5485C57.3019 25.3996 57.7726 25.3174 58.2376 25.2262C58.7261 25.1325 59.2147 25.0388 59.7026 24.9833C59.9385 24.9577 60.1654 24.9377 60.4054 24.9283C60.6527 24.9205 60.8895 24.9258 61.141 24.9342C61.6277 24.9552 62.1065 25.0129 62.5926 25.0722C63.1593 25.1489 63.7318 25.2346 64.2964 25.3569C64.663 25.4364 65.0191 25.5289 65.3704 25.6434C65.8505 25.8011 66.3274 25.9735 66.7891 26.181C67.0068 26.2743 67.2246 26.3675 67.4287 26.4885C67.7102 26.6416 67.9618 26.8266 68.1698 27.0713C68.268 27.1847 68.3589 27.2965 68.4215 27.4328C68.447 27.4921 68.4742 27.544 68.507 27.6049C68.5597 27.7161 68.592 27.8152 68.5665 27.9325C68.5491 28.0132 68.5096 28.089 68.4497 28.1528C68.4612 28.1707 68.4638 28.1943 68.4753 28.2121C68.4976 28.286 68.5089 28.4113 68.4914 28.4919C68.4586 28.6077 68.4217 28.7071 68.3408 28.7971C68.2899 28.8551 68.2243 28.91 68.1676 28.9591C68.1556 29.1561 68.1599 29.3489 68.1625 29.5491C68.1704 30.2569 68.2238 30.967 68.2242 31.6733C68.2206 32.3634 68.1876 33.0471 68.1839 33.7371C68.1883 34.1065 68.2016 34.4702 68.206 34.8396C68.2092 35.2855 68.205 35.7298 68.1935 36.1725C68.1724 36.9432 68.1057 37.7117 68.0992 38.4856C68.1049 38.9551 68.1253 39.4277 68.1237 39.8956C68.1288 40.4034 68.1266 40.9095 68.1171 41.4141C68.1107 41.9039 68.0824 42.3891 68.0467 42.8726C68.0069 43.3399 67.9728 43.8161 67.9476 44.2865C67.9246 44.7114 67.8927 45.1421 67.8917 45.5717C67.8986 45.7881 67.9143 45.9988 67.9212 46.2152C67.9332 46.4788 67.9362 46.7481 67.9319 47.0158C67.9246 47.4748 67.8659 47.9227 67.7837 48.3731C67.6119 49.2723 67.4238 50.1757 67.164 51.0559C67.1033 51.2654 67.0189 51.4774 66.9436 51.6836C66.8608 51.8883 66.7765 52.1003 66.6864 52.3034C66.491 52.7447 66.2663 53.1796 65.9966 53.574C65.718 53.9742 65.3871 54.3324 65.0186 54.6517C64.6678 54.9595 64.2795 55.2284 63.8771 55.456C63.641 55.589 63.4039 55.6912 63.1455 55.7503C62.918 55.8085 62.6895 55.8357 62.4625 55.8557C62.4243 55.855 62.3771 55.8602 62.3389 55.8596C62.3414 55.8831 62.3513 55.9083 62.3539 55.9319C62.3584 56.0173 62.3703 56.1043 62.3748 56.1897C62.3745 56.2972 62.3539 56.3925 62.339 56.4967C62.3177 56.6303 62.2949 56.7712 62.2736 56.9047C62.2527 57.1074 62.2538 57.3149 62.2402 57.5192C62.2308 57.7398 62.2068 57.9572 62.1827 58.1746C62.1656 58.3244 62.1558 58.4758 62.1534 58.6288C62.1272 59.0683 62.1157 59.5111 62.1042 59.9538C62.0864 60.4258 62.0685 60.8979 62.0507 61.3699C62.0319 61.8111 62.0277 62.2554 62.0073 62.7038C61.9894 63.1759 61.9349 63.64 61.8788 64.1114C61.7785 65.1413 61.7002 66.176 61.6161 67.2017C61.538 68.1289 61.4982 69.0568 61.4567 69.9919C61.4163 70.958 61.4051 71.9305 61.372 72.8981C61.3542 73.3702 61.3201 73.8464 61.2876 74.3153C61.2519 74.7988 61.2382 75.2871 61.2245 75.7754C61.2183 75.9813 61.2194 76.1888 61.2115 76.402C61.288 76.4033 61.3703 76.4134 61.4484 76.4073C61.6737 76.3947 61.899 76.3821 62.1269 76.3931C62.3475 76.4025 62.568 76.4119 62.7944 76.4303C63.0133 76.447 63.2307 76.4711 63.4554 76.4968C63.6053 76.5139 63.7656 76.5179 63.9122 76.5497C63.9489 76.5576 63.9855 76.5656 64.0206 76.5808C64.2081 76.6368 64.3981 76.7164 64.5734 76.7927C64.8687 76.9181 65.1639 77.0435 65.4502 77.1746C65.6517 77.272 65.8605 77.371 66.0588 77.483C66.3869 77.6693 66.7234 77.888 66.9018 78.2337C67.0103 78.4414 67.0987 78.7062 67.0887 78.9651ZM58.8914 43.1456C58.8605 43.1466 58.8385 43.1418 58.8076 43.1428C59.2676 43.1811 59.7275 43.2193 60.189 43.2502C60.6286 43.2764 61.0551 43.292 61.4911 43.2637C61.9328 43.2443 62.372 43.2013 62.8137 43.1818C63.2644 43.1567 63.7077 43.1299 64.1568 43.1121C64.5294 43.093 64.9035 43.0666 65.2767 43.0093C65.3653 42.9901 65.4555 42.9636 65.5399 42.9282C65.7388 42.8254 65.9188 42.7032 66.1045 42.5899C66.3081 42.4652 66.5117 42.3404 66.698 42.1889C66.7579 42.1251 66.8178 42.0613 66.8703 41.9959C66.9203 41.907 66.9703 41.818 67.0145 41.7201C67.0177 41.7055 67.0209 41.6908 67.024 41.6762C66.8889 41.6622 66.7665 41.5896 66.6845 41.4721C66.6656 41.4527 66.6557 41.4275 66.6369 41.4081C66.561 41.3686 66.4909 41.338 66.4134 41.3059C66.1396 41.2235 65.8626 41.1558 65.5735 41.1085C65.3137 41.0676 65.0507 41.0413 64.7877 41.015C64.5232 40.9961 64.2586 40.9772 64.0014 40.9598C63.5236 40.933 63.0573 40.9241 62.5846 40.9445C62.112 40.9649 61.6361 41 61.1593 41.0041C60.6988 41.0041 60.234 40.9879 59.7703 41.0025C59.3228 41.013 58.8795 41.0398 58.4413 41.1137C58.2803 41.1479 58.1194 41.1822 57.9626 41.2326C57.7896 41.2872 57.6296 41.3524 57.4608 41.4232C57.0679 41.6068 56.6719 41.805 56.3307 42.0688C56.2934 42.0991 56.2619 42.1383 56.2246 42.1686C56.2288 42.1849 56.2329 42.2011 56.2371 42.2174C56.2773 42.2798 56.3101 42.3407 56.3593 42.3974C56.4215 42.4646 56.4868 42.5171 56.5522 42.5697C56.7416 42.6875 56.9463 42.7702 57.1526 42.8456C57.4411 42.9312 57.7254 43.0004 58.0219 43.0493C58.3257 43.0998 58.6122 43.1235 58.8914 43.1456ZM56.7639 26.7492C56.8082 26.8279 56.8542 26.8992 56.9075 26.9722C57.0319 27.1066 57.1652 27.2353 57.3179 27.3451C57.5335 27.4839 57.7659 27.5804 58.0072 27.671C58.5036 27.8246 59.0031 27.9636 59.5074 28.0805C60.0044 28.1959 60.5052 28.2583 61.0091 28.3061C61.6734 28.3579 62.3392 28.4024 63.0019 28.4616C62.9637 28.461 62.927 28.453 62.8888 28.4524C63.4032 28.4871 63.9119 28.5129 64.4238 28.524C64.9666 28.5342 65.4957 28.5721 66.0306 28.6189C66.1673 28.6255 66.2967 28.6305 66.4351 28.6298C66.5734 28.629 66.7076 28.612 66.8433 28.5877C67.0043 28.5535 67.1594 28.5104 67.3178 28.4526C67.3194 28.4452 67.3226 28.4306 67.3242 28.4232C67.3391 28.319 67.3613 28.2164 67.3909 28.1153C67.4268 27.9849 67.4905 27.8682 67.5615 27.7531C67.55 27.7353 67.5401 27.7101 67.5213 27.6907C67.4272 27.5935 67.3315 27.5037 67.2196 27.418C66.8962 27.2098 66.5366 27.0628 66.1843 26.9174C65.9095 26.8041 65.6404 26.6998 65.3624 26.6011C65.0404 26.493 64.7153 26.3995 64.3885 26.3134C64.0618 26.2272 63.7286 26.1704 63.3955 26.1136C62.7513 26.0047 62.1023 25.9178 61.447 25.8602C61.25 25.8482 61.0457 25.8347 60.8471 25.83C60.5867 25.8273 60.3378 25.8425 60.08 25.8634C59.666 25.8965 59.2603 25.9621 58.853 26.0351C58.1888 26.1598 57.5001 26.2562 56.8676 26.5183C56.8246 26.5397 56.78 26.5684 56.737 26.5898C56.737 26.5898 56.737 26.5898 56.7354 26.5972C56.7396 26.6134 56.7348 26.6354 56.739 26.6517C56.7399 26.6826 56.7556 26.7167 56.7639 26.7492ZM56.0849 41.1482C56.2649 41.026 56.4622 40.9305 56.6537 40.8262C56.8703 40.7119 57.1016 40.6009 57.3298 40.5044C57.7593 40.3288 58.2054 40.2183 58.6698 40.1654C59.1268 40.1109 59.5921 40.0889 60.0527 40.0889C60.5279 40.0921 61.0016 40.1026 61.4742 40.0822C61.9615 40.0649 62.4463 40.0241 62.9305 40.0216C63.391 40.0216 63.8468 40.0436 64.301 40.0729C64.8081 40.106 65.3153 40.1391 65.8113 40.2236C65.9155 40.2385 66.0181 40.2607 66.1208 40.283C66.2454 40.31 66.3611 40.3427 66.4842 40.3771C66.635 40.4251 66.7874 40.4658 66.935 40.5285C67.0475 40.5759 67.1422 40.6348 67.2322 40.7157C67.2305 40.5464 67.2377 40.3715 67.236 40.2022C67.229 39.3487 67.1854 38.4872 67.2313 37.6374C67.2767 36.8259 67.3147 36.0128 67.3218 35.2007C67.3169 34.5855 67.2884 33.973 67.2982 33.361C67.309 32.7799 67.3344 32.2021 67.3378 31.6194C67.3272 30.9954 67.2857 30.3723 67.275 29.7482C67.2727 29.6172 67.2761 29.4952 67.2811 29.3658C67.2072 29.3881 67.1349 29.4031 67.0625 29.4182C66.7821 29.4725 66.5007 29.496 66.2109 29.487C65.9595 29.4785 65.7054 29.4465 65.4498 29.4218C64.8531 29.377 64.2526 29.385 63.6527 29.3548C63.0455 29.3231 62.4358 29.2677 61.8318 29.2213C61.8391 29.2229 61.8464 29.2244 61.8537 29.226C61.5509 29.2065 61.2555 29.1885 60.9543 29.1616C60.4471 29.1285 59.9422 29.0498 59.4421 28.9491C58.9859 28.8579 58.5377 28.7301 58.0968 28.6039C57.8434 28.5336 57.5931 28.4487 57.3533 28.3507C57.2261 28.3001 57.1079 28.2438 56.9927 28.1728C56.8442 28.0792 56.6972 27.9782 56.5622 27.8569C56.5445 28.0449 56.5341 28.2346 56.5091 28.4211C56.4761 28.6442 56.4447 28.86 56.419 29.0847C56.3949 29.3021 56.3725 29.5122 56.3484 29.7296C56.2939 30.1937 56.254 30.6609 56.2289 31.1314C56.2078 31.6181 56.1811 32.0959 56.1527 32.581C56.0998 33.4984 56.038 34.4214 56.0013 35.3346C55.9694 36.2258 55.9684 37.116 55.969 37.9989C55.9706 37.9916 55.9649 37.9826 55.9664 37.9753C55.9674 38.0062 55.9684 38.0371 55.9694 38.0681C55.9678 38.0754 55.9678 38.0754 55.9662 38.0827C55.9696 38.4212 55.9657 38.7581 55.9251 39.0871C55.8839 39.4543 55.8338 39.8272 55.8073 40.1976C55.7897 40.5622 55.7868 40.93 55.7765 41.2963C55.7791 41.3198 55.7743 41.3418 55.7769 41.3654C55.8808 41.3112 55.9763 41.2244 56.0849 41.1482ZM62.9505 54.8791C63.1398 54.8203 63.3176 54.7437 63.4912 54.6508C63.8984 54.4013 64.2915 54.1103 64.6396 53.7789C64.7877 53.6268 64.9358 53.4747 65.0709 53.312C65.1986 53.1478 65.3205 52.9746 65.4367 52.7926C65.6335 52.4514 65.8009 52.1039 65.9568 51.7385C66.1175 51.3511 66.2635 50.9606 66.3802 50.5637C66.543 49.9542 66.6854 49.3326 66.8042 48.7135C66.8651 48.3966 66.935 48.074 66.974 47.7524C67.0146 47.4235 67.0316 47.0971 67.0412 46.7691C67.0388 46.4615 67.0144 46.1492 67.0046 45.84C66.9858 45.36 67.0288 44.8781 67.0482 44.3987C67.0718 43.9356 67.1011 43.4814 67.1394 43.0214C67.1426 43.0068 67.1368 42.9978 67.14 42.9832C66.9301 43.1373 66.7086 43.2735 66.4872 43.4098C66.2569 43.5518 66.0307 43.71 65.7732 43.8001C65.5068 43.8959 65.2092 43.9235 64.9261 43.9543C64.4561 43.9983 63.9923 44.0129 63.5181 44.0406C63.0601 44.0642 62.6005 44.0951 62.1409 44.126C61.6651 44.1611 61.1819 44.1946 60.7025 44.1752C60.2011 44.151 59.6972 44.1032 59.1917 44.0627C58.8449 44.0336 58.5022 44.0208 58.1586 43.9771C57.7783 43.9254 57.4086 43.8606 57.041 43.7502C56.8535 43.6943 56.6603 43.6294 56.4866 43.5457C56.2369 43.4225 55.9994 43.2789 55.8023 43.0904C55.82 43.3629 55.8377 43.6354 55.8628 43.9095C55.8984 44.347 55.9089 44.7945 55.9682 45.2296C56.0012 45.467 56.0504 45.7003 56.0924 45.9319C56.1359 46.1563 56.1688 46.3937 56.1888 46.6207C56.2254 47.0892 56.2002 47.5596 56.1986 48.0275C56.2027 48.3278 56.2214 48.6312 56.2636 48.932C56.3043 49.2402 56.3524 49.55 56.4004 49.8597C56.4427 50.1606 56.476 50.4672 56.511 50.7664C56.5475 51.0584 56.5914 51.3519 56.6604 51.6355C56.7716 52.0434 56.8844 52.444 57.0711 52.8222C57.1614 52.9722 57.2711 53.1035 57.3898 53.229C57.5566 53.3803 57.7266 53.5169 57.907 53.6404C58.1624 53.7725 58.4363 53.8549 58.7101 53.9372C59.0117 54.0333 59.3028 54.1424 59.5923 54.2589C60.1524 54.4724 60.7094 54.7005 61.2791 54.87C61.5194 54.9298 61.7646 54.9675 62.0087 54.9744C62.3325 54.9678 62.6449 54.9433 62.9505 54.8791ZM66.1925 79.0626C66.1979 79.0023 66.1975 78.9332 66.1882 78.8697C66.1774 78.8136 66.1592 78.756 66.141 78.6983C66.1138 78.6464 66.0924 78.6033 66.0564 78.5572C66.0073 78.5005 65.955 78.4584 65.8969 78.4075C65.5883 78.2024 65.2465 78.0439 64.912 77.887C64.5922 77.7333 64.2603 77.6 63.9358 77.4682C63.7719 77.4097 63.6017 77.3805 63.4299 77.3586C63.4372 77.3602 63.4446 77.3618 63.4446 77.3618C63.2728 77.3399 63.1067 77.327 62.9349 77.3051C62.7086 77.2868 62.488 77.2773 62.2601 77.2663C62.0322 77.2553 61.8011 77.259 61.5685 77.27C61.4448 77.2739 61.3243 77.2632 61.1949 77.2581C61.1976 77.4583 61.2003 77.6585 61.2103 77.8602C61.2158 77.9765 61.2229 78.0855 61.2284 78.2019C61.2317 78.3638 61.2465 78.5435 61.1675 78.6953C61.0749 78.8748 60.863 78.9671 60.674 78.9184C60.5127 78.8835 60.394 78.758 60.3493 78.6101C60.317 78.511 60.3131 78.3874 60.2987 78.2768C60.2952 78.2223 60.3021 78.1547 60.3295 78.0992C60.3269 78.0756 60.3244 78.0521 60.3291 78.0301C60.3242 77.8755 60.312 77.7193 60.3071 77.5647C60.3042 77.472 60.307 77.3882 60.3041 77.2954C60.0736 77.2608 59.8448 77.2189 59.6175 77.1697C59.3682 77.1156 59.1173 77.069 58.8633 77.0369C58.6752 77.0192 58.4782 77.0073 58.2927 77.0131C58.1072 77.019 57.9259 77.0411 57.7445 77.0632C57.5511 77.1057 57.3577 77.1483 57.1668 77.2144C56.9759 77.2805 56.7981 77.3571 56.613 77.4321C56.4677 77.5004 56.324 77.5614 56.1844 77.6386C56.0449 77.7158 55.9111 77.802 55.783 77.8971C55.6129 78.0444 55.447 78.2081 55.3088 78.3854C55.2636 78.4523 55.2257 78.5209 55.1935 78.5984C55.1703 78.6701 55.1544 78.7434 55.1401 78.8094C55.1341 78.9079 55.1428 79.0095 55.1531 79.1039C55.1966 79.3282 55.2579 79.5411 55.3429 79.7514C55.3898 79.8537 55.4472 79.9429 55.512 80.0337C55.5684 80.092 55.6249 80.1503 55.6845 80.1939C55.8184 80.2843 55.9645 80.3543 56.1121 80.417C56.633 80.599 57.1692 80.7459 57.6949 80.9058C57.9687 80.9882 58.2353 81.069 58.5139 81.1293C58.8071 81.1929 59.102 81.2491 59.4016 81.2833C60.0318 81.3508 60.6725 81.4052 61.3138 81.4213C61.9713 81.4333 62.6285 81.3761 63.2847 81.288C63.4912 81.256 63.6993 81.2166 63.9017 81.1684C64.0951 81.1258 64.2786 81.0581 64.4638 80.9831C64.6091 80.9148 64.7486 80.8376 64.8898 80.753C65.0325 80.6611 65.1752 80.5692 65.3122 80.4684C65.5196 80.2908 65.7196 80.1115 65.8893 79.895C65.9708 79.7668 66.0361 79.6427 66.0956 79.5098C66.1347 79.3648 66.1665 79.2181 66.1925 79.0626ZM50.2728 22.2723C50.2433 22.5499 50.1992 22.8244 50.12 23.0836C50.0409 23.3427 49.925 23.594 49.8532 23.8547C49.7908 24.0715 49.7374 24.2825 49.6824 24.5009C49.5824 24.9628 49.5231 25.4489 49.379 25.9013C49.2381 26.339 49.0491 26.7509 48.9082 27.1886C48.8385 27.4038 48.7835 27.6222 48.7212 27.839C48.6621 28.0411 48.5956 28.2416 48.5218 28.4405C48.4448 28.6541 48.3589 28.8735 48.2746 29.0855C48.2008 29.2844 48.1269 29.4834 48.0531 29.6823C47.8797 30.1283 47.6493 30.5543 47.4408 30.9851C47.2355 31.4011 47.0595 31.8236 46.8542 32.2396C46.6489 32.6557 46.4421 33.0791 46.2645 33.5089C46.1802 33.7209 46.0959 33.9329 46.0042 34.1434C45.9126 34.3538 45.8063 34.561 45.7162 34.7641C45.6172 34.9729 45.5313 35.1923 45.447 35.4043C45.3643 35.609 45.2946 35.8242 45.2119 36.0288C45.0343 36.4586 44.8363 36.8763 44.6253 37.2834C44.498 37.5168 44.3706 37.7502 44.2172 37.9626C44.0831 38.1562 43.9433 38.3408 43.8166 38.536C43.6915 38.7238 43.5721 38.9205 43.4454 39.1157C43.317 39.3181 43.1757 39.5101 43.0474 39.7126C42.7939 40.1029 42.5755 40.5085 42.3221 40.8988C42.1954 41.0939 42.0629 41.2801 41.9305 41.4664C41.8069 41.6468 41.6964 41.8378 41.586 42.0288C41.3514 42.4386 41.1183 42.841 40.8633 43.2386C40.6188 43.6231 40.38 44.0166 40.102 44.3785C39.8014 44.774 39.4689 45.1395 39.0684 45.4288C38.6664 45.7255 38.2372 45.9703 37.7653 46.129C37.3332 46.281 36.8829 46.3753 36.4301 46.4461C35.9683 46.5226 35.5026 46.4754 35.0363 46.4665C34.8141 46.4644 34.5815 46.4754 34.3593 46.4733C34.1298 46.4697 33.9051 46.444 33.682 46.411C33.4662 46.3796 33.2535 46.3335 33.0451 46.3037C33.0231 46.2989 32.9937 46.2926 32.9702 46.2952C32.9686 46.3025 32.967 46.3098 32.9581 46.3156C32.9164 46.437 32.8747 46.5585 32.8477 46.6831C32.8487 46.714 32.8408 46.7507 32.8417 46.7816C32.8373 46.8728 32.8183 46.9608 32.7919 47.0472C32.7216 47.3006 32.5975 47.5193 32.4701 47.7527C32.1986 48.2619 31.9287 48.7638 31.6922 49.2882C31.5821 49.5484 31.4924 49.8207 31.3896 50.0824C31.2595 50.3996 31.1163 50.7063 30.9715 51.0204C30.7987 51.4282 30.6829 51.856 30.5395 52.2701C30.4034 52.6858 30.2803 53.112 30.1499 53.5367C30.0227 53.9466 29.8515 54.3471 29.7169 54.7555C29.4189 55.635 29.2277 56.5531 28.9443 57.4359C28.8002 57.8882 28.6415 58.3374 28.49 58.7882C28.3402 59.2317 28.1977 59.6767 28.0479 60.1202C27.886 60.584 27.711 61.0374 27.5711 61.506C27.4328 61.9673 27.2855 62.4343 27.1325 62.8924C26.9827 63.3359 26.8109 63.7746 26.6391 64.2133C26.4752 64.6153 26.326 65.0205 26.1679 65.4314C26.0772 65.6728 25.9808 65.9052 25.8901 66.1465C26.1455 66.2786 26.3936 66.4091 26.6521 66.5266C26.8552 66.6166 27.0762 66.6952 27.2656 66.813C27.388 66.8856 27.5089 66.9655 27.6119 67.0569C27.6887 67.1273 27.7583 67.1961 27.8278 67.2649C27.9161 67.3531 27.972 67.4497 27.9832 67.5749C27.9852 67.6368 27.9798 67.697 27.9598 67.7541C28.1658 67.9369 28.3718 68.1197 28.5794 68.2952C28.7012 68.406 28.8304 68.5184 28.9506 68.6366C29.0693 68.7621 29.179 68.8933 29.2961 69.0262C29.2903 69.0172 29.2773 69.0067 29.2715 68.9978C29.5376 69.2934 29.8303 69.5718 30.0769 69.8862C30.1908 70.0337 30.299 70.1722 30.4113 70.3271C30.5063 70.4551 30.5867 70.58 30.6477 70.7237C30.679 70.7919 30.7087 70.8674 30.7294 70.9487C30.747 71.0446 30.7736 71.1348 30.7765 71.2275C30.7824 71.413 30.7662 71.5938 30.6988 71.7634C30.6529 71.8686 30.5966 71.9869 30.51 72.0679C30.4338 72.1358 30.365 72.2054 30.2701 72.2539C30.1589 72.3065 30.055 72.3608 29.9397 72.3972C29.6854 72.4726 29.418 72.5375 29.1528 72.5568C28.6566 72.5798 28.1816 72.4692 27.713 72.3293C27.2664 72.1941 26.8124 72.0574 26.3705 71.9002C26.3632 71.8986 26.3559 71.897 26.3559 71.897C26.3265 71.8907 26.2972 71.8843 26.2695 71.8706C26.2328 71.8627 26.1978 71.8474 26.17 71.8337C25.7428 71.6798 25.3261 71.5127 24.9199 71.3326C24.486 71.1388 24.0715 70.9261 23.6408 70.7177C23.2247 70.5124 22.8039 70.3291 22.3983 70.1107C21.9796 69.8818 21.5747 69.6252 21.1786 69.3629C20.7695 69.09 20.3499 68.8302 19.9529 68.5369C19.5763 68.2557 19.2207 67.9484 18.9129 67.5977C18.7467 67.4082 18.5789 67.226 18.4322 67.0176C18.3862 66.9463 18.3329 66.8733 18.2886 66.7946C18.2113 66.6551 18.13 66.4993 18.0942 66.3456C18.0178 66.0604 17.9959 65.7717 18.0815 65.4832C18.1686 65.1873 18.351 64.9122 18.6097 64.7456C18.7971 64.625 19 64.5385 19.2072 64.4682C19.4557 64.3839 19.7256 64.3426 19.9908 64.3233C20.2413 64.3008 20.5027 64.3344 20.7583 64.3591C20.983 64.3848 21.2135 64.4194 21.4408 64.4686C21.5068 64.4829 21.5654 64.4956 21.6314 64.5099C22.0493 64.6005 22.4536 64.7188 22.8619 64.8533C23.3054 65.0031 23.7409 65.1896 24.1691 65.3745C24.4847 65.512 24.8004 65.6494 25.116 65.7869C25.2862 65.3556 25.4418 64.921 25.612 64.4897C25.7701 64.0787 25.9503 63.6725 26.101 63.26C26.2671 62.8124 26.4128 62.3527 26.5584 61.893C26.7057 61.4259 26.8367 60.9631 27.0059 60.5008C27.3292 59.6113 27.6246 58.7082 27.9259 57.8139C28.0757 57.3705 28.2255 56.927 28.346 56.4772C28.4681 56.0201 28.5812 55.5687 28.718 55.1147C28.8426 54.6812 29.0023 54.2629 29.1621 53.8446C29.3218 53.4263 29.4375 52.9985 29.5606 52.5723C29.6197 52.3702 29.6935 52.1712 29.7527 51.9691C29.8207 51.7613 29.8815 51.5518 29.9584 51.3382C30.0418 51.0953 30.1235 50.8597 30.2273 50.6289C30.3142 50.4404 30.3995 50.2593 30.4863 50.0709C30.5964 49.8107 30.6846 49.5458 30.7857 49.2914C30.9038 48.9946 31.0365 48.701 31.1749 48.4162C31.2997 48.1593 31.4375 47.9128 31.5681 47.6647C31.6333 47.5407 31.7002 47.4093 31.7654 47.2853C31.817 47.189 31.867 47.1001 31.9185 47.0038C31.9507 46.9263 31.9755 46.8472 31.9945 46.7592C32.0047 46.677 32.0075 46.5932 32.0176 46.5109C32.0335 46.4376 32.0494 46.3643 32.0726 46.2926C32.0958 46.2208 32.1191 46.1491 32.1407 46.0847C31.9857 46.0204 31.8413 45.9431 31.6895 45.8641C31.4912 45.7521 31.284 45.6458 31.0962 45.5206C30.5662 45.1679 30.2385 44.5902 29.9175 44.0524C29.8616 43.9559 29.7984 43.8578 29.7515 43.7555C29.6963 43.6207 29.65 43.4802 29.6126 43.3339C29.5528 43.1137 29.5329 42.8868 29.5057 42.6583C29.4407 42.2143 29.3447 41.7714 29.2886 41.3217C29.2383 40.8809 29.1806 40.4386 29.1685 39.9984C29.1513 39.5111 29.1561 39.0285 29.1829 38.5507C29.1954 38.3155 29.2169 38.0745 29.2531 37.8367C29.2919 37.6225 29.3306 37.4083 29.384 37.1973C29.4914 36.737 29.5915 36.2751 29.7282 35.8211C29.9985 34.9278 30.3333 34.0562 30.6386 33.1782C30.799 32.7217 30.965 32.2741 31.1311 31.8265C31.2972 31.3789 31.4795 30.9271 31.6309 30.4763C31.7791 30.0402 31.8834 29.5945 31.9949 29.1505C32.1113 28.6844 32.2334 28.2273 32.357 27.7628C32.4775 27.313 32.6143 26.859 32.7714 26.4172C32.9254 25.99 33.0647 25.5596 33.2317 25.1429C33.3161 24.9309 33.402 24.7116 33.5083 24.5043C33.5735 24.3803 33.6299 24.262 33.6951 24.138C33.7209 24.0898 33.7467 24.0417 33.7725 23.9935C33.7877 23.9585 33.8014 23.9307 33.8225 23.9046C33.833 23.8915 33.8377 23.8695 33.8482 23.8564C33.8619 23.8287 33.8756 23.8009 33.8893 23.7732C34.1535 23.2624 34.3957 22.7469 34.6102 22.2176C34.8278 21.6737 35.025 21.1177 35.25 20.5754C35.5962 19.7216 35.9701 18.8815 36.366 18.0462C36.5729 17.6228 36.7814 17.192 36.9459 16.7518C37.112 16.3042 37.243 15.8413 37.3593 15.3752C37.3831 15.2652 37.4965 15.167 37.5988 15.1201C37.6832 15.0846 37.7776 15.0744 37.8729 15.095C37.8949 15.0998 37.9169 15.1046 37.9373 15.1167C37.9373 15.1167 37.9373 15.1167 37.9446 15.1182C38.0895 14.9808 38.2533 14.8627 38.4426 14.804C38.722 14.7187 39.0306 14.7471 39.3261 14.7651C39.554 14.7761 39.7892 14.7887 40.0171 14.7997C40.4656 14.8201 40.9093 14.8625 41.3492 14.9578C41.5618 15.0039 41.7687 15.0411 41.9813 15.0871C42.2526 15.1459 42.5223 15.212 42.7919 15.2781C43.2637 15.4034 43.7292 15.558 44.1825 15.733C44.6066 15.9016 45.0274 16.0849 45.4498 16.2609C45.9016 16.4432 46.3518 16.6328 46.7778 16.8633C47.2111 17.0954 47.6144 17.3593 48.0041 17.651C48.3546 17.9112 48.7019 18.186 49.0329 18.465C49.2405 18.6404 49.4465 18.8233 49.642 19.0191C49.7304 19.1074 49.8187 19.1956 49.8892 19.2953C49.9253 19.3415 49.954 19.3861 49.9811 19.438C50.0481 19.4832 50.1103 19.5505 50.1473 19.6276C50.2172 19.7655 50.2782 19.9092 50.3156 20.0555C50.3447 20.1693 50.3428 20.284 50.341 20.3988C50.3366 20.4899 50.3249 20.5795 50.3058 20.6675C50.2867 20.7554 50.2661 20.8508 50.2324 20.9356C50.2349 20.9592 50.2537 20.9786 50.2563 21.0022C50.2592 21.0949 50.2753 21.1982 50.2782 21.2909C50.2843 21.369 50.2815 21.4528 50.2803 21.5293C50.2947 21.6399 50.3164 21.7521 50.3219 21.8684C50.286 21.9988 50.2867 22.1371 50.2728 22.2723ZM25.458 67.2197C25.4507 67.2181 25.4523 67.2108 25.4449 67.2092C25.3348 67.4693 25.2321 67.7311 25.1146 67.9896C25.0809 68.0744 25.0561 68.1535 25.046 68.2357C24.9935 68.4777 24.7134 68.6012 24.4893 68.5373C24.3736 68.5046 24.2837 68.4237 24.2205 68.3255C24.1605 68.2128 24.1608 68.1053 24.1862 67.988C24.2386 67.7461 24.3554 67.5258 24.4502 67.3007C24.5467 67.0683 24.6447 66.8285 24.7338 66.5945C24.3773 66.4328 24.0177 66.2858 23.6596 66.1315C23.3089 65.9787 22.9493 65.8317 22.5938 65.701C22.2075 65.5712 21.8236 65.465 21.4293 65.3719C21.07 65.294 20.706 65.2382 20.3446 65.2059C20.2387 65.1984 20.124 65.1965 20.015 65.2036C19.9133 65.2123 19.819 65.2225 19.7231 65.2401C19.5443 65.2858 19.3655 65.3315 19.195 65.4097C19.1415 65.4442 19.088 65.4787 19.0345 65.5131C19.0061 65.5377 18.9835 65.5712 18.9609 65.6047C18.9456 65.6397 18.923 65.6732 18.9078 65.7083C18.8982 65.7523 18.8887 65.7963 18.8792 65.8402C18.8827 65.8947 18.8862 65.9492 18.8898 66.0037C18.9147 66.1013 18.9412 66.1914 18.984 66.2775C19.1014 66.4795 19.2456 66.6642 19.3914 66.8417C19.6271 67.1 19.8733 67.3452 20.1374 67.579C20.3957 67.8039 20.684 67.9968 20.9649 68.1882C21.5765 68.5893 22.1776 69.0036 22.8166 69.3493C23.2295 69.5693 23.6561 69.7615 24.0737 69.9594C24.4841 70.1558 24.8839 70.3653 25.3047 70.5486C25.5298 70.6434 25.7607 70.7471 25.9873 70.8346C26.0999 70.8821 26.214 70.9221 26.3266 70.9695C26.369 70.9864 26.404 71.0017 26.448 71.0112C26.4554 71.0128 26.4554 71.0128 26.4627 71.0144C26.492 71.0208 26.5213 71.0271 26.5491 71.0408L26.5564 71.0424C26.5857 71.0487 26.6061 71.0608 26.6355 71.0672C26.6428 71.0688 26.6428 71.0688 26.6501 71.0704C27.0015 71.1849 27.3601 71.301 27.713 71.4081C28.0659 71.5153 28.4261 71.6241 28.7933 71.6652C28.983 71.6756 29.1643 71.6535 29.3473 71.6241C29.4846 71.5924 29.6236 71.5534 29.7583 71.4982C29.7762 71.4867 29.8029 71.4695 29.8208 71.458C29.8224 71.4507 29.8313 71.4449 29.8313 71.4449C29.8329 71.4376 29.8345 71.4303 29.8434 71.4245C29.8466 71.4099 29.8513 71.3879 29.8545 71.3732C29.8567 71.3276 29.8516 71.2805 29.8449 71.2406C29.8282 71.1756 29.81 71.1179 29.7918 71.0602C29.6916 70.885 29.5631 70.7344 29.445 70.5706C29.3426 70.441 29.2402 70.3113 29.1378 70.1816C28.9136 69.9412 28.6878 69.708 28.4725 69.4618L28.4782 69.4707C28.3538 69.3363 28.2294 69.2019 28.0945 69.0805C27.9465 68.9487 27.7912 68.8152 27.6359 68.6818C27.34 68.4181 27.0545 68.1413 26.7375 67.9037C26.331 67.6545 25.8913 67.4517 25.458 67.2197ZM38.4003 15.8848C38.3971 15.8995 38.3955 15.9068 38.3997 15.923C38.4038 15.9393 38.4064 15.9629 38.4105 15.9791C38.4303 16.0295 38.4517 16.0725 38.4731 16.1155C38.565 16.2582 38.6779 16.3748 38.7982 16.493C39.4309 17.0446 40.1671 17.4728 40.9024 17.87C41.1635 18.0111 41.4262 18.1447 41.6979 18.2727C41.9491 18.3885 42.2019 18.497 42.4564 18.5982C42.8788 18.7742 43.307 18.9591 43.7173 19.1555C43.9261 19.2544 44.1407 19.3623 44.3511 19.454C44.5542 19.5441 44.7589 19.6268 44.9563 19.7079C45.1683 19.7922 45.3714 19.8823 45.5834 19.9666C45.7954 20.0509 46.0106 20.1206 46.2315 20.1992C46.653 20.3442 47.0623 20.5097 47.4901 20.6254C47.7248 20.6762 47.9626 20.7124 48.193 20.747C48.4235 20.7816 48.6498 20.7999 48.8793 20.8036C48.9647 20.7991 49.0517 20.7872 49.1387 20.7754C49.1964 20.7571 49.2556 20.7316 49.3149 20.7061C49.3165 20.6987 49.3254 20.693 49.327 20.6857C49.3455 20.6359 49.3623 20.5935 49.3808 20.5438C49.3998 20.4558 49.4042 20.3647 49.4086 20.2735L49.4102 20.2662C49.3946 20.2321 49.3863 20.1996 49.3706 20.1655C49.3257 20.125 49.2912 20.0715 49.2583 20.0106C49.2526 20.0017 49.2526 20.0017 49.2469 19.9928C49.1377 19.8233 49.0076 19.68 48.8701 19.5351C48.4801 19.1742 48.0617 18.8379 47.6401 18.5163C47.2054 18.1841 46.7555 17.8871 46.2756 17.6219C45.6246 17.2966 44.9519 17.0357 44.2824 16.7602C43.9301 16.6147 43.5778 16.4693 43.2207 16.3459C42.8857 16.2272 42.5369 16.1363 42.1866 16.0527C41.9226 15.9955 41.6529 15.9294 41.3874 15.8796C41.0868 15.8144 40.7846 15.7566 40.4834 15.7297C40.1895 15.7044 39.8924 15.6938 39.597 15.6759C39.3235 15.6627 39.0589 15.6437 38.7839 15.6378C38.7456 15.6372 38.7131 15.6455 38.6733 15.6523C38.6408 15.6606 38.614 15.6778 38.5799 15.6934C38.5353 15.7222 38.498 15.7525 38.4592 15.7901C38.4398 15.8089 38.4261 15.8367 38.405 15.8628C38.414 15.8571 38.4108 15.8717 38.4003 15.8848ZM44.0536 36.415C43.7426 36.5395 43.4035 36.5812 43.0608 36.5683C42.6197 36.5495 42.1792 36.4924 41.7476 36.4296C41.2793 36.3589 40.8142 36.2734 40.3597 36.175C39.8977 36.0749 39.4311 35.9968 38.9755 35.8674C38.7587 35.805 38.542 35.7427 38.33 35.6584C38.1253 35.5757 37.927 35.4636 37.727 35.3589C37.4439 35.2131 37.1592 35.0747 36.8729 34.9435C36.5703 34.8166 36.2678 34.6896 35.9773 34.5422C35.6664 34.3828 35.3766 34.1971 35.0988 33.9911C34.8415 33.7972 34.5931 33.5975 34.3357 33.4036C33.9591 33.1224 33.5647 32.8527 33.2196 32.5323C33.047 32.3721 32.8834 32.2062 32.7497 32.0083C32.662 31.8818 32.5832 31.7496 32.5044 31.6174C32.4485 31.5209 32.3901 31.4008 32.361 31.287C32.3428 31.2293 32.3319 31.1732 32.3137 31.1155C32.2352 31.3365 32.1508 31.5485 32.0649 31.7678C31.7286 32.6468 31.4128 33.5379 31.0895 34.4273C30.9308 34.8765 30.7705 35.333 30.6191 35.7838C30.4861 36.1849 30.3825 36.5923 30.2878 36.994C30.1819 37.4469 30.0777 37.8926 30.0379 38.3599C29.998 38.8272 29.9891 39.2935 29.9948 39.7629C30.0036 40.0412 30.0271 40.3226 30.0595 40.5983C30.0928 40.9049 30.1189 41.2099 30.1685 41.5123C30.2123 41.8058 30.2725 42.0952 30.3163 42.3887C30.356 42.666 30.3884 42.9417 30.4533 43.209C30.5152 43.3837 30.604 43.541 30.6984 43.7074C30.8905 44.0253 31.0883 44.3522 31.3518 44.6242C31.5782 44.8191 31.8467 44.9617 32.1078 45.1027C32.2115 45.1559 32.3077 45.2075 32.4203 45.2549C32.5255 45.3007 32.6323 45.3392 32.748 45.3719C32.9842 45.4155 33.2147 45.45 33.4509 45.4935C33.7238 45.545 34.0055 45.5907 34.2864 45.6055C34.5672 45.6203 34.847 45.6041 35.1237 45.6027C35.3767 45.6038 35.6266 45.6195 35.8724 45.6191C36.3466 45.5913 36.8132 45.4928 37.2698 45.3692C37.4088 45.3302 37.5493 45.2839 37.6767 45.2271C37.8294 45.1603 37.9762 45.0847 38.1231 45.0091C38.2926 44.8999 38.4621 44.7908 38.6201 44.6639C38.7676 44.55 38.902 44.4256 39.0307 44.2923C39.3695 43.8975 39.6603 43.4769 39.9395 43.0384C40.2187 42.6 40.4922 42.1526 40.751 41.7021C40.8615 41.5111 40.9735 41.3127 41.0897 41.1307C41.2149 40.9429 41.3473 40.7566 41.4725 40.5688C41.7332 40.1801 41.9516 39.7745 42.1993 39.3753C42.3276 39.1728 42.4617 38.9793 42.5884 38.7841C42.7135 38.5963 42.8402 38.4012 42.9596 38.2044C43.2042 37.8199 43.4968 37.4611 43.7299 37.0587C43.8467 36.8384 43.953 36.6312 44.0536 36.415ZM44.9834 34.2139C44.8881 34.1932 44.7902 34.149 44.7238 34.0655C44.6935 34.0282 44.6575 33.982 44.6256 33.9521C44.476 33.8276 44.3038 33.7365 44.1422 33.6324C43.9658 33.5251 43.7968 33.4194 43.6205 33.3121C43.2679 33.0976 42.9241 32.8772 42.5683 32.6773C42.361 32.571 42.1465 32.4631 41.936 32.3715C41.5021 32.1776 41.0698 31.9765 40.648 31.7623C40.2465 31.5602 39.8394 31.3491 39.4227 31.1821C38.5558 30.8254 37.6626 30.5551 36.754 30.3198C36.3964 30.2347 36.0444 30.1584 35.6804 30.1026C35.3017 30.0435 34.9256 30.0081 34.5415 30.0093C34.3178 30.0146 34.0925 30.0271 33.8671 30.0397C33.6727 30.0513 33.4725 30.054 33.2791 30.0965C33.2466 30.1049 33.2198 30.1221 33.1857 30.1377C33.1752 30.1508 33.159 30.155 33.1485 30.168C33.1469 30.1754 33.138 30.1811 33.1364 30.1884C33.1227 30.2162 33.1074 30.2512 33.1011 30.2806C33.0899 30.3319 33.0862 30.3848 33.0881 30.4466C33.0962 30.5866 33.1205 30.7223 33.1537 30.8523C33.1818 30.9352 33.2083 31.0254 33.2527 31.1041C33.2955 31.1901 33.3398 31.2688 33.3842 31.3475C33.4891 31.5007 33.603 31.6482 33.7348 31.7842C34.1264 32.1377 34.5601 32.439 34.9817 32.7606C35.2186 32.9424 35.4539 33.1316 35.6925 33.3061C35.8829 33.4548 36.0943 33.5774 36.3057 33.6999C36.6312 33.8626 36.9615 34.0032 37.2975 34.1528C37.6336 34.3024 37.9648 34.4739 38.2888 34.6439C38.4814 34.7471 38.6698 34.8339 38.8761 34.9093C39.0473 34.9695 39.2216 35.0149 39.4033 35.062C39.7186 35.1303 40.0412 35.2002 40.3565 35.2685C40.6937 35.3416 41.031 35.4146 41.3641 35.4715C41.6972 35.5283 42.0319 35.5778 42.3698 35.6126C42.6768 35.6484 42.9837 35.6842 43.2986 35.6834C43.415 35.6779 43.5255 35.6635 43.6393 35.6344C43.7384 35.6021 43.8318 35.5609 43.921 35.5035C43.9656 35.4748 44.0118 35.4387 44.0506 35.4011C44.0911 35.3561 44.1258 35.3023 44.1516 35.2541C44.2127 35.1138 44.2575 34.9777 44.2966 34.8327C44.3109 34.7667 44.3268 34.6933 44.3411 34.6274C44.3681 34.5027 44.4034 34.4106 44.5063 34.3254C44.5987 34.2533 44.7141 34.2169 44.8345 34.2277C44.8875 34.2314 44.9299 34.2483 44.9707 34.2725C44.9681 34.2489 44.9713 34.2343 44.9834 34.2139ZM49.3146 22.6557C49.3623 22.4358 49.3896 22.2037 49.399 21.9832C49.3944 21.8977 49.3826 21.8107 49.3707 21.7237C49.3698 21.6928 49.3688 21.6619 49.3678 21.631C49.3516 21.6351 49.3426 21.6409 49.3337 21.6466C49.1314 21.6949 48.9149 21.7017 48.7017 21.6939C48.5031 21.6893 48.3093 21.6626 48.1155 21.636C47.7059 21.5779 47.2832 21.5094 46.8895 21.378C46.5031 21.2482 46.1273 21.1054 45.7409 20.9756C45.3194 20.8306 44.9059 20.6488 44.4892 20.4818C44.2772 20.3975 44.0668 20.3058 43.8564 20.2142C43.6475 20.1152 43.4403 20.0089 43.2314 19.9099C42.8211 19.7135 42.3987 19.5376 41.982 19.3705C41.5318 19.1809 41.0921 18.9781 40.6588 18.7461C40.2182 18.5124 39.7807 18.2641 39.3538 18.0027C38.9326 17.7503 38.5266 17.4627 38.1774 17.1261C38.089 17.0378 37.9991 16.957 37.9197 16.863C37.8951 16.8346 37.8737 16.7916 37.8492 16.7633C37.8307 16.813 37.8196 16.8643 37.8011 16.9141C37.6488 17.3339 37.4686 17.7401 37.2738 18.1431C36.898 18.9214 36.5482 19.7207 36.2074 20.5142C36.0225 20.9424 35.8507 21.3811 35.6862 21.8214C35.5249 22.247 35.3636 22.6726 35.1819 23.0861C35.0813 23.3023 34.9792 23.5258 34.8713 23.7403C34.8134 23.866 34.7497 23.9827 34.6844 24.1067C34.6692 24.1418 34.6465 24.1752 34.6329 24.203C34.6313 24.2103 34.6208 24.2234 34.6192 24.2307C34.6071 24.2511 34.5934 24.2789 34.5813 24.2993C34.5797 24.3066 34.5797 24.3066 34.5708 24.3123C34.5692 24.3197 34.5587 24.3328 34.5571 24.3401C34.5393 24.3516 34.5345 24.3736 34.5224 24.394C34.5103 24.4144 34.4982 24.4348 34.4861 24.4552C34.3282 24.7587 34.1777 25.0639 34.0564 25.3753C33.932 25.7015 33.8134 26.0365 33.6963 26.3643C33.5376 26.8135 33.3878 27.2569 33.2584 27.7125C33.1274 28.1754 33.0021 28.6472 32.8858 29.1132C32.8715 29.1792 32.8498 29.2436 32.8355 29.3096C33.0328 29.2142 33.2571 29.1707 33.4751 29.1565C33.9656 29.1246 34.4545 29.1 34.9428 29.1137C35.3929 29.1268 35.8506 29.2106 36.2921 29.2986C36.3508 29.3113 36.4021 29.3225 36.4534 29.3336C36.8933 29.4289 37.3374 29.5405 37.771 29.6651C38.6674 29.9208 39.5454 30.2261 40.3791 30.6294C40.7895 30.8258 41.1877 31.0425 41.5996 31.2316C42.032 31.4327 42.4675 31.6192 42.895 31.8423C43.3373 32.0687 43.7537 32.3431 44.1733 32.6029C44.3628 32.7207 44.5448 32.8369 44.7342 32.9547C44.8289 33.0136 44.9252 33.0652 45.011 33.1298C45.1303 33.2171 45.2301 33.3232 45.3299 33.4292C45.3958 33.2669 45.4543 33.1031 45.5259 32.9497C45.7182 32.5231 45.9381 32.1102 46.1361 31.6926C46.2335 31.4911 46.3178 31.279 46.4168 31.0702C46.5189 30.8467 46.6284 30.6248 46.7379 30.4029C46.8353 30.2014 46.94 30.0015 47.0374 29.8C47.1291 29.5896 47.2207 29.3791 47.2993 29.1582C47.4622 28.7253 47.6471 28.2971 47.788 27.8594C47.9289 27.4217 48.0347 26.9687 48.1903 26.5341C48.2657 26.3279 48.3557 26.1248 48.4295 25.9258C48.5018 25.7342 48.5593 25.5395 48.6111 25.3358C48.6604 25.1085 48.695 24.878 48.7442 24.6507C48.7982 24.4014 48.8522 24.1522 48.9209 23.9061C48.9759 23.6877 49.0382 23.4709 49.1152 23.2573C49.1759 23.0479 49.2555 22.8578 49.3146 22.6557ZM42.5732 25.4629C41.9983 25.5302 41.3997 25.4235 40.9137 25.0803C40.5616 24.8275 40.2459 24.5134 40.0518 24.1336C39.8891 23.822 39.8139 23.4603 39.8519 23.1078C39.8899 22.7552 40.0003 22.3877 40.2095 22.0953C40.4187 21.8028 40.7022 21.5572 41.031 21.4212C41.2754 21.3207 41.5176 21.2657 41.777 21.2374C42.0218 21.206 42.2806 21.2161 42.5248 21.2229C42.76 21.2355 43.001 21.257 43.2356 21.3078C43.2576 21.3126 43.2796 21.3174 43.3016 21.3221C43.6299 21.401 43.9293 21.5426 44.1698 21.7789C44.2581 21.8671 44.3286 21.9669 44.3976 22.0739C44.4681 22.1736 44.5076 22.2743 44.4953 22.4021C44.482 22.499 44.4393 22.5896 44.3779 22.6607C44.4034 22.72 44.4289 22.7792 44.4456 22.8442C44.4663 22.9255 44.4944 23.0083 44.499 23.0938C44.5061 23.2028 44.5131 23.3118 44.4982 23.416C44.4865 23.5056 44.469 23.5862 44.4426 23.6726C44.3612 23.9774 44.2343 24.2799 44.0608 24.5494C43.8751 24.8392 43.6356 25.0944 43.324 25.2571C43.087 25.3593 42.8269 25.4258 42.5732 25.4629ZM42.7074 24.5248C42.7976 24.4983 42.882 24.4628 42.9607 24.4185C43.0158 24.3767 43.071 24.3349 43.1187 24.2915C43.2206 24.1754 43.3022 24.0473 43.3837 23.9191C43.4658 23.7526 43.5316 23.5904 43.586 23.4102C43.6003 23.3443 43.6057 23.284 43.6111 23.2238C43.6101 23.1929 43.6018 23.1604 43.5935 23.1278C43.5695 23.0613 43.5383 22.9931 43.5054 22.9322C43.4004 22.779 43.2865 22.6315 43.2157 22.4626C43.1786 22.3855 43.1741 22.3001 43.1843 22.2178C43.1492 22.2026 43.1052 22.193 43.0685 22.1851C42.7354 22.1283 42.409 22.1113 42.0795 22.109C41.8997 22.1237 41.7273 22.1401 41.5501 22.1785C41.4421 22.2165 41.3414 22.2561 41.2449 22.3119C41.1735 22.3579 41.1168 22.407 41.0512 22.4619C40.9881 22.5403 40.934 22.613 40.8856 22.6946C40.8414 22.7925 40.8045 22.892 40.7733 23.0004C40.7511 23.103 40.7451 23.2015 40.7375 23.3073C40.7436 23.3854 40.7513 23.4562 40.7737 23.5301C40.8075 23.6219 40.8487 23.7152 40.8988 23.8028C40.9734 23.9188 41.0659 24.0233 41.16 24.1204C41.2949 24.2418 41.433 24.3485 41.5889 24.4437C41.6795 24.4863 41.779 24.5232 41.8727 24.5512C42.0047 24.5798 42.1414 24.5864 42.2708 24.5914C42.4181 24.5849 42.5611 24.5622 42.7074 24.5248ZM45.0702 27.8615C45.2217 28.0479 45.1891 28.3402 45.0027 28.4917C44.9565 28.5278 44.9046 28.5549 44.8469 28.5731C44.8447 28.6187 44.8425 28.6643 44.8403 28.7098C44.8345 28.9849 44.8417 29.2705 44.7902 29.5433C44.768 29.646 44.7384 29.747 44.7015 29.8465C44.6741 29.902 44.6378 29.9632 44.6105 30.0187C44.5984 30.0391 44.5789 30.0579 44.5668 30.0783C44.4471 30.2059 44.3289 30.3261 44.16 30.397C44.0163 30.458 43.8701 30.4954 43.7082 30.4987C43.53 30.5061 43.3582 30.4843 43.1927 30.433C42.9849 30.365 42.7834 30.2676 42.6013 30.1514C42.4993 30.0909 42.3972 30.0304 42.3057 29.9568C42.0541 29.7718 41.8309 29.5623 41.6821 29.2921C41.5392 29.0308 41.4806 28.7341 41.4986 28.4386C41.5131 28.2653 41.5382 28.0788 41.5967 27.9149C41.6505 27.773 41.7148 27.6181 41.8036 27.4915C41.8982 27.3738 42.0001 27.2577 42.125 27.1773C42.2604 27.0839 42.4041 27.0229 42.5666 26.9813C42.8859 26.8893 43.2222 26.9315 43.5448 27.0014C43.5595 27.0046 43.5741 27.0077 43.5961 27.0125C43.8308 27.0633 44.0664 27.1451 44.2883 27.2546C44.427 27.323 44.5656 27.3914 44.6849 27.4787C44.8319 27.5796 44.9563 27.7141 45.0702 27.8615ZM43.9155 29.3999C43.9495 29.2077 43.9542 29.0091 43.9604 28.8032C43.9654 28.6738 43.9647 28.5355 43.9697 28.406C43.9661 28.3515 43.961 28.3044 43.9485 28.2556C43.9393 28.1922 43.9373 28.1304 43.9558 28.0806C43.782 27.9969 43.6108 27.9368 43.4233 27.8808C43.2767 27.8491 43.1269 27.832 42.9755 27.8222C42.9137 27.8241 42.8502 27.8334 42.7926 27.8516C42.7511 27.8657 42.7081 27.8871 42.674 27.9027C42.6473 27.9199 42.6278 27.9388 42.5995 27.9633C42.568 28.0025 42.5438 28.0434 42.5196 28.0842C42.4874 28.1616 42.4569 28.2318 42.4394 28.3124C42.4219 28.3931 42.4191 28.4769 42.4074 28.5665C42.4093 28.6283 42.4202 28.6844 42.4295 28.7478C42.4493 28.7982 42.4691 28.8485 42.4962 28.9004C42.5438 28.9645 42.5913 29.0285 42.6551 29.0884C42.8104 29.2218 42.9851 29.3364 43.1615 29.4437C43.2855 29.509 43.4111 29.5669 43.5488 29.6044C43.5855 29.6124 43.6311 29.6146 43.6693 29.6152C43.7002 29.6142 43.7327 29.6059 43.7726 29.5992C43.7977 29.5893 43.8229 29.5794 43.8497 29.5622L43.8586 29.5564C43.8707 29.536 43.8812 29.5229 43.8933 29.5025C43.8939 29.4643 43.9019 29.4276 43.9155 29.3999ZM65.4926 45.9807C65.2616 45.9843 65.0332 46.1882 65.0556 46.4387C65.082 46.8128 65.1189 47.1739 65.1527 47.5497C65.1864 47.9254 65.2332 48.3117 65.1977 48.6878C65.1616 48.9256 65.0903 49.1481 65.0102 49.3764C64.8743 49.6847 64.7164 49.9882 64.5601 50.2845C64.3885 50.6157 64.217 50.947 64.0454 51.2783C63.9302 51.4913 64.0008 51.7676 64.2122 51.8901C64.4179 52.0038 64.7088 51.9363 64.824 51.7233C65.0303 51.3382 65.2235 50.9425 65.4298 50.5573C65.6376 50.1648 65.8398 49.7634 65.9628 49.3372C66.0579 49.0047 66.1106 48.6553 66.0867 48.3047C66.0767 48.103 66.0594 47.8997 66.042 47.6963C66.0105 47.275 65.9643 46.8505 65.9328 46.4291C65.917 46.2185 65.7786 46.0426 65.5806 45.9997C65.5602 45.9876 65.5235 45.9797 65.4926 45.9807ZM63.1652 52.4002C62.9306 52.3493 62.6798 52.4792 62.6201 52.7196C62.5619 52.9526 62.7049 53.2139 62.9395 53.2647C63.1741 53.3155 63.4249 53.1856 63.4846 52.9453C63.5501 52.7138 63.4072 52.4526 63.1652 52.4002ZM65.4642 45.3681C65.6988 45.4189 65.9495 45.289 66.0093 45.0487C66.0675 44.8156 65.9245 44.5544 65.6899 44.5035C65.4553 44.4527 65.2045 44.5826 65.1447 44.823C65.0882 45.0487 65.2295 45.3173 65.4642 45.3681ZM57.9821 46.9171C57.7475 46.8663 57.4968 46.9962 57.437 47.2365C57.3788 47.4696 57.5218 47.7308 57.7564 47.7817C57.991 47.8325 58.2418 47.7026 58.3015 47.4622C58.367 47.2308 58.2241 46.9695 57.9821 46.9171ZM61.7044 45.2903C61.4698 45.2395 61.219 45.3694 61.1593 45.6098C61.1011 45.8428 61.2441 46.104 61.4787 46.1549C61.7133 46.2057 61.9641 46.0758 62.0238 45.8355C62.082 45.6024 61.939 45.3412 61.7044 45.2903ZM59.6221 50.3659C59.3875 50.3151 59.1367 50.445 59.077 50.6853C59.0188 50.9184 59.1618 51.1796 59.3964 51.2305C59.631 51.2813 59.8818 51.1514 59.9415 50.911C59.9997 50.678 59.8567 50.4167 59.6221 50.3659ZM62.6213 48.0375C62.3867 47.9866 62.136 48.1165 62.0762 48.3569C62.018 48.5899 62.161 48.8512 62.3956 48.902C62.6303 48.9528 62.881 48.823 62.9408 48.5826C63.0063 48.3512 62.8633 48.0899 62.6213 48.0375ZM39.6405 40.2026C39.5997 40.1784 39.5646 40.1631 39.5206 40.1536C39.4473 40.1377 39.3708 40.1365 39.2969 40.1588C39.1742 40.1936 39.1038 40.2705 39.036 40.371C38.8914 40.5776 38.7615 40.7874 38.6096 40.9924C38.5166 41.1028 38.4236 41.2131 38.3233 41.3219C38.2157 41.4291 38.108 41.5362 38.0061 41.6523C37.8112 41.8787 37.6628 42.1383 37.4941 42.3857C37.3485 42.5615 37.1842 42.7177 37.0067 42.8635C36.7028 43.097 36.3948 43.3143 36.0433 43.4838C35.8671 43.5531 35.6852 43.6134 35.5048 43.6665C35.3244 43.7195 35.1336 43.7856 34.9475 43.8297C34.9239 43.8323 34.893 43.8333 34.871 43.8285C34.6252 43.829 34.4262 44.0392 34.434 44.2865C34.4418 44.5338 34.6462 44.724 34.892 44.7235C35.1377 44.723 35.37 44.6428 35.5991 44.5773C35.7706 44.53 35.9363 44.4738 36.1093 44.4192C36.4748 44.2911 36.8148 44.1038 37.1391 43.8824C37.4293 43.6766 37.7154 43.4546 37.9769 43.2042C38.2294 42.9596 38.3889 42.6487 38.5876 42.3694C38.7752 42.1413 39.002 41.9449 39.1912 41.7095C39.4208 41.4292 39.6185 41.1189 39.8219 40.8176C39.9503 40.6151 39.8461 40.3162 39.6405 40.2026ZM40.3166 38.9597C40.082 38.9089 39.8312 39.0388 39.7715 39.2791C39.7133 39.5122 39.8563 39.7734 40.0909 39.8243C40.3255 39.8751 40.5763 39.7452 40.636 39.5048C40.6926 39.2791 40.5512 39.0105 40.3166 38.9597ZM33.8357 37.164C33.601 37.1131 33.3503 37.243 33.2905 37.4834C33.2324 37.7164 33.3753 37.9777 33.6099 38.0285C33.8446 38.0793 34.0953 37.9494 34.1551 37.7091C34.2116 37.4834 34.0703 37.2148 33.8357 37.164ZM34.0105 36.0735C34.0687 35.8404 33.9257 35.5792 33.6911 35.5283C33.4565 35.4775 33.2057 35.6074 33.146 35.8478C33.0878 36.0808 33.2308 36.3421 33.4654 36.3929C33.7 36.4437 33.9434 36.3122 34.0105 36.0735ZM30.8984 40.1276C30.6637 40.0767 30.413 40.2066 30.3532 40.447C30.2951 40.68 30.438 40.9413 30.6727 40.9921C30.9073 41.043 31.158 40.9131 31.2178 40.6727C31.276 40.4397 31.133 40.1784 30.8984 40.1276ZM35.4526 41.9588C35.5108 41.7257 35.3678 41.4645 35.1332 41.4136C34.8986 41.3628 34.6479 41.4927 34.5881 41.733C34.5299 41.9661 34.6729 42.2273 34.9075 42.2782C35.1421 42.329 35.3856 42.1975 35.4526 41.9588ZM36.7547 39.6694C36.9893 39.7202 37.24 39.5903 37.2998 39.35C37.358 39.117 37.215 38.8557 36.9804 38.8049C36.7458 38.754 36.495 38.8839 36.4353 39.1243C36.3698 39.3557 36.5127 39.617 36.7547 39.6694ZM35.9459 37.0608C35.9754 36.9598 35.9632 36.8036 35.8969 36.7202C35.8781 36.7007 35.8608 36.674 35.842 36.6545C35.7989 36.4993 35.6551 36.3837 35.5011 36.3504C35.4718 36.344 35.4351 36.3361 35.4042 36.3371C35.1495 36.3433 34.974 36.5509 34.9672 36.7951C34.9632 36.9554 35.0378 37.0713 35.1287 37.1832C35.2008 37.2755 35.2761 37.3533 35.3992 37.3876C35.5149 37.4203 35.6417 37.4018 35.7398 37.3386C35.8469 37.2697 35.9131 37.1766 35.9459 37.0608ZM39.372 38.2177C39.6067 38.2686 39.8574 38.1387 39.9172 37.8983C39.9753 37.6653 39.8324 37.404 39.5977 37.3532C39.3631 37.3023 39.1124 37.4322 39.0526 37.6726C38.9871 37.904 39.1301 38.1653 39.372 38.2177ZM65.5788 33.0422C65.5475 33.4345 65.5162 33.8269 65.4996 34.2225C65.4908 34.4048 65.482 34.5871 65.4878 34.7726C65.4892 34.8727 65.4905 34.9728 65.4919 35.0728C65.498 35.1509 65.4984 35.2201 65.5134 35.2924C65.5252 35.3794 65.5403 35.4518 65.5684 35.5346C65.5907 35.6086 65.6293 35.6783 65.6606 35.7465C65.7075 35.8488 65.83 35.9214 65.931 35.951C66.0468 35.9837 66.1736 35.9651 66.2717 35.902C66.3699 35.8388 66.4434 35.7473 66.4762 35.6315C66.5105 35.5085 66.4798 35.4021 66.4272 35.2909C66.4173 35.2657 66.409 35.2332 66.4007 35.2007C66.3647 34.8705 66.3833 34.5368 66.4003 34.2104C66.4173 33.884 66.4416 33.5592 66.4659 33.2344C66.4918 32.9023 66.512 32.5612 66.5379 32.2291C66.5575 31.9263 66.5786 31.6161 66.6055 31.3149C66.6236 31.196 66.6401 31.0845 66.6655 30.9671C66.7163 30.7325 66.5864 30.4818 66.3461 30.422C66.3387 30.4204 66.3387 30.4204 66.3314 30.4188C66.1041 30.3696 65.8502 30.5142 65.801 30.7414C65.7152 31.1374 65.6896 31.5387 65.6641 31.9399C65.6392 32.303 65.6053 32.6718 65.5788 33.0422ZM48.3409 23.0051C48.2777 22.907 48.1862 22.8334 48.0704 22.8006C48.0631 22.7991 48.0631 22.7991 48.0558 22.7975C47.9458 22.7736 47.8263 22.7938 47.7297 22.8496C47.6421 22.8997 47.5418 23.0085 47.5253 23.1201C47.5098 23.2625 47.4869 23.4034 47.4641 23.5443C47.4412 23.6852 47.3906 23.8124 47.3474 23.9412C47.2083 24.2642 47.0562 24.5767 46.9098 24.898C46.7554 25.2561 46.6068 25.623 46.4656 25.9916C46.3644 26.246 46.2559 26.4988 46.1474 26.7516C46.0067 27.0819 45.8865 27.4243 45.7662 27.7667C45.6861 27.995 45.8673 28.2569 46.0857 28.3119C46.2014 28.3446 46.3282 28.326 46.4263 28.2629C46.5318 28.2013 46.5907 28.1066 46.6308 27.9924C46.7094 27.7715 46.7879 27.5506 46.8738 27.3312C47.094 26.8109 47.3085 26.2817 47.5214 25.7598C47.6773 25.3944 47.8406 25.0306 48.0127 24.6611C48.1133 24.4449 48.2155 24.2214 48.281 23.99C48.3417 23.7805 48.3731 23.5647 48.3972 23.3474C48.4079 23.2269 48.4082 23.1195 48.3409 23.0051ZM49.3567 15.2344C49.0618 15.0017 48.7725 14.7778 48.5091 14.5058C48.2153 14.1965 47.9321 13.8741 47.6383 13.5648C47.5818 13.5066 47.506 13.4671 47.4326 13.4512C47.2787 13.4178 47.1146 13.4667 47.0069 13.5739C46.8289 13.7579 46.8539 14.032 47.0159 14.2053C47.3212 14.5324 47.6175 14.8653 47.9301 15.194C48.1747 15.4466 48.4656 15.6631 48.7401 15.8838C48.9436 16.043 49.1413 16.1933 49.3464 16.3452C49.4395 16.4114 49.5925 16.4139 49.6916 16.3816C49.8053 16.3526 49.8993 16.2731 49.9525 16.1695C50.0129 16.0675 50.0253 15.9396 49.9889 15.8243C49.954 15.7016 49.8772 15.6312 49.7767 15.5634C49.7563 15.5513 49.7433 15.5408 49.7244 15.5214C49.7579 15.544 49.7841 15.565 49.8176 15.5876C49.6648 15.4777 49.5137 15.3606 49.3567 15.2344ZM53.112 12.924C53.0822 12.6719 53.0435 12.4255 52.9974 12.1776C52.9596 11.9622 52.9072 11.7435 52.8532 11.5323C52.8117 11.3697 52.6752 11.2557 52.5139 11.2208C52.4406 11.2049 52.3641 11.2037 52.2975 11.2276C52.0521 11.2973 51.9362 11.5485 51.9928 11.7834C52.066 12.0832 52.1303 12.3889 52.1872 12.6929C52.25 13.1824 52.3055 13.6703 52.3537 14.1567C52.3649 14.2819 52.3971 14.381 52.4928 14.4709C52.5754 14.5502 52.6953 14.5992 52.8116 14.5937C53.0427 14.59 53.2727 14.3789 53.2486 14.1357C53.205 13.7347 53.163 13.3265 53.112 12.924ZM59.2295 11.6857C59.173 11.6274 59.0971 11.5879 59.0092 11.5689C58.8625 11.5371 58.7 11.5786 58.5907 11.6931C58.2025 12.1387 57.8232 12.5784 57.4407 13.0329C57.2548 13.2536 57.086 13.501 56.9204 13.7338C56.7532 13.9739 56.6196 14.2366 56.4875 14.492C56.3796 14.7066 56.4355 14.9797 56.6543 15.1039C56.8599 15.2175 57.1509 15.1501 57.2661 14.9371C57.3619 14.7429 57.465 14.5503 57.5739 14.3667C57.6691 14.2107 57.77 14.0637 57.8799 13.911C58.3066 13.3587 58.7652 12.8363 59.2238 12.3139C59.4019 12.1299 59.4078 11.8548 59.2295 11.6857ZM61.6633 18.3078C61.9196 18.2943 62.1669 18.2864 62.4232 18.2729C62.6648 18.2561 62.8664 18.0695 62.8601 17.8149C62.8575 17.6147 62.7059 17.4284 62.508 17.3855C62.4713 17.3775 62.4404 17.3785 62.4022 17.3779C61.897 17.4066 61.4007 17.4296 60.8914 17.442C60.3968 17.4577 59.9091 17.4057 59.4103 17.4051C59.1645 17.4056 58.9655 17.6158 58.9733 17.8631C58.9811 18.1104 59.1855 18.3006 59.4313 18.3001C59.9228 18.2991 60.4136 18.3364 60.9051 18.3354C61.1582 18.3365 61.4071 18.3214 61.6633 18.3078ZM58.6643 22.8317C58.76 22.9215 58.8611 22.951 58.9831 22.9545C59.1639 22.9706 59.3389 22.9778 59.5212 22.9866C59.7727 22.995 60.0184 22.9946 60.2667 23.0177C60.3709 23.0326 60.4678 23.0459 60.5705 23.0681C60.704 23.0894 60.8255 23.1311 60.9527 23.1817C61.3752 23.3576 61.7839 23.5613 62.1911 23.7724C62.4056 23.8803 62.6803 23.817 62.8029 23.6056C62.9166 23.3999 62.8491 23.109 62.6361 22.9937C62.1661 22.7537 61.6873 22.5195 61.1931 22.3203C61.0805 22.2729 60.9575 22.2385 60.8329 22.2115C60.6569 22.1734 60.4777 22.1499 60.297 22.1338C60.087 22.1113 59.8737 22.1035 59.6662 22.1046C59.4367 22.1009 59.2089 22.0899 58.9825 22.0716C58.8694 22.0624 58.7477 22.1282 58.6684 22.2108C58.5891 22.2934 58.5401 22.4133 58.5456 22.5296C58.5306 22.6338 58.5744 22.7508 58.6643 22.8317ZM65.3693 78.6462C65.3771 78.433 65.2077 78.2581 65.0098 78.2152C64.9804 78.2089 64.9438 78.2009 64.9129 78.2019C64.7965 78.2074 64.6796 78.2512 64.5987 78.3411C64.5105 78.4294 64.4793 78.5378 64.4759 78.6599C64.4731 78.7437 64.4703 78.8276 64.4601 78.9098C64.4554 78.9318 64.4522 78.9465 64.4474 78.9685C64.4369 78.9815 64.4337 78.9962 64.4232 79.0093C64.3286 79.1269 64.2152 79.2252 64.1018 79.3234C63.9649 79.4242 63.8253 79.5015 63.6711 79.5755C63.3748 79.7032 63.0737 79.8529 62.7674 79.9554C62.6757 79.9893 62.5766 80.0215 62.4791 80.0465C62.3815 80.0714 62.284 80.0963 62.1881 80.1139C61.9947 80.1564 61.7971 80.1827 61.5979 80.2163C61.4873 80.2307 61.387 80.3395 61.337 80.4284C61.2765 80.5305 61.2642 80.6583 61.3006 80.7736C61.3297 80.8874 61.4091 80.9814 61.5127 81.0345C61.6294 81.0982 61.7295 81.0969 61.8579 81.071C62.2075 81.0162 62.5555 80.9688 62.8869 80.8564C63.211 80.7424 63.5268 80.5959 63.8467 80.4656C64.0082 80.3931 64.1755 80.3296 64.3313 80.2482C64.4976 80.1538 64.6362 80.0456 64.778 79.9228C64.927 79.8016 65.0751 79.6495 65.1793 79.4878C65.2382 79.3931 65.2808 79.3025 65.3193 79.1957C65.3498 79.1256 65.3501 79.0182 65.3571 78.9506C65.3646 78.8448 65.3706 78.7463 65.3693 78.6462ZM24.5488 68.8649C24.3079 68.8434 24.0827 69.0326 24.0685 69.2751C24.047 69.5161 24.2377 69.734 24.4787 69.7555C24.5845 69.7631 24.6888 69.778 24.793 69.7929C24.9747 69.8399 25.1475 69.8927 25.3244 69.9618C25.538 70.0388 25.7516 70.1158 25.97 70.1707C26.2104 70.2305 26.4523 70.2829 26.7006 70.306C26.7902 70.3178 26.8813 70.3222 26.9668 70.3176C27.1213 70.3127 27.2482 70.2942 27.3935 70.2259C27.5639 70.1477 27.6996 69.9468 27.7173 69.7587C27.7296 69.6309 27.7168 69.513 27.7056 69.3877C27.6985 69.2787 27.6076 69.1669 27.5218 69.1023C27.4752 69.0691 27.4124 69.0402 27.3538 69.0275C27.2951 69.0148 27.2349 69.0094 27.1788 69.0203C27.0666 69.042 26.9611 69.1036 26.8949 69.1967C26.8497 69.2637 26.8265 69.3354 26.8195 69.403C26.6461 69.3884 26.4759 69.3592 26.3073 69.3227C26.0522 69.2598 25.802 69.1748 25.5533 69.0826C25.2297 68.9818 24.9014 68.9029 24.5488 68.8649ZM59.3288 42.2962C59.3395 42.1758 59.3047 42.0531 59.2326 41.9607C59.1532 41.8667 59.0553 41.8225 58.938 41.7971C58.828 41.7732 58.6859 41.8269 58.6024 41.8932C58.5101 41.9653 58.4553 42.0763 58.4388 42.1878C58.4281 42.3083 58.4629 42.431 58.535 42.5234C58.6144 42.6174 58.7123 42.6616 58.8296 42.687C58.9396 42.7109 59.0817 42.6572 59.1652 42.5909C59.2575 42.5188 59.3196 42.4094 59.3288 42.2962ZM62.149 42.4237C62.259 42.4475 62.4011 42.3939 62.4845 42.3276C62.5769 42.2555 62.6317 42.1445 62.6482 42.0329C62.6589 41.9124 62.6241 41.7898 62.552 41.6974C62.4726 41.6034 62.3747 41.5592 62.2574 41.5338C62.1474 41.5099 62.0053 41.5636 61.9218 41.6299C61.8294 41.702 61.7747 41.813 61.7582 41.9245C61.7474 42.045 61.7823 42.1677 61.8544 42.2601C61.9322 42.3614 62.0317 42.3983 62.149 42.4237ZM64.711 42.5029C64.8209 42.5268 64.9631 42.4731 65.0465 42.4068C65.1389 42.3347 65.1937 42.2237 65.2101 42.1121C65.2209 41.9917 65.1861 41.869 65.114 41.7766C65.0346 41.6826 64.9367 41.6384 64.8194 41.613C64.7094 41.5891 64.5673 41.6428 64.4838 41.7091C64.3914 41.7812 64.3367 41.8922 64.3202 42.0037C64.3094 42.1242 64.3443 42.2469 64.4164 42.3393C64.4958 42.4333 64.5937 42.4775 64.711 42.5029ZM36.2485 31.2005C36.1385 31.1767 35.9964 31.2303 35.9129 31.2967C35.8206 31.3688 35.7658 31.4797 35.7493 31.5913C35.7386 31.7118 35.7734 31.8345 35.8455 31.9268C35.9249 32.0208 36.0228 32.065 36.1401 32.0905C36.2501 32.1143 36.3922 32.0607 36.4756 31.9943C36.568 31.9222 36.6228 31.8113 36.6393 31.6997C36.65 31.5792 36.6152 31.4565 36.5431 31.3641C36.4653 31.2628 36.3658 31.2259 36.2485 31.2005ZM39.2852 32.8794C39.1752 32.8556 39.0331 32.9092 38.9496 32.9756C38.8573 33.0477 38.8025 33.1586 38.786 33.2702C38.7753 33.3907 38.8101 33.5134 38.8822 33.6057C38.9616 33.6997 39.0595 33.7439 39.1768 33.7694C39.2868 33.7932 39.4289 33.7396 39.5124 33.6732C39.6047 33.6011 39.6595 33.4901 39.676 33.3786C39.6867 33.2581 39.6519 33.1354 39.5798 33.043C39.502 32.9417 39.4025 32.9048 39.2852 32.8794ZM42.0524 33.7476C41.9424 33.7238 41.8003 33.7775 41.7168 33.8438C41.6244 33.9159 41.5697 34.0269 41.5532 34.1384C41.5424 34.2589 41.5772 34.3816 41.6493 34.474C41.7288 34.5679 41.8266 34.6122 41.944 34.6376C42.0539 34.6614 42.1961 34.6078 42.2795 34.5414C42.3719 34.4693 42.4266 34.3584 42.4431 34.2468C42.4539 34.1263 42.4191 34.0036 42.347 33.9113C42.2691 33.81 42.1697 33.7731 42.0524 33.7476Z" fill="#FF80A6"/>
</svg>
