<svg width="29" height="35" viewBox="0 0 29 35" fill="none" xmlns="http://www.w3.org/2000/svg">
<path d="M22.9114 17.557C22.9059 17.3999 22.8744 17.2424 22.8546 17.0858C22.822 16.829 22.7894 16.5721 22.7568 16.3153C22.6916 15.8016 22.6265 15.2879 22.5613 14.7742C22.4309 13.7469 22.302 12.7195 22.1657 11.693L21.757 8.61453C21.6215 7.59321 21.5302 6.55076 21.3227 5.54142C21.3169 5.513 21.3024 5.49124 21.285 5.47253C21.3312 5.38153 21.3042 5.25396 21.175 5.26123C20.7102 5.28741 20.2549 5.39115 19.798 5.47757C19.3887 5.55501 18.9794 5.63308 18.5704 5.71205C17.8211 5.85668 17.0729 6.00652 16.3255 6.16037C14.8608 6.46187 13.3997 6.77976 11.9441 7.12272C11.0424 7.33517 10.1453 7.55968 9.2512 7.80129C9.15131 7.74943 8.99896 7.79029 9.00798 7.92643C9.04433 8.47453 9.11499 9.02231 9.19337 9.56902C9.16726 9.62198 9.1781 9.68909 9.21667 9.72873C9.27488 10.1276 9.33543 10.526 9.38993 10.9231C9.53358 11.9697 9.67721 13.0163 9.82085 14.0629C9.96151 15.0878 10.1091 16.1118 10.2557 17.1359C10.329 17.6479 10.4023 18.1599 10.4756 18.6719C10.5122 18.9279 10.5489 19.1839 10.5855 19.4399C10.5997 19.5393 10.6103 19.6412 10.624 19.7424C10.4077 19.3849 9.951 19.1793 9.55701 19.0996C8.97037 18.981 8.35167 19.0815 7.7919 19.2749C7.20306 19.4783 6.67308 19.8275 6.17587 20.1973C5.67879 20.567 5.15252 20.9718 4.80533 21.4932C4.50352 21.9464 4.35663 22.5285 4.53912 23.0565C4.71453 23.5641 5.18642 23.8679 5.69976 23.9556C6.34014 24.065 7.01505 23.8607 7.62098 23.6696C8.19068 23.4901 8.74913 23.2628 9.25798 22.9473C10.0877 22.433 11.3273 21.2416 10.895 20.1529C10.9005 20.143 10.9084 20.1346 10.9104 20.1228C10.9476 19.8986 10.8921 19.6721 10.8636 19.4477C10.831 19.1908 10.7984 18.934 10.7658 18.6771C10.7007 18.1635 10.6355 17.6498 10.5703 17.1361C10.44 16.1088 10.311 15.0814 10.1747 14.0548L9.76607 10.9764C9.70931 10.5488 9.65954 10.1175 9.60654 9.68649C12.6285 8.92081 15.6502 8.1539 18.672 7.38768C19.4897 7.18035 20.3075 6.97307 21.1252 6.76589C21.2042 7.36586 21.2991 7.96484 21.3809 8.56128C21.5246 9.60785 21.6682 10.6544 21.8118 11.701C21.9525 12.726 22.1001 13.7499 22.2467 14.774C22.32 15.286 22.3933 15.798 22.4665 16.31C22.4996 16.5408 22.5326 16.7717 22.5657 17.0025C22.3327 16.6957 21.9165 16.5158 21.5538 16.4425C20.9672 16.3239 20.3485 16.4244 19.7887 16.6178C19.1999 16.8212 18.6699 17.1703 18.1727 17.5401C17.6756 17.9098 17.1493 18.3147 16.8021 18.8361C16.5003 19.2893 16.3534 19.8714 16.5359 20.3994C16.7113 20.907 17.1832 21.2108 17.6966 21.2985C18.3369 21.4078 19.0119 21.2036 19.6178 21.0125C20.1875 20.833 20.7459 20.6057 21.2548 20.2902C22.069 19.7855 23.275 18.6289 22.9114 17.557ZM10.3015 21.5545C10.0188 21.9693 9.64124 22.3154 9.22306 22.5908C8.41762 23.121 7.42931 23.4726 6.47918 23.6254C5.95834 23.7093 5.31569 23.6639 4.97382 23.2011C4.66006 22.7764 4.76874 22.1735 5.02629 21.7521C5.30136 21.302 5.72794 20.9684 6.14179 20.6528C6.56404 20.3308 7.00659 20.0398 7.49451 19.8268C8.0089 19.6023 8.56068 19.4426 9.1268 19.4546C9.39628 19.4603 9.66342 19.5065 9.90784 19.6238C10.1143 19.7229 10.2776 19.8768 10.4633 20.0024C10.4666 20.0314 10.475 20.0615 10.4965 20.0926C10.8081 20.5458 10.5801 21.1455 10.3015 21.5545ZM11.9312 8.82844C11.1456 9.02761 10.3601 9.22673 9.57452 9.42575C9.51331 8.94733 9.44223 8.47078 9.34911 8.00049C10.8962 7.69234 12.4357 7.34738 13.9783 7.01657C15.4241 6.70653 16.8741 6.41763 18.3257 6.13566C18.7838 6.04668 19.2422 5.95888 19.7007 5.87192C20.1339 5.78976 20.5768 5.72461 21.0029 5.60745C21.0237 5.90695 21.0554 6.20626 21.0918 6.50547C18.0381 7.27915 14.9847 8.05417 11.9312 8.82844ZM22.2983 18.8973C22.0156 19.3122 21.638 19.6583 21.2199 19.9336C20.4144 20.4639 19.4261 20.8155 18.476 20.9683C17.9551 21.0521 17.3125 21.0068 16.9706 20.544C16.6569 20.1193 16.7655 19.5164 17.0231 19.095C17.2982 18.6449 17.7248 18.3113 18.1386 17.9957C18.5608 17.6737 19.0034 17.3827 19.4913 17.1697C20.0057 16.9452 20.5575 16.7855 21.1236 16.7975C21.3931 16.8032 21.6602 16.8494 21.9047 16.9667C22.1111 17.0658 22.2744 17.2197 22.4601 17.3453C22.4634 17.3743 22.4718 17.4044 22.4933 17.4355C22.8049 17.8887 22.5769 18.4884 22.2983 18.8973Z" fill="#c46380"/>
</svg>
