<svg width="34" height="39" viewBox="0 0 34 39" fill="none" xmlns="http://www.w3.org/2000/svg">
<g clip-path="url(#clip0_65_343)">
<path d="M25.1584 20.7671C25.1802 20.6114 25.1765 20.4507 25.1841 20.2932C25.1965 20.0345 25.2089 19.7759 25.2213 19.5173C25.2461 19.0001 25.271 18.4829 25.2958 17.9657C25.3455 16.9314 25.3965 15.8971 25.4402 14.8625L25.5713 11.7598C25.6148 10.7305 25.7055 9.68797 25.6761 8.65795C25.6753 8.62894 25.6648 8.605 25.6509 8.58355C25.7122 8.50195 25.7077 8.37163 25.5792 8.3564C25.1169 8.30164 24.6505 8.32488 24.1856 8.33083C23.769 8.33615 23.3524 8.34211 22.9359 8.34899C22.1729 8.36159 21.41 8.37948 20.6472 8.40148C19.1525 8.44457 17.6584 8.50443 16.1654 8.58994C15.2405 8.6429 14.318 8.70853 13.3956 8.79154C13.3062 8.72315 13.1491 8.73699 13.1344 8.87264C13.0752 9.41874 13.0498 9.97047 13.0323 10.5225C12.9974 10.5701 12.9964 10.6381 13.0276 10.6838C13.0158 11.0867 13.0064 11.4896 12.9912 11.8902C12.9513 12.9458 12.9114 14.0014 12.8715 15.0571C12.8324 16.0909 12.8003 17.1249 12.7672 18.1589C12.7506 18.6759 12.7341 19.1928 12.7175 19.7098C12.7092 19.9683 12.7009 20.2267 12.6927 20.4852C12.6894 20.5856 12.6822 20.6879 12.6782 20.7899C12.5271 20.4003 12.1129 20.1186 11.7387 19.9719C11.1815 19.7535 10.5547 19.7452 9.96993 19.8386C9.35476 19.9369 8.77228 20.1889 8.2185 20.4669C7.66488 20.7449 7.07641 21.0524 6.64411 21.5057C6.26832 21.8998 6.02278 22.4476 6.111 22.9993C6.19578 23.5296 6.60788 23.9106 7.09825 24.0859C7.70999 24.3046 8.41009 24.2204 9.03996 24.1372C9.63216 24.0591 10.2215 23.9321 10.7774 23.7096C11.6837 23.3468 13.111 22.3883 12.8739 21.2411C12.8811 21.2323 12.8903 21.2254 12.8942 21.2141C12.9698 20.9998 12.9544 20.767 12.9652 20.5411C12.9776 20.2825 12.99 20.0239 13.0025 19.7653C13.0273 19.2481 13.0521 18.7309 13.077 18.2137C13.1266 17.1793 13.1777 16.1451 13.2214 15.1105L13.3524 12.0078C13.3706 11.5769 13.3964 11.1435 13.4189 10.7098C16.5278 10.4794 19.6366 10.2478 22.7455 10.0169C23.5868 9.9544 24.4281 9.89199 25.2694 9.82966C25.2432 10.4342 25.2328 11.0406 25.2101 11.6422C25.1702 12.6978 25.1302 13.7535 25.0903 14.8091C25.0512 15.8429 25.0191 16.877 24.986 17.911C24.9695 18.4279 24.9529 18.9449 24.9364 19.4618C24.9289 19.6949 24.9214 19.9279 24.914 20.161C24.7377 19.8185 24.359 19.5692 24.0145 19.4341C23.4573 19.2157 22.8305 19.2074 22.2457 19.3008C21.6305 19.3991 21.0481 19.6511 20.4943 19.9292C19.9406 20.2071 19.3522 20.5146 18.9199 20.968C18.5441 21.362 18.2986 21.9099 18.3868 22.4615C18.4716 22.9918 18.8836 23.3728 19.374 23.5481C19.9857 23.7668 20.6859 23.6826 21.3157 23.5995C21.9079 23.5213 22.4973 23.3943 23.0531 23.1718C23.9425 22.8158 25.3307 21.8857 25.1584 20.7671ZM12.0465 22.5186C11.6962 22.8782 11.2643 23.1536 10.8048 23.3523C9.91962 23.735 8.88535 23.9099 7.92309 23.8958C7.39562 23.8881 6.77055 23.7321 6.51405 23.217C6.27865 22.7444 6.49018 22.1694 6.81686 21.799C7.16578 21.4034 7.64371 21.1488 8.10599 20.9097C8.57765 20.6658 9.06395 20.4558 9.58139 20.3307C10.1269 20.1987 10.698 20.137 11.2535 20.247C11.5179 20.2993 11.773 20.3911 11.9934 20.5489C12.1795 20.6823 12.3137 20.8622 12.4749 21.0181C12.473 21.0472 12.4762 21.0783 12.4918 21.1127C12.7202 21.613 12.3918 22.1642 12.0465 22.5186ZM15.857 10.2676C15.0489 10.3276 14.2407 10.3876 13.4325 10.4475C13.4551 9.96566 13.4677 9.48401 13.4575 9.00469C15.0346 8.96932 16.6106 8.8964 18.1871 8.83793C19.6649 8.78316 21.143 8.74992 22.6214 8.72379C23.088 8.71555 23.5547 8.70851 24.0214 8.70233C24.4623 8.69651 24.9098 8.7091 25.3497 8.66755C25.3183 8.96612 25.2976 9.2664 25.2816 9.5674C22.1401 9.80014 18.9986 10.0343 15.857 10.2676ZM24.3223 21.9808C23.972 22.3404 23.5401 22.6159 23.0805 22.8145C22.1954 23.1972 21.1611 23.3722 20.1989 23.358C19.6714 23.3503 19.0463 23.1943 18.7898 22.6793C18.5544 22.2066 18.7659 21.6316 19.0926 21.2612C19.4415 20.8656 19.9195 20.611 20.3818 20.3719C20.8534 20.128 21.3397 19.9181 21.8572 19.7929C22.4027 19.6609 22.9738 19.5993 23.5293 19.7092C23.7937 19.7615 24.0488 19.8533 24.2692 20.0112C24.4553 20.1445 24.5894 20.3244 24.7506 20.4803C24.7488 20.5095 24.7519 20.5405 24.7676 20.5749C24.996 21.0753 24.6675 21.6264 24.3223 21.9808Z" fill="#c46380"/>
</g>
<defs>
<clipPath id="clip0_65_343">
<rect width="26.118" height="32.6475" fill="white" transform="translate(8.44983) rotate(15)"/>
</clipPath>
</defs>
</svg>
