<svg width="73" height="80" viewBox="0 0 73 80" fill="none" xmlns="http://www.w3.org/2000/svg">
<g clip-path="url(#clip0_65_336)">
<path d="M52.3136 45.0643C52.3941 44.7619 52.4255 44.4435 52.4783 44.1339C52.5651 43.6258 52.6519 43.1177 52.7387 42.6096C52.9123 41.5933 53.0858 40.5771 53.2594 39.5609C53.6064 37.5286 53.9562 35.4969 54.2916 33.4627L55.2973 27.3621C55.6309 25.3382 56.0612 23.2997 56.2509 21.2569C56.2563 21.1993 56.2413 21.1495 56.219 21.1038C56.3598 20.9572 56.3823 20.6986 56.132 20.6376C55.2315 20.4181 54.304 20.3518 53.3838 20.2517C52.5592 20.1619 51.7345 20.0735 50.9095 19.9868C49.3986 19.8281 47.8865 19.6798 46.3738 19.5397C43.4092 19.2652 40.4419 19.0239 37.4707 18.8336C35.63 18.7157 33.791 18.6234 31.948 18.5655C31.7878 18.4088 31.4739 18.3984 31.4122 18.6629C31.1638 19.7279 30.9809 20.8123 30.8134 21.8991C30.733 21.9848 30.7147 22.1189 30.7652 22.2168C30.645 23.0102 30.5294 23.8042 30.4031 24.5922C30.0701 26.6689 29.7372 28.7456 29.4043 30.8223C29.0782 32.8562 28.7659 34.8921 28.4516 36.9277C28.2945 37.9454 28.1374 38.9631 27.9802 39.9808C27.9017 40.4896 27.8231 40.9985 27.7445 41.5074C27.714 41.705 27.6751 41.9053 27.6426 42.106C27.4378 41.2997 26.687 40.6433 25.9827 40.2633C24.934 39.6974 23.6973 39.5303 22.519 39.5741C21.2796 39.6203 20.0677 39.9782 18.9064 40.3945C17.7453 40.8106 16.5083 41.2767 15.5448 42.0686C14.7072 42.757 14.0901 43.7806 14.1317 44.8921C14.1717 45.9606 14.8944 46.8127 15.8214 47.2772C16.9778 47.8567 18.3817 47.8587 19.6466 47.846C20.8358 47.8341 22.0312 47.7249 23.1832 47.4189C25.0617 46.9201 28.1133 45.3691 27.9209 43.0449C27.9371 43.0292 27.957 43.0177 27.9675 42.9965C28.1685 42.5911 28.1939 42.1273 28.2697 41.6834C28.3565 41.1753 28.4433 40.6672 28.5301 40.1591C28.7036 39.1429 28.8772 38.1266 29.0507 37.1104C29.3978 35.0781 29.7476 33.0464 30.083 31.0122L31.0886 24.9116C31.2283 24.0643 31.3835 23.2139 31.5323 22.3623C37.7322 22.6552 43.9321 22.9456 50.132 23.2373C51.8097 23.3163 53.4874 23.3954 55.1652 23.4747C54.968 24.6633 54.8014 25.8592 54.6117 27.0427C54.2788 29.1194 53.9458 31.1961 53.6129 33.2728C53.2869 35.3066 52.9745 37.3425 52.6603 39.3782C52.5031 40.3959 52.346 41.4136 52.1889 42.4313C52.118 42.8901 52.0472 43.3489 51.9764 43.8077C51.7104 43.0884 51.0219 42.5046 50.3736 42.1547C49.3249 41.5888 48.0882 41.4217 46.9099 41.4656C45.6704 41.5117 44.4586 41.8697 43.2972 42.2859C42.1361 42.702 40.8991 43.1681 39.9356 43.9601C39.0981 44.6485 38.481 45.6721 38.5225 46.7836C38.5625 47.852 39.2853 48.7041 40.2123 49.1687C41.3686 49.7481 42.7726 49.7501 44.0374 49.7375C45.2266 49.7256 46.422 49.6163 47.5741 49.3104C49.4175 48.8208 52.3849 47.3166 52.3136 45.0643ZM25.9781 45.3706C25.1993 45.997 24.2795 46.4374 23.3234 46.7194C21.4819 47.2627 19.3957 47.3595 17.4973 47.1001C16.4567 46.9579 15.2589 46.4991 14.8759 45.4195C14.5244 44.4286 15.0808 43.3432 15.8156 42.6898C16.6004 41.9919 17.6063 41.6037 18.5774 41.2425C19.5683 40.8738 20.5799 40.576 21.6327 40.4531C22.7426 40.3235 23.8862 40.3392 24.9576 40.6901C25.4675 40.8571 25.9496 41.0999 26.3472 41.465C26.683 41.7733 26.9048 42.1611 27.1858 42.5081C27.1752 42.5652 27.1739 42.6274 27.1966 42.6991C27.5276 43.7429 26.7458 44.7532 25.9781 45.3706ZM36.4574 22.0751C34.8458 21.9992 33.2341 21.9232 31.6224 21.8471C31.7831 20.9003 31.9239 19.9514 32.0191 19.0016C35.1445 19.3113 38.2768 19.5464 41.4067 19.8103C44.3404 20.0577 47.2696 20.3477 50.1979 20.6519C51.1221 20.7479 52.0461 20.8463 52.9699 20.9464C53.8427 21.041 54.724 21.1735 55.6035 21.1973C55.4696 21.7798 55.3565 22.3683 55.2525 22.9593C48.9875 22.6633 42.7225 22.37 36.4574 22.0751ZM50.369 47.262C49.5901 47.8884 48.6703 48.3288 47.7142 48.6109C45.8728 49.1542 43.7866 49.251 41.8882 48.9915C40.8475 48.8493 39.6497 48.3905 39.2668 47.3109C38.9153 46.3201 39.4717 45.2347 40.2065 44.5812C40.9912 43.8834 41.9971 43.4952 42.9683 43.1339C43.9592 42.7653 44.9708 42.4675 46.0236 42.3445C47.1335 42.215 48.277 42.2306 49.3484 42.5815C49.8584 42.7486 50.3404 42.9914 50.738 43.3565C51.0738 43.6648 51.2957 44.0525 51.5767 44.3996C51.566 44.4567 51.5647 44.5188 51.5875 44.5905C51.9185 45.6344 51.1367 46.6446 50.369 47.262Z" fill="#c46380"/>
</g>
<defs>
<clipPath id="clip0_65_336">
<rect width="52" height="65" fill="white" transform="translate(24.2891) rotate(21.9426)"/>
</clipPath>
</defs>
</svg>
