<svg width="93" height="116" viewBox="0 0 93 116" fill="none" xmlns="http://www.w3.org/2000/svg">
<path d="M44.45 63.1375C44.1704 63.1375 43.9841 63.3234 43.9841 63.6024L42.6794 80.3399C42.6794 80.6188 42.8658 80.8048 43.1454 80.8048C43.4249 80.8048 43.6113 80.6188 43.6113 80.3399L44.9159 63.6024C44.8227 63.4164 44.6364 63.2304 44.45 63.1375Z" fill="#1C62C3"/>
<path d="M37.4609 55.4196C37.2745 55.2337 36.995 55.2337 36.8086 55.4196L15.3757 76.7134C15.1894 76.8994 15.1894 77.1783 15.3757 77.3643C15.4689 77.4573 15.5621 77.4573 15.7485 77.4573C15.9349 77.4573 16.028 77.4573 16.1212 77.3643L37.4609 56.0705C37.5541 55.9775 37.5541 55.6056 37.4609 55.4196Z" fill="#1C62C3"/>
<path d="M2.98205 46.8649H22.5512C22.8307 46.8649 23.0171 46.6789 23.0171 46.4C23.0171 46.121 22.8307 45.9351 22.5512 45.9351H2.98205C2.70249 45.9351 2.51611 46.121 2.51611 46.4C2.51611 46.6789 2.70249 46.8649 2.98205 46.8649Z" fill="#1C62C3"/>
<path d="M34.2926 34.6838C34.3858 34.6838 34.5721 34.6838 34.6653 34.5908C34.8517 34.4048 34.8517 34.1259 34.6653 33.9399L20.8737 20.085C20.6874 19.899 20.4078 19.899 20.2214 20.085C20.0351 20.2709 20.0351 20.5499 20.2214 20.7359L34.013 34.4978C34.013 34.6838 34.1994 34.6838 34.2926 34.6838Z" fill="#1C62C3"/>
<path d="M16.2145 16.9235C16.3077 17.0164 16.4009 17.0164 16.5872 17.0164C16.7736 17.0164 16.8668 17.0164 16.96 16.9235C17.1464 16.7375 17.1464 16.4585 16.96 16.2726L16.1213 15.4357C15.9349 15.2497 15.6554 15.2497 15.469 15.4357C15.2826 15.6217 15.2826 15.9006 15.469 16.0866L16.2145 16.9235Z" fill="#1C62C3"/>
<path d="M46.9659 33.103V2.97555C46.9659 2.69659 46.7795 2.51062 46.5 2.51062C46.2204 2.51062 46.0341 2.69659 46.0341 2.97555V33.103C46.0341 33.382 46.2204 33.5679 46.5 33.5679C46.7795 33.5679 46.9659 33.382 46.9659 33.103Z" fill="#1C62C3"/>
<path d="M55.4459 37.4734C55.5391 37.5663 55.7255 37.6593 55.9119 37.6593C56.0982 37.6593 56.1914 37.5663 56.3778 37.4734L71.7535 22.1307C72.0331 21.8517 72.0331 21.4798 71.7535 21.2938C71.474 21.1078 71.1012 21.0148 70.9149 21.2938L55.4459 36.5435C55.2596 36.8225 55.2596 37.1944 55.4459 37.4734Z" fill="#1C62C3"/>
<path d="M73.0581 20.4569C73.2445 20.4569 73.3377 20.364 73.5241 20.271L75.3878 18.4112C75.6673 18.1323 75.6673 17.7603 75.3878 17.5744C75.1082 17.3884 74.7355 17.2954 74.5491 17.5744L72.6854 19.4341C72.4058 19.7131 72.4058 20.085 72.6854 20.271C72.7786 20.4569 72.8718 20.4569 73.0581 20.4569Z" fill="#1C62C3"/>
<path d="M90.0181 45.842H59.8257C59.5462 45.842 59.2666 46.121 59.2666 46.4C59.2666 46.6789 59.5462 46.9579 59.8257 46.9579H90.0181C90.2977 46.9579 90.5772 46.6789 90.5772 46.4C90.5772 46.121 90.2977 45.842 90.0181 45.842Z" fill="#1C62C3"/>
<path d="M56.2846 55.4196C56.0982 55.2337 55.7254 55.2337 55.5391 55.4196C55.3527 55.6056 55.3527 55.9775 55.5391 56.1635L73.8036 74.3888C73.8968 74.4818 74.0832 74.5747 74.1763 74.5747C74.2695 74.5747 74.4559 74.4818 74.5491 74.3888C74.7355 74.2028 74.7355 73.8309 74.5491 73.6449L56.2846 55.4196Z" fill="#1C62C3"/>
<path d="M52.2776 67.8798C52.1844 67.6008 51.998 67.5078 51.7185 67.5078C51.4389 67.6008 51.3457 67.7868 51.3457 68.0657L57.496 90.5683C57.5892 90.7543 57.7756 90.9403 57.9619 90.9403H58.0551C58.3347 90.8473 58.4279 90.6613 58.4279 90.3824L52.2776 67.8798Z" fill="#1C62C3"/>
<path d="M36.4359 65.5551C36.2495 65.4621 35.97 65.4621 35.7836 65.7411L24.4149 86.012C24.3217 86.198 24.3217 86.477 24.6012 86.6629C24.6944 86.6629 24.7876 86.7559 24.7876 86.7559C24.974 86.7559 25.0672 86.6629 25.1604 86.477L36.6223 66.206C36.8086 65.9271 36.7155 65.6481 36.4359 65.5551Z" fill="#1C62C3"/>
<path d="M25.1603 50.8633L5.96393 55.6056C5.68437 55.6986 5.59119 55.8845 5.59119 56.1635C5.68437 56.3495 5.87075 56.5354 6.05712 56.5354H6.1503L25.3467 51.7932C25.6263 51.7002 25.7194 51.5142 25.7194 51.2352C25.6263 50.9563 25.3467 50.7703 25.1603 50.8633Z" fill="#1C62C3"/>
<path d="M3.26155 56.2565L2.51606 56.4424C2.2365 56.5354 2.14331 56.7214 2.14331 57.0004C2.2365 57.1863 2.42287 57.3723 2.60924 57.3723H2.70243L3.44792 57.1863C3.72748 57.0933 3.82067 56.9074 3.82067 56.6284C3.72748 56.3495 3.44792 56.2565 3.26155 56.2565Z" fill="#1C62C3"/>
<path d="M17.7055 31.8011L26.9309 37.0084C27.0241 37.1013 27.1173 37.1014 27.2105 37.1014C27.3968 37.1014 27.5832 37.0084 27.6764 36.8224C27.8628 36.5434 27.7696 36.1715 27.49 36.0785L18.2646 30.8713C17.985 30.6853 17.6123 30.7783 17.5191 31.0573C17.3327 31.3362 17.4259 31.7082 17.7055 31.8011Z" fill="#1C62C3"/>
<path d="M6.7094 25.3852L13.7916 29.3836C13.8848 29.3836 13.9779 29.4765 13.9779 29.4765C14.1643 29.4765 14.2575 29.3836 14.3507 29.1976C14.4439 29.0116 14.4439 28.7327 14.1643 28.5467L7.08215 24.5483C6.89577 24.4553 6.61622 24.4553 6.42984 24.7343C6.33666 25.0132 6.42984 25.2922 6.7094 25.3852Z" fill="#1C62C3"/>
<path d="M39.7906 26.408C39.8837 26.594 40.0701 26.78 40.2565 26.78H40.3497C40.6292 26.687 40.7224 26.501 40.7224 26.2221L34.5721 3.81243C34.4789 3.53348 34.2926 3.44049 34.013 3.44049C33.7334 3.53348 33.6403 3.71945 33.6403 3.99841L39.7906 26.408Z" fill="#1C62C3"/>
<path d="M52.0912 27.5238C52.1844 27.5238 52.1844 27.5238 52.2776 27.5238C52.464 27.5238 52.6504 27.4308 52.7435 27.2449L61.2235 7.53184C61.3167 7.25288 61.2235 7.06691 60.9439 6.88094C60.6644 6.78795 60.478 6.88094 60.2916 7.1599L51.8117 26.8729C51.7185 27.1519 51.8117 27.4308 52.0912 27.5238Z" fill="#1C62C3"/>
<path d="M66.4419 41.5647C66.5351 41.7507 66.7215 41.9366 66.9078 41.9366H67.001L89.4589 35.7066C89.7385 35.6136 89.8317 35.4276 89.7385 35.1487C89.6453 34.8697 89.4589 34.7767 89.1794 34.8697L66.7215 41.0998C66.5351 41.0998 66.3487 41.3787 66.4419 41.5647Z" fill="#1C62C3"/>
<path d="M85.3587 68.9955L65.0441 57.4653C64.8577 57.3723 64.5782 57.3723 64.3918 57.6513C64.2986 57.8372 64.2986 58.1162 64.5782 58.3022L84.986 69.7394C85.0792 69.7394 85.1724 69.8324 85.1724 69.8324C85.3587 69.8324 85.4519 69.7394 85.5451 69.5535C85.7315 69.3675 85.6383 69.0885 85.3587 68.9955Z" fill="#1C62C3"/>
<path d="M51.532 54.1179C51.3457 53.8389 50.9729 53.8389 50.7866 54.0249C50.507 54.2108 50.507 54.5828 50.6934 54.7688L62.0621 69.4605C62.1553 69.6465 62.3417 69.6465 62.528 69.6465C62.6212 69.6465 62.8076 69.6465 62.9008 69.5535C63.1803 69.3676 63.1803 68.9956 62.994 68.8096L51.532 54.1179Z" fill="#1C62C3"/>
<path d="M66.5351 73.7378C66.3487 73.5518 66.0691 73.4589 65.8828 73.6448C65.6964 73.8308 65.6032 74.1098 65.7896 74.2957L69.4238 78.945C69.517 79.038 69.6102 79.131 69.7966 79.131C69.8898 79.131 69.983 79.131 70.0761 79.038C70.2625 78.852 70.3557 78.5731 70.1693 78.3871L66.5351 73.7378Z" fill="#1C62C3"/>
<path d="M47.7115 68.9956C48.0842 68.9956 48.3638 68.6237 48.3638 68.3447L47.8979 59.697C47.8979 59.3251 47.5251 59.0461 47.2456 59.0461C46.8728 59.0461 46.5933 59.4181 46.5933 59.697L47.0592 68.3447C47.0592 68.7167 47.3388 68.9956 47.7115 68.9956Z" fill="#1C62C3"/>
<path d="M48.4569 82.3856C48.7364 82.3856 48.9228 82.1066 48.9228 81.8276L48.5501 75.3186C48.5501 75.0397 48.2705 74.7607 47.991 74.8537C47.7114 74.8537 47.525 75.1326 47.525 75.4116L47.8978 81.9206C47.991 82.1996 48.1773 82.3856 48.4569 82.3856Z" fill="#1C62C3"/>
<path d="M48.6433 83.9664C48.3637 83.9664 48.1774 84.2453 48.1774 84.5243L48.4569 89.9175C48.4569 90.1964 48.7365 90.3824 48.9229 90.3824C49.2024 90.3824 49.3888 90.1034 49.3888 89.8245L49.1092 84.4313C49.1092 84.1523 48.9229 83.8734 48.6433 83.9664Z" fill="#1C62C3"/>
<path d="M31.8698 69.1816C31.9629 69.2746 32.0561 69.2746 32.1493 69.2746C32.3357 69.2746 32.5221 69.1816 32.6153 68.9956L41.7475 54.7687C41.9339 54.4898 41.8407 54.2108 41.5611 54.0249C41.2816 53.8389 40.9088 53.9319 40.8157 54.2108L31.6834 68.4377C31.497 68.7166 31.5902 68.9956 31.8698 69.1816Z" fill="#1C62C3"/>
<path d="M26.3718 77.5504C26.0922 77.3644 25.7194 77.4574 25.6263 77.7363L22.4579 82.6646C22.2716 82.9436 22.3647 83.3155 22.6443 83.4085C22.7375 83.5015 22.8307 83.5015 22.9239 83.5015C23.1102 83.5015 23.2966 83.4085 23.3898 83.2225L26.5581 78.2943C26.7445 78.0153 26.6513 77.7363 26.3718 77.5504Z" fill="#1C62C3"/>
<path d="M32.7084 51.7002C32.6152 51.4212 32.2425 51.2353 31.9629 51.3283L5.68434 61.5567C5.40478 61.6497 5.21841 62.0217 5.31159 62.3006C5.40478 62.5796 5.59115 62.6726 5.87071 62.6726C5.9639 62.6726 6.05709 62.6726 6.05709 62.6726L32.3356 52.4441C32.7084 52.3511 32.8016 51.9792 32.7084 51.7002Z" fill="#1C62C3"/>
<path d="M4.19345 35.8926L30.3788 42.7735C30.472 42.7735 30.472 42.7735 30.5652 42.7735C30.8447 42.7735 31.0311 42.5876 31.1243 42.4016C31.2175 42.1226 31.0311 41.8437 30.7516 41.7507L4.56619 34.7768C4.28663 34.6838 4.00707 34.8697 3.91389 35.1487C3.72752 35.5206 3.91389 35.7996 4.19345 35.8926Z" fill="#1C62C3"/>
<path d="M36.9951 35.7066C37.0882 35.7996 37.2746 35.8926 37.461 35.8926C37.5542 35.8926 37.7405 35.8926 37.8337 35.7996C38.1133 35.6136 38.1133 35.2417 37.9269 35.0557L19.476 12.3671C19.2896 12.0882 18.9169 12.0882 18.7305 12.2741C18.451 12.4601 18.451 12.8321 18.6373 13.018L36.9951 35.7066Z" fill="#1C62C3"/>
<path d="M42.3998 11.2513C42.0271 11.2513 41.7475 11.6232 41.8407 11.9952L43.8908 36.9154C43.8908 37.2874 44.1703 37.4733 44.5431 37.4733C44.5431 37.4733 44.5431 37.4733 44.6363 37.4733C45.009 37.4733 45.2886 37.1014 45.1954 36.7294L43.1453 11.8092C43.1453 11.5302 42.7726 11.2513 42.3998 11.2513Z" fill="#1C62C3"/>
<path d="M42.2134 9.01963C42.5862 9.01963 42.8657 8.64768 42.8657 8.27574L42.6794 5.8581C42.6794 5.48616 42.3066 5.2072 41.9339 5.30019C41.5611 5.30019 41.2816 5.67213 41.3748 6.04408L41.5611 8.46171C41.5611 8.74067 41.8407 9.01963 42.2134 9.01963Z" fill="#1C62C3"/>
<path d="M54.6072 33.7539C54.7004 33.8469 54.7936 33.8469 54.8868 33.8469C55.0732 33.8469 55.1664 33.7539 55.2596 33.6609L70.4489 10.1354C70.6353 9.94947 70.5421 9.67051 70.3557 9.48454C70.1694 9.39155 69.8898 9.39155 69.7034 9.57753L54.5141 33.103C54.3277 33.3819 54.4209 33.6609 54.6072 33.7539Z" fill="#1C62C3"/>
<path d="M55.0731 43.1455C55.1663 43.3315 55.3527 43.4245 55.5391 43.4245C55.6322 43.4245 55.6322 43.4245 55.7254 43.4245L87.3156 31.1503C87.5952 31.0573 87.6884 30.7784 87.5952 30.5924C87.502 30.3134 87.2224 30.2204 87.0361 30.3134L55.3527 42.4946C55.1663 42.5876 54.9799 42.8665 55.0731 43.1455Z" fill="#1C62C3"/>
<path d="M55.1663 48.6317C55.0731 49.0036 55.2595 49.3756 55.6323 49.4686L76.1333 54.8618C76.2264 54.8618 76.2264 54.8618 76.3196 54.8618C76.5992 54.8618 76.8787 54.6758 76.9719 54.3968C77.0651 54.0249 76.8787 53.6529 76.506 53.5599L56.005 48.1668C55.6323 48.0738 55.2595 48.2597 55.1663 48.6317Z" fill="#1C62C3"/>
<path d="M87.3156 56.4425L82.004 55.0477C81.6313 54.9548 81.2585 55.1407 81.1653 55.5127C81.0722 55.8846 81.2585 56.2566 81.6313 56.3495L86.9429 57.7443C87.0361 57.7443 87.0361 57.7443 87.1293 57.7443C87.4088 57.7443 87.6884 57.5584 87.7816 57.2794C87.8748 56.9075 87.6884 56.5355 87.3156 56.4425Z" fill="#1C62C3"/>
<path d="M41.7476 63.5094C41.468 63.4164 41.2816 63.6024 41.1885 63.8814L37.461 77.7363C37.3678 78.0152 37.5542 78.2012 37.8338 78.2942H37.9269C38.1133 78.2942 38.2997 78.2012 38.3929 77.9222L42.1203 64.0673C42.2135 63.8814 42.0271 63.6024 41.7476 63.5094Z" fill="#1C62C3"/>
<path d="M37.0882 80.7118C36.8086 80.6188 36.6223 80.8048 36.5291 81.0837L34.9449 87.0349C34.8517 87.3138 35.0381 87.4998 35.3176 87.5928H35.4108C35.5972 87.5928 35.7836 87.4998 35.8768 87.2208L37.4609 81.2697C37.5541 81.0838 37.3677 80.8048 37.0882 80.7118Z" fill="#1C62C3"/>
<path d="M17.7986 65.6481C17.6122 65.4621 17.3327 65.3691 17.1463 65.5551L7.92085 71.5992C7.73448 71.7852 7.64129 72.0641 7.82766 72.2501C7.92085 72.3431 8.10722 72.4361 8.20041 72.4361C8.2936 72.4361 8.38678 72.4361 8.47997 72.3431L17.7054 66.299C17.8918 66.206 17.985 65.927 17.7986 65.6481Z" fill="#1C62C3"/>
<path d="M26.1853 46.9579H31.4038C31.7765 46.9579 31.9629 46.6789 31.9629 46.4C31.9629 46.121 31.6833 45.842 31.4038 45.842H26.1853C25.8126 45.842 25.6262 46.121 25.6262 46.4C25.6262 46.6789 25.8126 46.9579 26.1853 46.9579Z" fill="#1C62C3"/>
</svg>
