<svg width="144" height="145" viewBox="0 0 144 145" fill="none" xmlns="http://www.w3.org/2000/svg">
<path d="M78.4179 86.1302C76.3682 88.3207 74.4456 90.5071 72.3575 92.6069C71.4719 93.4731 70.5161 94.2644 69.4999 94.9729C68.5328 95.7421 67.3472 96.186 66.1127 96.2409C64.8781 96.2959 63.6578 95.9592 62.6261 95.2789C59.6856 93.3656 56.9031 91.2198 54.3052 88.8623C52.1429 87.002 50.4003 84.7038 49.1925 82.1198C48.2764 80.0985 47.4609 77.9111 48.2746 75.7828C48.9619 74.0762 49.9608 72.5123 51.2203 71.1712C54.9577 67.1771 58.8407 63.3055 62.6073 59.3387C66.9824 54.7362 71.2914 50.0581 75.6301 45.4214C75.9578 44.9861 76.1363 44.4566 76.1389 43.9117C76.1305 42.9242 76.4655 41.9644 77.0865 41.1966C77.7076 40.4287 78.5762 39.9005 79.5437 39.7023C79.9161 39.6262 80.4659 39.5655 80.6923 39.7773C81.5101 40.5426 82.2866 40.064 83.129 39.8662C84.3686 39.5321 85.6656 39.4695 86.9316 39.6827C88.1975 39.8958 89.4026 40.3798 90.4643 41.1013C93.1567 42.9222 94.9873 42.8685 97.5315 40.8667C98.5658 40.0541 99.5631 39.1932 100.604 38.3733C101.645 37.5535 102.834 37.3513 103.718 37.9728C104.249 38.3419 104.641 38.8792 104.829 39.498C105.018 40.1167 104.993 40.781 104.758 41.3838C103.98 42.8942 103.064 44.3292 102.021 45.6701C100.657 47.4346 100.556 47.9969 101.535 49.9949C102.713 52.4674 103.856 54.9057 103.385 57.7796C103.361 58.1729 103.284 58.5611 103.155 58.9334C102.998 59.2722 102.926 59.6439 102.945 60.0166C102.963 60.3893 103.072 60.752 103.261 61.0736C103.94 62.5721 102.938 65.1807 101.407 66.1867C100.399 66.8994 99.1583 67.2059 97.9337 67.0449C97.7356 67.0232 97.5352 67.0409 97.344 67.097C97.1528 67.1532 96.9746 67.2466 96.8197 67.3719C90.7225 73.5952 84.6614 79.8384 78.5861 86.0822L78.4179 86.1302ZM95.6617 66.5897L94.7237 66.0407C93.151 65.186 91.627 64.2446 90.1587 63.2208C86.4363 60.1857 83.1257 56.6781 80.3106 52.7867C79.0739 50.9877 77.9864 49.0906 77.0588 47.1144C76.6592 46.3707 76.3833 46.3728 75.8504 46.9423C74.1832 48.724 72.5818 50.5671 70.9069 52.3278C70.7863 52.4152 70.6867 52.5285 70.6155 52.6594C70.5443 52.7902 70.5032 52.9353 70.4952 53.0841C70.4873 53.2329 70.5127 53.3815 70.5696 53.5192C70.6265 53.6569 70.7134 53.7802 70.824 53.8799C71.4585 54.6654 72.171 55.4554 72.8206 56.2687C73.0291 56.5752 73.2125 56.8979 73.3692 57.2339L73.0853 57.4202C72.8005 57.1537 72.523 56.8941 72.2383 56.6276C71.5559 55.8932 70.9666 55.1912 70.3276 54.4836C69.8424 53.9338 69.4365 53.8553 68.8776 54.4964C67.8009 55.7349 66.6366 56.8914 65.5229 58.0816C64.8396 58.8118 64.8492 59.3138 65.5297 59.9916C65.9498 60.4848 66.3249 61.0146 66.6506 61.5746L66.3188 61.812C65.8734 61.3952 65.4207 60.9716 64.9753 60.5548C64.293 59.8204 63.7714 59.8802 63.1096 60.6168C62.0437 61.7558 60.9413 62.8608 59.8239 63.9379C58.5283 65.1907 58.545 65.4802 59.7674 66.9254C60.0313 67.2547 60.2765 67.5985 60.502 67.9552C60.3471 67.9958 60.1852 68.0019 60.0277 67.9729C59.8702 67.9439 59.7211 67.8805 59.5908 67.7873C58.9666 67.3128 58.3128 66.3723 57.7703 66.4399C57.2278 66.5074 56.4425 67.3612 55.9041 67.9805C53.9689 70.2097 52.0915 72.4794 50.2001 74.7496C49.715 75.268 49.8202 75.6678 50.5396 76.026C51.5655 76.5606 52.5485 77.1737 53.48 77.8598C53.8525 78.2018 54.1793 78.5905 54.4523 79.0161L54.1995 79.2863L49.3431 76.4265C49.2987 77.2204 49.1455 77.7207 49.2653 78.1342C49.5819 79.6152 50.0762 81.0527 50.7376 82.4151C53.762 87.3448 57.996 91.4199 63.0378 94.2535C63.9466 94.8215 65.005 95.1034 66.0759 95.0628C67.1468 95.0222 68.1808 94.6609 69.044 94.0258C70.1206 93.2164 71.1097 92.2968 71.9951 91.2818C75.4552 87.6719 78.8754 83.9288 82.3852 80.3243C86.4343 76.1289 90.5491 71.9949 94.6274 67.8268C94.9836 67.4753 95.2741 67.0624 95.6617 66.5897ZM89.9215 54.3708C91.3701 55.3839 92.4534 56.2606 93.6582 56.9635C95.7173 58.1781 97.8287 59.3366 99.9925 60.4392C100.23 60.5097 100.482 60.5184 100.724 60.4645C100.966 60.4107 101.191 60.2961 101.376 60.1315C101.87 59.2685 102.21 58.3259 102.38 57.346C102.849 54.6208 101.632 52.291 100.43 49.9608C100.048 49.3249 99.8644 48.5899 99.9016 47.8492C99.9387 47.1084 100.195 46.3955 100.639 45.8009C101.205 44.9614 101.987 44.2138 102.567 43.3597C103.133 42.643 103.57 41.8338 103.86 40.9679C103.911 40.6311 103.894 40.2875 103.81 39.9573C103.726 39.6271 103.577 39.3171 103.372 39.0456C103.187 38.8041 102.214 38.9071 101.769 39.1624C100.819 39.7237 99.9326 40.3866 99.1253 41.1392C96.3182 43.744 93.3124 44.6292 89.9203 41.9755C87.8428 40.3465 85.3556 40.4432 82.93 41.118C81.9627 41.3907 81.516 41.9998 81.9529 43.0112C82.2204 43.8451 82.5841 44.6451 83.0367 45.3948C85.334 48.5306 87.7339 51.5568 89.9215 54.3708ZM102.36 61.4219C102.13 61.4399 101.904 61.4976 101.693 61.5926C100.801 62.2094 100.007 61.9316 99.17 61.45C97.7918 60.6397 96.3134 60.0095 94.9894 59.1267C93.0132 57.936 91.1531 56.5623 89.4338 55.0237C87.5106 53.0566 85.7421 50.9439 84.1441 48.7045C82.5371 46.5434 80.7477 44.4308 80.7345 41.4739C80.7352 41.2829 79.936 40.8637 79.5918 40.9388C78.8237 41.1598 78.1653 41.6586 77.7446 42.3382C77.3239 43.0177 77.1709 43.8295 77.3154 44.6155C77.7459 46.9858 78.7608 49.2112 80.2684 51.0901C83.3579 55.1666 86.8659 58.9081 90.7351 62.2536C92.759 63.9542 95.1405 65.1762 97.7023 65.8286C100.234 66.4308 102.951 63.8926 102.36 61.4219Z" fill="#1C62C3"/>
<path d="M56.7078 81.7429C58.4902 81.3017 64.7742 89.017 64.2854 90.9152L56.7078 81.7429Z" fill="#1C62C3"/>
</svg>
