<svg width="61" height="79" viewBox="0 0 61 79" fill="none" xmlns="http://www.w3.org/2000/svg">
<path d="M45.7821 17.4358L49.2002 17.4867C49.7907 17.4789 50.2052 17.7069 50.0954 18.4363C50.0778 18.5754 50.0797 18.7165 50.1009 18.8551C50.5049 21.796 50.9353 24.7365 51.3062 27.6846C51.7741 31.4487 52.1957 35.2272 52.6372 38.9985C52.8243 40.603 53.0513 42.207 53.1719 43.7987C53.2357 44.6038 53.1861 45.4142 53.0246 46.2043C52.9569 46.5484 52.7991 46.8665 52.5685 47.1239C52.3378 47.3813 52.0432 47.5681 51.7168 47.6638C49.3196 48.5403 46.9846 49.6082 44.5877 50.5053C42.0132 51.453 39.2513 51.7255 36.5489 51.2985C32.3534 50.6673 30.7743 47.6802 31.6956 43.5887C32.2535 41.1227 33.8696 39.3913 35.7888 37.9992C38.7927 35.8305 38.3774 36.5433 37.9127 33.0195C37.448 29.4958 36.8945 25.7809 36.3622 22.1687C36.2814 21.612 36.1429 21.0658 35.9491 20.5397C35.6052 19.624 35.9301 19.1046 36.7968 18.9077C38.2852 18.5584 39.7799 18.1815 41.2831 17.9418C42.6209 17.7455 43.9799 17.6451 45.7821 17.4358ZM51.2468 35.7273L51.4458 35.7247C50.7736 31.565 50.0682 27.4057 49.4422 23.2316C49.3037 22.2926 48.9157 22.0574 48.0458 22.0071C45.9205 21.8704 43.9281 22.7484 41.8244 22.7419C40.8425 22.7792 39.864 22.8839 38.8956 23.0554C37.5375 23.2245 37.4137 23.3978 37.6382 24.8164C38.1891 28.3322 38.7469 31.8685 39.3446 35.418C39.4296 35.7383 39.4087 36.0787 39.2853 36.3852C39.1619 36.6917 38.9431 36.9466 38.6636 37.1095C37.7366 37.7605 36.8367 38.4523 35.9233 39.1306C35.437 39.4941 35.3822 39.8657 35.8331 40.3405C38.2824 42.8971 38.9873 46.0125 38.4692 49.4806C38.3289 50.4165 38.6172 50.6393 39.4991 50.5864C42.0495 50.3951 44.5531 49.7799 46.9137 48.7644C47.7783 48.4096 48.053 48.1038 47.6946 47.099C46.8124 44.6246 47.6157 41.139 49.803 39.9494C51.6016 38.971 51.5197 37.7977 51.2802 36.2488C51.2581 36.0843 51.2558 35.9058 51.2469 35.7342L51.2468 35.7273ZM37.6355 46.6622C37.5022 44.5646 36.6717 42.5786 35.285 41.0413C34.7667 40.4851 34.335 40.4564 34.0322 41.1472C33.3872 42.3671 32.8917 43.6655 32.5572 45.0126C32.1035 47.8343 33.4618 49.6843 36.1383 50.3562C36.8973 50.5453 37.3325 50.3404 37.4076 49.4947C37.488 48.5528 37.5618 47.6109 37.6355 46.6622ZM49.1838 47.8072C49.6533 47.5377 50.1402 47.3018 50.6409 47.1012C51.0982 47.0062 51.5021 46.7316 51.7678 46.335C52.0334 45.9385 52.1403 45.4507 52.066 44.974C51.9815 43.6016 51.8829 42.1744 51.7781 40.7748C51.7136 39.9104 51.2292 39.9099 50.7912 40.4102C50.0695 41.1331 49.4645 41.9712 48.9992 42.8925C48.3563 44.4531 48.0201 46.1264 49.1771 47.8073L49.1838 47.8072ZM49.3751 21.1723C49.3002 20.4122 49.1838 19.6571 49.0267 18.9106C48.9708 18.6984 48.6097 18.4903 48.3569 18.4456C48.1042 18.4009 47.6952 18.5848 47.6965 18.6878C47.6084 19.3755 47.6492 20.0745 47.8167 20.7465C47.8932 21.0065 48.6695 21.003 49.3751 21.1723ZM44.9562 18.209C45.1698 19.305 45.2526 20.0388 45.4608 20.7296C45.669 21.4205 46.3575 21.2946 46.4653 20.9224C46.6562 20.1862 46.671 19.4129 46.5085 18.6692C46.4725 18.4568 45.6822 18.4055 44.9629 18.209L44.9562 18.209ZM44.5354 20.0002C44.3108 19.5374 44.045 19.0971 43.7416 18.6853C43.6607 18.5902 42.9806 18.8464 42.9881 18.915C43.0355 19.6972 43.1435 20.4743 43.3109 21.2388C43.3121 21.3281 44.0166 21.4149 44.1012 21.2902C44.3036 20.8803 44.4518 20.4441 44.5419 19.9932L44.5354 20.0002ZM38.4579 19.5725C38.6226 19.9824 38.7337 20.3517 38.904 20.686C39.1561 21.184 39.0368 22.1951 39.9486 21.9015C40.8605 21.6078 40.1539 20.8617 40.0941 20.3612C39.9712 19.0923 39.7712 19.0263 38.4645 19.5655L38.4579 19.5725ZM36.6149 20.7026L37.83 22.266C37.9865 22.0579 38.3147 21.7857 38.2733 21.6627C38.0319 20.9791 38.2514 20.0147 37.2739 19.856C37.1339 19.8098 36.9277 20.2726 36.6147 20.6888L36.6149 20.7026ZM42.2281 21.1502C42.1353 20.5334 42.0075 19.9229 41.8455 19.3216C41.7901 19.1438 41.4571 19.0589 41.2564 18.9311C41.146 19.118 40.9364 19.3199 40.9454 19.4983C40.9835 20.0588 41.0844 20.6129 41.2459 21.1494C41.322 21.3819 41.6359 21.5289 41.8373 21.7116L42.2281 21.1502Z" fill="#1C62C3"/>
<path d="M29.9805 29.8351C30.0565 31.0634 30.0862 32.2991 30.2086 33.5268C30.4526 35.9204 29.8452 37.6522 27.5519 38.8569C23.6506 40.8584 19.5537 42.4229 15.3308 43.5239C12.686 44.2457 10.6022 43.2363 8.89583 41.1574C7.18943 39.0785 7.62476 36.8751 8.36528 34.6677C9.06781 32.5981 10.4655 30.9108 11.9376 29.3255C12.537 28.6464 13.1708 28.0007 13.8364 27.3912C14.1782 27.1005 14.4342 26.7162 14.5751 26.282C14.716 25.8479 14.7362 25.3814 14.6333 24.9357C14.3099 22.5638 14.0661 20.184 13.7295 17.8192C13.525 16.4072 13.2409 14.9962 12.9172 13.6064C12.7482 12.8669 12.9023 12.4803 13.6298 12.299C17.5059 11.3548 21.3753 10.4039 25.3889 10.3233C25.7816 10.2794 26.1755 10.3962 26.4863 10.6487C26.7972 10.9012 27.0004 11.2695 27.0525 11.6748C28.6957 17.5932 29.6782 23.6864 29.9805 29.8351ZM28.8174 27.1927L28.8838 27.1919C28.3756 23.8953 27.8939 20.5915 27.3393 17.2955C27.1022 15.9252 26.5771 15.3621 25.5365 15.4514C23.2231 15.6469 20.8977 15.9249 18.619 16.2298C17.7115 16.3517 16.834 16.7342 15.9324 16.8011C14.8849 16.8767 14.6124 17.3405 14.7187 18.3555C15.0416 20.6862 15.2783 23.0317 15.6343 25.3551C15.7184 25.8006 15.685 26.2612 15.5377 26.6885C15.3904 27.1158 15.1346 27.4941 14.7971 27.7836C13.579 29.0016 12.4215 30.2874 11.264 31.5732C10.8127 32.0737 10.7985 32.4997 11.4873 32.9026C12.0408 33.2417 12.5282 33.6848 12.9247 34.209C14.6386 36.2809 15.7309 38.8252 16.0675 41.5294C16.144 42.2976 16.4055 42.5001 17.1182 42.2023C19.4354 41.2994 21.7399 40.4379 24.0973 39.562C24.6783 39.3414 24.8538 39.0643 24.5925 38.3742C24.0129 36.8532 23.9991 35.1643 24.5538 33.6344C25.1085 32.1046 26.1922 30.8428 27.5951 30.0933C28.847 29.4243 29.0896 28.7 28.8479 27.4876C28.8315 27.3901 28.8213 27.2916 28.8174 27.1927ZM15.1329 41.1091C14.9402 40.0813 14.6376 39.0787 14.2306 38.12C13.3667 36.5864 12.3912 35.1231 11.3126 33.7428C10.786 33.063 10.1106 33.1749 9.7511 34.0862C9.49159 34.6583 9.26015 35.2435 9.05766 35.8398C8.03631 39.3901 10.2585 42.8356 13.55 42.847C15.1559 42.8463 15.1559 42.8463 15.1329 41.1091ZM29.1217 30.6225C26.0111 31.2474 24.1932 36.2848 26.0351 38.568C26.4703 38.363 26.9387 38.1577 27.3537 37.9255C28.1643 37.5028 28.9801 36.97 29.0397 35.9597C29.169 34.193 29.1127 32.4494 29.1217 30.6225ZM25.7156 14.4464C26.5666 14.5725 26.7133 14.1241 26.4913 13.3923C26.3949 12.8443 26.2201 12.3143 25.9728 11.8196C25.7562 11.4997 25.2242 11.4174 24.8302 11.2235C24.6499 11.529 24.5177 11.8622 24.4384 12.2107C24.4589 12.6712 24.5116 13.1295 24.596 13.5822C24.6452 14.2958 24.9619 14.6555 25.7156 14.4464ZM17.8544 15.1205C17.6896 14.3449 17.4822 13.5795 17.2335 12.8281C17.1646 12.6367 16.6847 12.4783 16.4466 12.5364C16.2085 12.5944 15.7888 12.9777 15.8374 13.135C15.9983 13.8838 16.2417 14.611 16.5628 15.3024C16.6516 15.4936 17.1303 15.5628 17.4154 15.5384C17.6009 15.5222 17.7562 15.218 17.8543 15.1137L17.8544 15.1205ZM16.0777 15.7484L15.6342 15.3285C15.4642 14.6877 15.2587 14.0576 15.0186 13.4412C14.945 13.3276 14.8455 13.2345 14.7289 13.1701C14.6123 13.1058 14.4822 13.0722 14.3501 13.0723C14.2238 13.1369 14.1162 13.235 14.0386 13.3567C13.9609 13.4784 13.9159 13.6193 13.9081 13.7649C13.9243 14.3962 14.0471 15.0198 14.2709 15.6075C14.3804 15.8602 14.9065 16.0043 15.2588 16.0477C15.5459 16 15.8215 15.8961 16.071 15.7416L16.0777 15.7484ZM19.8163 14.4421C19.7481 13.7894 19.6105 13.1463 19.406 12.5246C19.283 12.2584 18.7974 12.1687 18.4766 11.9944C18.3442 12.2563 18.2602 12.5416 18.2289 12.8355C18.2607 13.3637 18.3798 13.8825 18.5811 14.3692C18.7245 14.6763 19.1053 14.8705 19.3806 15.114L19.8163 14.4421ZM21.6396 13.326C21.6355 12.9378 21.5767 12.5522 21.4652 12.1814C21.3557 11.9288 21.022 11.789 20.7938 11.5929C20.638 11.849 20.3692 12.0998 20.3594 12.3609C20.3544 12.8152 20.4418 13.2657 20.6158 13.683C20.8171 14.0606 21.0577 14.4143 21.3332 14.7379C21.4472 14.3312 21.5613 13.9245 21.662 13.5112C21.6632 13.4459 21.6534 13.381 21.6329 13.3192L21.6396 13.326ZM23.7803 13.126L23.5937 13.0598C23.5788 12.6771 23.5203 12.2975 23.4194 11.9289C23.3302 11.7035 23.0363 11.5632 22.8349 11.3804C22.6785 11.6022 22.4159 11.8117 22.3862 12.0731C22.354 12.4557 22.3998 12.8412 22.5206 13.2045C22.6798 13.7037 22.4392 14.5791 23.2939 14.4785C23.499 14.4277 23.6138 13.5814 23.767 13.1193L23.7803 13.126Z" fill="#FF80A6"/>
<path d="M44.4609 25.406C45.2118 25.4853 45.7993 26.2536 45.4934 26.704C45.3882 26.7523 45.2737 26.7752 45.1587 26.7707C45.0436 26.7663 44.931 26.7348 44.8295 26.6785C44.6667 26.2678 44.5433 25.8416 44.4609 25.406Z" fill="black"/>
<path d="M41.5212 39.4273L42.6986 40.6479C41.622 41.0261 41.5519 40.2441 41.2531 39.733L41.5212 39.4273Z" fill="black"/>
<path d="M18.8808 32.4956L18.2962 33.4511C18.1073 33.2201 17.7592 32.9912 17.763 32.7714C17.8332 32.3857 17.9651 32.0149 18.1532 31.6743L18.8808 32.4956Z" fill="black"/>
<path d="M18.8407 20.4572C17.9567 20.3453 17.9012 19.6662 17.7927 18.9877C18.6899 19.0857 18.8991 19.3508 18.8407 20.4572Z" fill="black"/>
<path d="M20.4526 33.4294L19.5993 34.6425C19.4645 34.4863 19.1827 34.2497 19.2085 34.1944C19.4417 33.7969 19.6958 33.4129 19.9697 33.0443L20.4526 33.4294Z" fill="black"/>
<path d="M20.825 19.9571L20.3298 20.6505C20.1342 20.4127 19.8329 20.2038 19.7833 19.9709C19.7338 19.7381 20.0226 19.5008 20.1591 19.2792L20.825 19.9571Z" fill="black"/>
</svg>
