<svg width="80" height="68" viewBox="0 0 80 68" fill="none" xmlns="http://www.w3.org/2000/svg">
<path d="M43.0484 51.1736C37.4103 53.2328 31.8999 50.4824 30.2814 44.7894C30.0385 43.9442 29.726 43.9733 29.1387 44.4555C28.1717 45.2358 27.1984 46.0171 26.1784 46.7395C25.7732 47.0486 25.2744 47.2077 24.7659 47.1899C24.2573 47.1721 23.7701 46.9785 23.386 46.6418C23.002 46.3051 22.7446 45.8457 22.6571 45.3409C22.5696 44.8361 22.6574 44.3168 22.9057 43.8701C23.5347 42.5444 24.256 41.2653 25.0642 40.0423C25.9367 38.8574 26.3079 37.3723 26.0968 35.911C25.8856 34.4497 25.1092 33.1306 23.937 32.2414C22.8646 31.4742 21.7498 30.7688 20.5982 30.1287C19.896 29.7095 19.199 29.3286 18.5458 28.8897C17.3111 28.1505 16.3251 27.0549 15.7159 25.7454C15.1067 24.4358 14.9024 22.9728 15.1296 21.5464C15.2495 20.0869 15.7928 18.6957 16.692 17.5458C17.5912 16.396 18.8067 15.538 20.1875 15.0786C21.6888 14.521 23.342 14.5369 24.8345 15.1233C26.327 15.7097 27.5554 16.8259 28.2874 18.2608C29.3191 20.3133 30.3082 22.3846 31.4117 24.3949C32.5153 26.4053 35.556 26.7829 37.1381 26.4465C37.5174 26.3029 37.8616 26.0792 38.1476 25.7904C39.7163 24.539 41.2439 23.2215 42.8682 22.047C43.4103 21.6943 44.0631 21.5555 44.7014 21.6573C45.6361 21.8371 46.0131 22.9113 45.4678 24.0901C44.667 25.817 43.7226 27.4852 42.7757 29.1342C42.1789 30.1704 42.1393 30.2603 43.2363 30.5418C44.3116 30.8352 45.3185 31.3411 46.1983 32.0298C47.0782 32.7186 47.8134 33.5765 48.3611 34.5536C49.7489 36.8052 50.7279 39.281 50.5791 41.9671C50.3574 45.7424 48.3514 48.3987 45.1384 50.1966C44.4785 50.5715 43.7605 50.8502 43.0484 51.1736ZM36.2115 27.527C35.8845 27.4176 35.5494 27.3344 35.2094 27.2782C32.6035 27.1087 30.888 25.7334 29.7809 23.4569C29.1564 22.1754 28.6401 20.8339 27.9666 19.572C27.4058 18.5005 26.7521 17.4809 26.0132 16.525C25.7558 16.1955 25.1178 16.1578 24.6501 15.9932C24.5106 16.4036 24.3922 16.8211 24.2953 17.2439C24.1595 18.0099 24.0697 18.7828 23.961 19.5582L23.5015 19.503C23.545 18.4828 23.556 17.4604 23.6456 16.4469C23.6943 15.8487 23.5073 15.4187 22.9157 15.4853C22.7 15.5143 22.4165 16.0466 22.388 16.3626C22.3228 17.3662 22.3888 18.3847 22.3499 19.3914C22.3119 19.7152 22.2307 20.0323 22.1087 20.3342L21.7896 20.2666C21.751 18.9713 21.7056 17.7224 21.6822 16.4445C21.667 15.6598 21.3389 15.3333 20.5629 15.6133C19.3607 16.0011 18.2921 16.7223 17.4794 17.6942C16.6668 18.6661 16.1431 19.8494 15.9683 21.1084C15.5427 23.6562 16.1902 26.0205 18.2984 27.6746C19.5675 28.6417 20.9223 29.489 22.3457 30.2056C25.1234 31.6526 26.8574 33.7407 26.8973 37.0126C26.9469 37.3154 27.0301 37.6117 27.1453 37.896L36.2115 27.527ZM23.5725 45.3215C23.9613 46.3876 24.8755 46.6548 25.8527 46.0941C26.6387 45.6428 27.3742 45.1078 28.0466 44.4984C33.0089 39.903 37.5462 34.8635 41.603 29.4416C42.7479 27.791 43.7464 26.0422 44.587 24.2152C44.8276 23.7471 44.6442 23.0565 44.6612 22.4625C44.0828 22.5794 43.5099 22.689 42.9324 22.8122C42.9324 22.8122 42.8689 22.8207 42.8432 22.8697C39.6045 24.8596 37.2099 27.7959 34.588 30.4831C32.5646 32.5305 30.754 34.816 28.8751 37.026C27.5168 38.609 26.1725 40.201 24.8424 41.8018C24.0012 42.7759 23.5488 44.0298 23.5725 45.3215ZM45.9275 39.888C44.7874 37.1738 43.1518 35.0009 40.064 34.3695C39.6812 34.261 39.2748 34.2723 38.8989 34.4018C38.523 34.5314 38.1954 34.7731 37.9595 35.0949C36.717 36.5626 35.43 38.0362 34.1261 39.4797C33.8719 39.7204 33.6832 40.0227 33.578 40.3578C33.4728 40.693 33.4545 41.0497 33.5248 41.3943C34.0405 45.2264 36.1559 47.2697 39.8885 47.6063C43.3588 47.9131 47.5981 43.6167 45.9339 39.8871L45.9275 39.888ZM39.7415 33.2685C39.8789 33.4255 39.9146 33.4988 39.9696 33.5239C40.1232 33.603 40.2852 33.6641 40.4526 33.706C43.2919 34.2668 45.039 36.1645 46.3123 38.6202C47.1239 40.1887 47.5351 41.8045 46.8201 43.5458C46.1975 45.15 45.0645 46.5005 43.5979 47.3867C40.2231 49.421 35.2947 48.0683 33.5276 44.5346C33.1245 43.5908 32.7786 42.6232 32.492 41.6373C30.9626 42.4609 30.7103 43.1776 31.2341 44.8628C32.7989 49.9648 37.6457 52.3428 42.6325 50.4818C46.039 49.2106 48.6367 47.1119 49.4998 43.3998C50.0741 40.9491 49.4093 38.6001 48.4022 36.3947C47.2115 33.7849 45.4155 31.7637 42.5218 31.0866C42.2926 31.0346 42.055 31.033 41.8253 31.0819C41.5956 31.1307 41.3792 31.2289 41.1908 31.3698C40.6541 31.9592 40.1691 32.5945 39.7415 33.2685Z" fill="#FF80A6"/>
</svg>
