<svg width="129" height="140" viewBox="0 0 129 140" fill="none" xmlns="http://www.w3.org/2000/svg">
<g clip-path="url(#clip0_58_330)">
<path d="M55.4946 63.4155C54.0351 63.5157 52.7858 63.6118 51.5397 63.6764C49.7933 63.9094 48.0186 63.8106 46.3088 63.3854C45.5926 63.1772 44.9364 62.8013 44.3946 62.2888C43.8528 61.7762 43.441 61.1419 43.1935 60.4383C42.6952 58.9862 43.5119 57.2921 45.0883 56.2248C46.7321 55.109 48.5979 54.3621 50.5575 54.0353C53.2553 53.571 55.9769 53.2489 58.6957 52.8597L59.5989 52.7286C59.5036 52.4774 59.4374 52.2832 59.3539 52.1031C58.3069 50.0431 57.9246 47.7091 58.2596 45.4228C58.5946 43.1364 59.6304 41.0102 61.2244 39.3371C61.4191 39.1524 61.5606 38.9188 61.6343 38.6607C61.7079 38.4026 61.711 38.1294 61.6431 37.8698C61.0542 35.0831 59.5905 32.6814 58.3638 30.1671C57.8214 29.057 57.1509 27.9879 56.6185 26.9042C56.182 26.0596 55.9221 25.1349 55.8546 24.1865C55.7872 23.2381 55.9137 22.286 56.2264 21.3881C56.8761 19.3338 59.1018 18.1637 61.8559 18.3058C63.2106 18.3554 64.4984 18.9072 65.4688 19.8538C67.3362 21.5841 68.5767 23.885 68.9959 26.396C69.5157 29.0114 69.6708 31.6863 69.4565 34.3442L69.4237 34.4172C69.3661 35.7399 69.357 35.7358 70.708 35.8281C71.2882 35.8055 71.8692 35.8462 72.4407 35.9494C73.4101 36.2319 73.9225 35.8483 74.5014 35.1218C75.0794 34.4714 75.7389 33.8982 76.4635 33.4165C76.6285 33.2933 76.9974 33.4483 77.2714 33.4728C77.1453 33.6827 77.0039 33.8829 76.8485 34.0721C76.2221 34.7334 75.5858 35.3682 74.9968 36.0682C76.7944 35.0456 77.4063 34.9041 78.1013 35.4798L77.1143 35.9679L76.1067 36.5016C76.6266 36.7354 77.0393 36.8661 77.3493 37.0056C78.2614 37.4157 79.1529 37.8715 80.0854 38.236C80.2739 38.2683 80.4671 38.2607 80.6525 38.2137C80.8379 38.1668 81.0114 38.0816 81.1619 37.9636C82.8162 36.723 84.3452 35.3711 85.9581 34.1009C89.0267 31.6634 92.6908 30.0898 96.5713 29.5428C97.8511 29.3897 99.1484 29.4854 100.392 29.8246C103.214 30.5457 103.879 33.3338 101.853 35.4267C100.09 37.0848 98.0604 38.4332 95.8487 39.415C93.2965 40.7014 90.681 41.8607 88.1954 43.2428C86.9216 44.0628 85.7198 44.9896 84.6031 46.0132C84.4345 46.1891 84.3316 46.4178 84.3119 46.6607C84.095 48.6589 83.4592 50.589 82.4462 52.325C81.4331 54.0609 80.0655 55.5639 78.4324 56.7357C78.2675 56.8533 78.1506 57.0266 78.1033 57.2236L78.9874 57.062C82.2656 56.453 85.2076 54.9581 88.218 53.6036C89.1519 53.0993 90.1824 52.7993 91.241 52.7235C92.2997 52.6476 93.3624 52.7976 94.3587 53.1635C94.9454 53.4392 95.4585 53.8497 95.8562 54.3616C96.2539 54.8734 96.5249 55.4721 96.647 56.1087C96.7692 56.7452 96.739 57.4017 96.559 58.0244C96.3791 58.6471 96.0544 59.2184 95.6115 59.6917C94.1339 61.2925 92.2998 62.5224 90.258 63.2818C88.5129 64.1409 86.7133 64.8847 84.8709 65.5082C84.163 65.6533 83.5188 66.0176 83.0297 66.5495C82.5405 67.0813 82.2313 67.7537 82.1458 68.4712C81.4539 71.3508 80.5176 74.1643 79.6583 77.0015C79.5878 77.175 79.5796 77.3676 79.6351 77.5465C79.6906 77.7254 79.8064 77.8795 79.9627 77.9826C80.6222 78.5643 81.1594 79.2225 80.546 80.1966C80.4721 80.3608 80.5297 80.6717 80.6232 80.8783C80.6983 81.0023 80.7472 81.1405 80.7668 81.2841C80.7864 81.4278 80.7763 81.574 80.7372 81.7137C80.698 81.8533 80.6306 81.9834 80.5391 82.096C80.4477 82.2085 80.3341 82.3011 80.2054 82.368C79.9966 82.5655 79.8742 82.8376 79.865 83.125C79.8803 83.4554 79.7745 83.7801 79.5676 84.0383C79.3607 84.2964 79.0668 84.4703 78.7409 84.5273C78.4578 84.6341 78.1935 84.7855 77.9582 84.9757C77.8187 85.0665 77.6979 85.2863 77.5852 85.2685C76.6241 85.1871 76.6188 85.9304 76.4069 86.5478C75.2692 89.9067 74.2135 93.3025 72.1405 96.2298C71.3345 97.386 70.4177 98.461 69.4032 99.4395C67.7056 101.044 64.5661 100.126 63.4389 97.8537C62.6951 96.0399 62.5043 94.0467 62.8904 92.1247C63.1884 89.682 63.7241 87.2475 63.3441 84.7521C63.3348 84.347 63.2127 83.9525 62.9916 83.613C62.7705 83.2734 62.4592 83.0021 62.0925 82.8297C61.7181 82.6675 61.2988 82.6412 60.9072 82.7553C60.5155 82.8695 60.176 83.1169 59.9473 83.4548C59.0617 84.5688 58.2632 85.7493 57.559 86.9859C56.8037 88.3239 56.2957 89.7949 55.5496 91.137C54.8245 92.7473 53.6661 94.1244 52.2038 95.1147C51.7645 95.4334 51.2575 95.6462 50.7224 95.7365C50.1872 95.8268 49.6384 95.7922 49.1189 95.6352C47.3578 95.0406 46.8778 93.5967 46.8168 92.0013C46.8116 90.7178 46.9254 89.4365 47.1565 88.1739C47.6219 84.4125 48.5451 80.7221 49.9056 77.1846C51.5807 73.0696 53.2832 68.9669 54.9807 64.851C55.0941 64.4525 55.2554 64.0206 55.4946 63.4155ZM54.8481 67.2913L54.766 67.2544C54.0638 69.011 53.3616 70.7675 52.6685 72.5281C51.7772 74.8027 50.8362 77.0658 50.0402 79.3723C48.7934 83.1871 48.0207 87.1408 47.7395 91.1444C47.7164 92.0169 47.8662 92.8854 48.1801 93.6999C48.2522 93.9538 48.379 94.1888 48.5515 94.3885C48.724 94.5882 48.9381 94.7477 49.1788 94.856C49.4195 94.9642 49.6809 95.0185 49.9448 95.0151C50.2087 95.0116 50.4686 94.9505 50.7064 94.836C51.5833 94.4637 52.3543 93.8799 52.9507 93.137C54.0318 91.5619 54.869 89.8222 55.8307 88.1714C56.8011 86.365 57.8677 84.612 59.0257 82.9198C60.5272 80.8977 63.4155 81.9115 64.0493 83.9399C64.307 84.7508 64.4147 85.6018 64.3672 86.4513C64.2423 88.5332 64.0231 90.6056 63.7673 92.6616C63.486 94.233 63.6203 95.8507 64.1569 97.3543C64.2759 97.7371 64.4749 98.0902 64.7407 98.3903C65.0065 98.6904 65.333 98.9306 65.6986 99.095C66.0642 99.2594 66.4605 99.3443 66.8614 99.344C67.2623 99.3437 67.6585 99.2582 68.0239 99.0933C68.5934 98.7665 69.1003 98.341 69.5209 97.8367C71.3776 95.7295 72.8009 93.2771 73.7095 90.6197C75.3281 86.4354 76.8144 82.2282 78.1685 77.9981C79.4707 73.9566 80.6137 69.8545 81.8206 65.7811C81.9814 65.2285 82.1076 64.7041 82.9183 65.0468C83.1646 65.1575 83.5662 65.0202 83.8612 64.9006C85.9511 64.0569 88.0316 63.2016 90.1027 62.3348C91.7661 61.6739 93.2784 60.683 94.5485 59.422C95.9703 57.9671 96.2261 56.1304 95.1224 54.7569C94.7515 54.3343 94.2853 54.0061 93.7623 53.7995C93.2393 53.5929 92.6746 53.5139 92.115 53.5689C90.0345 53.5872 88.2474 54.5379 86.4433 55.4042C83.2994 56.885 80.1157 58.1615 76.5181 57.969C76.3827 57.9818 76.2498 58.0144 76.1238 58.0658C74.8877 58.3762 73.7101 58.8005 72.4704 59.0215C71.1873 59.2864 69.8631 59.2825 68.5816 59.0101C67.3001 58.7376 66.0889 58.2024 65.0246 57.4383C63.5397 56.3758 62.2244 55.0826 60.807 53.9189C60.5069 53.6806 60.1327 53.5551 59.7496 53.5639C58.6038 53.6736 57.4293 53.8472 56.2507 54.0298C53.8893 54.4043 51.5485 54.7332 49.2109 55.2499C47.6326 55.5523 46.1672 56.2812 44.9737 57.3574C44.6324 57.6019 44.3524 57.9221 44.1555 58.2929C43.9586 58.6637 43.8503 59.0751 43.8389 59.4947C43.8275 59.9144 43.9134 60.331 44.0899 60.712C44.2664 61.0929 44.5287 61.4278 44.8562 61.6904C45.2907 62.1169 45.8117 62.4453 46.3838 62.6534C46.956 62.8616 47.5662 62.9446 48.1732 62.897C50.784 62.8212 53.304 62.6058 55.8409 62.4748C55.9791 62.4602 56.1026 62.3074 56.2481 62.2522C56.3935 62.197 56.7259 62.1162 56.9557 62.0441C56.9658 62.2899 57.0711 62.5675 56.9809 62.7682C56.3174 64.268 55.596 65.7746 54.8837 67.2854L54.8481 67.2913ZM82.4844 50.3344C82.7468 49.5314 83.0836 48.685 83.2803 47.8086C83.417 47.2122 83.2554 46.5474 83.3921 45.951C83.6103 45.0133 83.5309 44.0309 83.1648 43.1405C81.8567 39.7344 78.9528 38.3407 75.77 37.3479C74.9787 37.1259 74.1749 36.9511 73.3628 36.8246C71.0076 36.3529 68.5763 36.4175 66.2494 37.0137C64.2103 37.5945 62.4416 38.8766 61.2553 40.6339C60.4106 41.8129 59.76 43.1195 59.3284 44.5041C58.8725 45.8393 58.7574 47.2673 58.9935 48.6583C59.2296 50.0494 59.8094 51.3594 60.6804 52.4694C61.8411 53.8259 63.1558 55.0427 64.598 56.0952C65.4657 56.7662 66.4256 57.3086 67.4481 57.7059C69.5379 58.4839 71.8278 58.5411 73.9538 57.8684C77.9336 56.7964 80.6209 54.1125 82.4844 50.3344ZM82.3214 39.8227C83.5668 38.76 84.8469 37.669 86.0709 36.6296C87.3003 35.4795 88.7813 34.6324 90.396 34.1559C90.9024 33.9424 91.4645 33.8989 91.9978 34.0319C92.531 34.165 93.0068 34.4674 93.3535 34.8939C94.1581 35.9574 93.5232 36.9548 92.8422 37.8108C90.8375 40.4399 87.963 41.8335 85.0826 43.1916C84.9757 43.215 84.8645 43.2107 84.7598 43.1789C84.655 43.1472 84.5602 43.0891 84.4843 43.0103C84.4506 42.891 84.4413 42.7661 84.457 42.6432C84.4727 42.5203 84.5131 42.4018 84.5758 42.2948C84.6537 42.1215 84.9382 42.0741 85.1306 41.9632C86.6081 41.2496 88.0415 40.4479 89.4229 39.5625C90.543 38.669 91.5639 37.6577 92.468 36.546C92.5921 36.3764 92.673 36.179 92.7034 35.9711C92.7339 35.7631 92.7131 35.5508 92.6428 35.3527C92.494 35.2089 92.317 35.0973 92.123 35.0252C91.929 34.953 91.7222 34.9218 91.5156 34.9335C91.0521 34.9661 90.5961 35.0678 90.1628 35.2352C88.4426 35.7445 87.178 36.9959 85.8847 38.0919C84.8495 38.9311 83.8707 39.8397 83.0023 40.6004L84.6068 44.4688C85.4019 43.8515 86.2353 43.2851 87.1019 42.773C90.3188 41.1057 93.5799 39.535 96.8018 37.8809C98.6463 37.077 100.283 35.8633 101.588 34.332C102.612 32.983 102.565 32.1614 100.968 30.9826C100.488 30.6534 99.9305 30.4557 99.3506 30.409C95.7662 29.9922 92.5087 31.2135 89.4459 32.9282C86.8052 34.4483 84.3451 36.2626 82.1126 38.3363C81.2912 39.0414 81.3095 39.269 82.3009 39.8683L82.3214 39.8227ZM62.8878 37.662C63.3474 37.5178 63.5566 37.272 63.3677 36.5949C62.7858 34.915 62.3161 33.1983 61.9616 31.4561C61.5137 29.8874 61.5561 28.2193 62.0831 26.6754C62.2062 26.3984 62.3941 26.1552 62.631 25.9661C62.8678 25.777 63.1466 25.6477 63.4439 25.589C63.7412 25.5302 64.0483 25.5439 64.3392 25.6287C64.6302 25.7135 64.8964 25.8671 65.1156 26.0764C65.5646 26.5155 65.8924 27.0633 66.0671 27.6666C66.6513 30.1222 67.1626 32.5451 67.6593 35.0491C67.7259 35.3642 67.6403 35.8958 68.2016 35.7206C68.3218 35.6429 68.4223 35.5381 68.4949 35.4147C68.5675 35.2912 68.6104 35.1526 68.62 35.0097C68.7168 33.5592 68.7378 32.1047 68.6827 30.652C68.4658 27.3309 68.1025 24.0426 65.89 21.2823C65.1565 20.2179 64.0642 19.4532 62.813 19.1281C61.5619 18.803 60.2355 18.9393 59.0766 19.512C58.2669 19.8933 57.5998 20.5228 57.1721 21.309C56.7453 22.115 56.5337 23.0175 56.5578 23.9292C56.5819 24.8409 56.8409 25.7309 57.3096 26.5133C58.7251 29.266 60.2017 31.9805 61.604 34.7382C62.0994 35.6847 62.433 36.7228 62.8509 37.7441L62.8878 37.662ZM64.2801 36.6873C64.8 36.5203 65.3295 36.385 65.8658 36.282C66.6573 36.1555 66.8218 35.6922 66.6949 34.9992C66.31 32.9292 65.9607 30.8533 65.5403 28.7893C65.435 28.1659 65.2178 27.5668 64.8992 27.0208C64.7709 26.8395 64.6049 26.6882 64.4126 26.5771C64.2203 26.466 64.0063 26.3978 63.7852 26.3772C63.4856 26.385 63.0917 26.8219 62.9085 27.1562C62.6997 27.5438 62.6015 27.9814 62.6248 28.4211C62.7108 29.968 62.8817 31.509 63.1366 33.0371C63.4377 34.2977 63.8085 35.5407 64.2473 36.7602L64.2801 36.6873ZM79.2834 78.4447C79.2089 78.5162 79.1458 78.5988 79.0966 78.6896C78.5876 80.1383 78.0736 81.5738 77.5829 83.0307C77.407 83.5437 77.8005 83.6439 78.174 83.6912C78.8712 83.7745 79.2094 83.2906 78.9219 82.6132C78.734 82.1778 78.5255 81.788 79.2591 81.6683C79.9927 81.5487 80.2079 81.3384 79.5379 80.6095C79.2287 80.2731 79.2013 80.0415 79.5874 79.7436C80.2772 79.2095 80.1854 78.8284 79.2834 78.4447Z" fill="#1C62C3"/>
<path d="M75.2446 73.0648C74.3143 75.1045 72.8587 76.8603 71.0268 78.1525C68.6899 79.8867 64.671 79.6802 62.2992 78.0543C58.4284 75.3487 57.5228 69.5358 58.987 66.0606C59.5066 64.9335 60.2671 63.9341 61.2147 63.1327C62.1624 62.3313 63.2743 61.7474 64.472 61.4222C68.0637 60.1647 71.2712 61.1027 74.0768 63.3732C75.0577 64.1253 75.7909 65.1539 76.1821 66.3265C76.5732 67.499 76.6044 68.7618 76.2715 69.9522C75.9695 70.9896 75.5731 72.0174 75.2446 73.0648ZM59.6781 71.2288C59.6166 71.5849 59.4006 71.9921 59.5233 72.2556C59.8285 73.2735 60.2487 74.2534 60.7756 75.1762C61.3114 76.0951 62.0544 76.8761 62.9454 77.4571C63.8364 78.038 64.8508 78.4029 65.9077 78.5225C66.9646 78.6421 68.0349 78.5132 69.0332 78.1461C70.0315 77.779 70.9303 77.1838 71.6579 76.4079C73.6584 74.4278 74.9657 71.8544 75.3849 69.071C75.5884 68.0273 75.4768 66.9466 75.0644 65.9664C74.6519 64.9863 73.9573 64.151 73.0687 63.5668C71.2746 62.1679 69.0418 62.1834 67.0149 61.546C66.8218 61.5229 66.6261 61.5479 66.445 61.6187C65.9662 61.7323 65.4784 61.8419 65.0147 61.9952C63.7455 62.322 62.5772 62.9586 61.6146 63.8481C60.652 64.7375 59.9251 65.8519 59.4993 67.0914C59.0673 68.3445 59.149 68.6992 60.1386 69.4732C60.1933 69.4978 60.1715 69.6195 60.1966 69.6857C59.0632 70.2066 59.0632 70.2066 59.6781 71.2288Z" fill="#1C62C3"/>
<path d="M65.9265 51.3857C66.1718 51.6122 66.4043 51.8522 66.6229 52.1045C67.152 52.7811 67.7411 52.9583 68.3123 52.5902C68.4889 52.5051 68.6463 52.3848 68.7748 52.2368C68.9032 52.0887 69.0001 51.916 69.0595 51.7292C69.1189 51.5423 69.1395 51.3454 69.1201 51.1503C69.1007 50.9552 69.0416 50.7662 68.9466 50.5948C68.593 49.9424 68.2427 49.2585 68.6055 48.5006C68.6875 48.3182 68.9596 48.0788 69.0996 48.1088C69.6678 48.1657 70.2228 48.3153 70.7426 48.5516C71.1712 48.7444 71.7235 49.223 71.7382 49.5805C71.6555 50.1011 71.3707 50.568 70.9456 50.8797C70.1783 51.4886 70.0339 51.7855 70.4864 52.5591C70.6818 52.826 70.9716 53.0083 71.2967 53.0689C71.6219 53.1296 71.9579 53.064 72.2364 52.8856C72.5692 52.7064 72.8245 52.3826 73.1573 52.2033C73.4901 52.024 73.6215 52.1708 73.854 52.1657C73.8235 52.4042 73.886 52.7284 73.7625 52.8812C72.5163 54.3601 71.1548 54.3399 69.5864 52.8781C67.5667 54.0531 65.7865 53.4279 65.9265 51.3857ZM69.4619 49.0831L69.213 49.344C69.4452 49.6567 69.66 50.2029 69.9117 50.2284C70.1634 50.2539 70.6544 49.8935 71.0269 49.6992L70.9593 49.3618L69.4619 49.0831Z" fill="#1C62C3"/>
<path d="M76.5376 47.7587C76.3115 48.1395 75.9464 48.5125 75.3404 48.251C75.2126 48.2177 75.0941 48.1555 74.9942 48.0691C74.8944 47.9827 74.8157 47.8745 74.7644 47.7528C74.7131 47.6311 74.6905 47.4993 74.6984 47.3674C74.7062 47.2356 74.7444 47.1074 74.8098 46.9926C75.0887 46.3725 75.737 46.0281 76.1675 46.2655C76.7306 46.5736 76.8625 47.0605 76.5376 47.7587Z" fill="#1C62C3"/>
<path d="M67.1451 45.3111C66.4266 45.4704 65.9492 45.7272 65.5598 45.6179C65.3409 45.5194 65.0307 44.722 65.1551 44.5916C65.5433 44.2774 65.9808 44.0296 66.4499 43.8581L67.1451 45.3111Z" fill="#1C62C3"/>
</g>
<defs>
<clipPath id="clip0_58_330">
<rect width="90" height="112.5" fill="white" transform="translate(46.1414) rotate(24.214)"/>
</clipPath>
</defs>
</svg>
