<svg width="133" height="142" viewBox="0 0 133 142" fill="none" xmlns="http://www.w3.org/2000/svg">
<path d="M36.2772 57.356C37.4433 58.9192 38.5614 60.5197 39.7931 62.036C41.9533 64.6982 44.275 67.2387 46.3656 69.9613C48.145 72.141 49.0275 74.9163 48.834 77.7233C48.8144 79.0896 48.4139 80.4233 47.6774 81.5743C46.9409 82.7253 45.8977 83.6479 44.6654 84.2381C40.02 86.3703 35.2146 86.3823 30.8074 83.562C29.4764 82.7587 28.4155 81.5763 27.7604 80.1664C27.1053 78.7565 26.8859 77.1832 27.1303 75.6478C27.5085 72.8275 28.3231 70.0832 29.5448 67.5133C30.9474 64.4777 32.335 61.3933 33.6793 58.3551C33.7256 58.1621 33.7521 57.9648 33.7582 57.7663L31.3184 58.4067C31.0014 58.5385 30.6693 58.6307 30.3297 58.6812C30.2036 58.6756 30.0803 58.6416 29.9691 58.5818C29.8578 58.522 29.7615 58.4378 29.6873 58.3356C29.6206 58.2126 29.7787 57.8538 29.9395 57.7098C30.7137 57.0397 31.6044 56.3747 32.4417 55.716L33.3005 55.0341C32.2669 54.093 31.2627 53.227 30.3192 52.3052C29.9685 51.949 29.6927 51.5261 29.5083 51.0614C29.1371 50.1251 29.6168 49.4783 30.5296 49.882C31.491 50.3719 32.3757 50.9998 33.1554 51.7457C33.6326 52.2578 34.0573 52.8163 34.4234 53.4128C34.6472 52.3937 34.9491 51.3934 35.3263 50.4206C35.8292 49.3885 36.4468 48.4163 37.1676 47.5226C37.4253 47.2008 38.1134 47.169 38.5519 47.0336C38.692 47.4809 39.0285 47.9127 38.9452 48.3674C38.6816 49.7274 38.2546 51.0169 37.8933 52.5324L39.9392 51.7529C40.3193 51.5456 40.7271 51.3934 41.1502 51.301C42.3914 51.2195 42.8018 50.5078 43.1629 49.3906C43.531 48.2874 44.1612 47.2899 44.9994 46.4838C46.7056 44.9064 48.8889 43.9427 51.2042 43.745C52.0718 43.591 52.9644 43.6623 53.7967 43.9519C54.6289 44.2415 55.3729 44.7399 55.9575 45.3992C57.3589 47.019 58.2787 48.9989 58.6129 51.1146C59.0769 53.2291 59.5971 55.3283 60.1734 57.4122C60.3993 58.1436 60.7426 58.8334 61.1899 59.4546C61.3431 59.7538 61.5693 60.0096 61.8475 60.1982C62.1256 60.3869 62.4469 60.5024 62.7815 60.5341C63.1162 60.5658 63.4534 60.5127 63.762 60.3796C64.0707 60.2465 64.3408 60.0377 64.5475 59.7726C65.4535 58.7857 66.2801 57.7289 67.0198 56.6119C69.3152 53.3766 71.4097 50.0227 73.8653 46.8939C76.55 43.4032 80.1556 40.7312 84.2764 39.1783C84.9833 38.9087 85.8235 38.3393 86.4778 39.0425C87.1321 39.7456 86.7229 40.6273 86.4202 41.3488C86.0023 42.5082 85.4848 43.6306 85.0214 44.7691C84.8809 45.1184 84.781 45.4796 84.619 46.1249C85.1025 45.8627 85.3223 45.7436 85.4981 45.6482C87.3087 44.7916 89.1578 43.88 91.0193 43.0753C91.5835 42.8694 92.1809 42.7691 92.7814 42.7796C93.823 42.7495 94.2563 43.4018 93.6676 44.2671C92.8745 45.4479 91.9628 46.5566 91.0876 47.6909C90.8418 47.9532 90.6539 48.2643 90.5363 48.6041C91.4678 48.2241 92.3707 47.7914 93.3308 47.4642C93.9632 47.2516 94.6211 47.1244 95.2871 47.086C96.8859 46.9926 97.5564 47.9144 96.8888 49.3685C96.4854 50.2099 95.9745 50.9955 95.369 51.7055C93.4759 53.9833 91.5277 56.2227 89.5979 58.4749C89.4387 58.6637 89.2889 58.87 88.9934 59.2691C89.64 59.2029 90.0775 59.1705 90.523 59.1109C92.6529 58.8433 94.84 58.4081 96.8632 59.643C97.1263 59.7849 97.3759 59.9503 97.609 60.1373C98.7342 61.1425 98.6689 61.7353 97.3734 62.4719C97.8312 62.9176 98.5597 63.2961 98.6662 63.8072C98.7726 64.3182 98.1504 64.849 97.7704 65.5328C97.8371 65.6559 98.0278 66.0075 98.2137 66.3503C98.6971 67.4305 98.0861 68.5695 96.9316 68.4334C92.7038 67.9161 89.5679 70.2307 86.4921 72.4673C84.1891 74.2776 81.98 76.2044 79.8736 78.2402C77.2993 80.5831 74.253 82.3475 70.9397 83.4143C68.7578 84 66.4492 83.9066 64.3218 83.1465C60.4077 81.97 56.9568 80.0532 55.1236 76.1899C54.4952 74.869 54.1531 73.4302 54.1197 71.9679C53.9627 69.6705 53.4992 67.4045 52.7414 65.2302C52.4803 64.546 52.0682 63.9296 51.5359 63.4267C51.3868 63.3331 51.2198 63.2718 51.0455 63.2468C50.8713 63.2218 50.6937 63.2335 50.5243 63.2813C47.7003 64.0732 45.7542 63.2742 44.515 60.5904C44.0536 59.4206 43.712 58.2071 43.4953 56.9685C43.3697 56.4223 43.2823 55.9464 42.6262 55.9951C40.5911 56.2909 38.5718 56.6578 36.5566 57.0111L36.2772 57.356ZM85.9697 39.9095L85.7061 39.6543C85.2582 39.7104 84.8196 39.8258 84.402 39.9974C82.4194 41.0131 80.5053 42.1574 78.672 43.4229C75.4512 45.8747 73.0639 49.1712 70.832 52.5655C69.1032 55.2093 67.2787 57.8025 65.3116 60.2797C65.0217 60.6641 64.6412 60.9709 64.204 61.1727C63.7668 61.3745 63.2865 61.465 62.8059 61.4362C62.3252 61.4075 61.8592 61.2603 61.4492 61.0078C61.0392 60.7553 60.698 60.4054 60.4559 59.9891C59.9082 59.2087 59.487 58.3469 59.2077 57.4353C58.5905 55.2901 58.1906 53.084 57.5869 50.9428C57.2235 49.5635 56.7125 48.2273 56.0629 46.9574C55.7476 46.2859 55.2627 45.7081 54.6561 45.281C54.0496 44.854 53.3422 44.5923 52.6037 44.5218C49.1285 44.3017 44.3373 46.3536 43.8572 51.0276C43.8141 51.2078 43.7262 51.3741 43.6017 51.5112C43.4772 51.6483 43.3201 51.7518 43.145 51.812C40.3685 52.2621 37.7226 53.3087 35.3895 54.8797C34.2617 55.5481 33.1952 56.3084 32.1 57.016L32.2478 57.2885L33.1446 57.0753C34.6795 56.6752 36.2027 56.1906 37.7629 55.8792C39.5031 55.5167 41.2639 55.2609 43.0354 55.1134C44.2272 55.0246 44.5494 55.43 44.4722 56.6094C44.4441 58.1232 44.8841 59.6089 45.7322 60.8632C46.1504 61.5786 46.8044 62.1262 47.5821 62.4123C48.3599 62.6983 49.2129 62.7048 49.9949 62.4308C51.6298 61.9425 52.0677 62.0577 52.9626 63.5403C54.4276 66.0616 55.1961 68.9269 55.1894 71.8428C55.2121 73.3806 55.5917 74.8921 56.2982 76.2582C57.3919 78.1889 59.0317 79.7534 61.0117 80.7552C66.7611 83.9738 70.4638 83.5018 75.3957 80.4294C78.161 78.57 80.7565 76.4698 83.1519 74.1533C85.7763 71.679 88.8106 69.6795 92.1196 68.2442C93.5559 67.5206 95.1846 67.2707 96.7718 67.5303C97.4706 67.6861 97.7038 67.298 97.5489 66.6767C97.4662 66.3881 97.3214 66.1211 97.1247 65.8943C96.3607 64.989 96.3615 65.0113 97.446 64.3891C97.657 64.2747 97.9595 63.9514 97.9158 63.85C97.7952 63.5964 97.5821 63.3985 97.3203 63.297C96.9966 63.234 96.6694 63.1911 96.3405 63.1685C95.9861 63.0686 95.6372 62.9503 95.2951 62.8139C95.5446 62.5172 95.827 62.2496 96.1367 62.0163C96.6961 61.7284 97.2718 61.4732 97.8608 61.2521C97.4587 60.8102 97.0105 60.4125 96.5238 60.066C95.1596 59.3482 93.5736 59.1753 92.0868 59.5825C90.0617 60.0435 87.7742 60.1464 86.3081 62.0789C86.0242 62.4505 85.6774 62.7695 85.2834 63.0213C85.09 63.1262 84.7606 63.0431 84.4964 63.0385C84.5743 62.8256 84.5966 62.5519 84.739 62.395C85.1144 61.9754 85.5725 61.6246 85.9479 61.2049C88.8891 57.881 91.8648 54.5157 94.7727 51.1302C95.3266 50.4634 95.7868 49.724 96.1405 48.9325C96.5456 48.0644 96.1908 47.6197 95.2687 47.7443C93.572 47.9451 91.9686 48.6289 90.6493 49.7145C90.0478 50.2415 89.407 50.7221 88.7327 51.1519C88.3637 51.2797 87.9739 51.3367 87.5838 51.3198C87.6708 50.9769 87.6703 50.5563 87.8768 50.3078C89.0801 48.8136 90.339 47.3801 91.5174 45.9449C92.0849 45.2504 92.5378 44.4702 93.0368 43.7332L92.7957 43.4772C92.478 43.4814 92.1615 43.5159 91.8505 43.5802C88.9991 44.3225 86.3907 45.7957 84.2827 47.8543C83.9757 48.0981 83.6379 48.3003 83.278 48.456C83.183 48.0106 83.1693 47.5518 83.2375 47.1015C83.8435 45.4079 84.5579 43.7464 85.2093 42.0737C85.5032 41.3569 85.7029 40.6343 85.9697 39.9095ZM35.2503 57.5602C34.9824 58.115 34.806 58.4609 34.6343 58.8156C33.855 60.5463 33.1029 62.2851 32.2878 64.0125C30.5555 67.3224 29.234 70.8314 28.3528 74.4617C28.1007 75.5386 28.0705 76.6556 28.2639 77.7446C28.4574 78.8336 28.8705 79.8718 29.478 80.796C30.0856 81.7203 30.8749 82.5111 31.798 83.1205C32.721 83.7299 33.7584 84.145 34.847 84.3406C37.1756 84.815 39.5764 84.8098 41.903 84.3254C43.5924 84.0151 45.119 83.1204 46.2153 81.798C47.3117 80.4757 47.9081 78.8098 47.9002 77.0921C47.9559 73.6493 46.225 70.9818 44.129 68.5009C41.7911 65.7417 39.3755 63.07 37.0918 60.3269C36.4285 59.4386 35.8138 58.515 35.2503 57.5602ZM38.1628 47.8475C36.7072 48.7505 35.4655 51.915 35.9886 53.3832C37.232 52.4246 38.5066 49.1739 38.1628 47.8475ZM30.6244 50.5813C30.8381 51.2908 31.2189 51.9387 31.7349 52.4705C32.2509 53.0023 32.8869 53.4025 33.5897 53.6374C32.8018 52.4152 32.1752 51.1965 30.6244 50.5813Z" fill="#1C62C3"/>
<path d="M38.0777 66.9702C38.3522 69.5743 36.7322 70.7826 34.6774 71.0209C33.6076 71.1459 32.9967 70.6695 33.012 69.6488C33.0486 68.3235 33.2009 67.0038 33.4671 65.705C33.818 63.8766 34.2591 62.0677 34.7272 60.2667C34.9031 59.906 35.1423 59.5798 35.4335 59.3036C35.6875 59.5697 35.9011 59.8717 36.0674 60.1998C36.6885 62.0585 37.2744 63.9363 37.8468 65.81C37.9528 66.1734 38.0109 66.5742 38.0777 66.9702ZM35.7003 61.8095L35.2005 61.8529C34.7897 64.0323 34.3382 66.1996 33.9904 68.3903C33.8939 68.9886 33.7059 69.7958 34.5623 70.1164C35.0243 70.1404 35.4828 70.0245 35.8779 69.7838C36.2731 69.5432 36.5865 69.189 36.7771 68.7675C36.9563 68.3352 37.0297 67.8664 36.9912 67.4001C36.62 65.5197 36.1466 63.6606 35.709 61.8047L35.7003 61.8095Z" fill="#1C62C3"/>
<path d="M36.3209 76.0449C37.0118 74.8854 37.6177 73.863 38.2419 72.8534C38.6329 72.2318 39.302 71.7666 39.9005 72.136C40.1485 72.3344 40.348 72.5866 40.4839 72.8736C40.6199 73.1607 40.6886 73.4749 40.6849 73.7924C40.5273 74.9074 40.2703 76.0062 39.917 77.0754C39.6503 78.0732 39.3382 79.0501 39.058 80.0438C38.8543 80.7799 38.4788 80.9266 37.9492 80.4744C36.9362 79.6131 35.8975 78.7885 34.9021 77.9177C34.4587 77.5747 34.0972 77.1373 33.8438 76.6374C33.6436 76.2681 33.7575 75.3873 33.9476 75.3184C34.4598 75.1816 35.0011 75.201 35.5022 75.3741C35.8444 75.4388 36.0493 75.8168 36.3209 76.0449ZM38.1799 79.4734C38.679 77.121 39.9352 75.2 39.4908 72.87C39.1351 72.9903 38.8307 73.2275 38.6272 73.5431C38.125 74.5889 37.7042 75.6589 37.2339 76.7216C37.0966 77.0349 36.9091 77.3186 36.7488 77.6103C36.4241 77.4205 36.1121 77.2097 35.815 76.979C35.4782 76.6725 35.1934 76.3151 34.8781 75.9855L34.6317 76.2443C35.3105 77.6849 36.8414 78.2426 38.2151 79.4543L38.1799 79.4734Z" fill="#1C62C3"/>
</svg>
