<svg width="65" height="75" viewBox="0 0 65 75" fill="none" xmlns="http://www.w3.org/2000/svg">
<path d="M27.8312 28.3729L24.3029 29.0741C23.7677 29.1759 23.2267 29.2788 22.6914 29.3807C21.6758 29.6216 21.6516 29.6203 21.3879 28.5791C21.0941 27.4423 20.8433 26.2495 20.5002 25.1042C20.268 24.3667 19.9722 23.6508 19.616 22.9645C18.1123 19.9825 15.2776 19.5021 12.5679 20.3994C11.7236 20.7441 10.9407 21.2233 10.2497 21.8185C10.11 21.8881 9.9857 21.985 9.884 22.1034C9.7823 22.2217 9.70526 22.3592 9.65742 22.5077C9.60957 22.6563 9.59188 22.8129 9.60538 22.9683C9.61888 23.1238 9.66331 23.275 9.73604 23.4131C9.9053 23.7087 10.1636 23.9432 10.474 24.0833C10.7845 24.2235 11.1312 24.262 11.4649 24.1934C12.1784 24.0804 12.8822 23.9126 13.57 23.6915C15.4827 23.1188 16.1543 23.4204 16.7949 25.3142C17.2981 26.7989 17.7448 28.3002 18.1544 29.8265C18.2158 30.1488 18.0145 30.5329 17.9525 30.8966C17.9111 31.149 17.8093 31.4606 17.9052 31.6511C19.1602 34.078 20.6042 36.4332 22.8158 38.058C24.2034 39.0821 25.9539 39.6317 27.578 40.3007C28.0244 40.4841 28.2324 40.6056 28.183 41.098C28.0032 42.5039 27.8659 43.9136 27.6667 45.3112C27.642 45.4948 27.3413 45.7011 27.1234 45.7783C25.3907 46.3883 23.4789 49.0659 24.8808 51.2622C25.2303 51.8204 25.7091 52.2862 26.2766 52.6203C26.8442 52.9543 27.4839 53.1468 28.1415 53.1813C28.7992 53.2159 29.4555 53.0916 30.0549 52.8189C30.6544 52.5462 31.1794 52.1331 31.5854 51.6146C32.02 51.0722 32.3553 50.4573 32.5757 49.7981C32.9985 48.4474 32.1263 46.872 30.5948 46.0005C30.4005 45.8883 30.198 45.7957 29.9018 45.6493C30.4006 44.1648 30.8695 42.6801 31.445 41.2228C31.5251 41.0168 31.9833 40.9176 32.3171 40.8541C34.1473 40.5059 35.9717 40.1588 37.8096 39.8508C38.0092 39.8299 38.2007 39.7607 38.3676 39.6492C39.5651 38.6402 40.5908 39.1726 41.5931 39.9897C42.5954 40.8069 43.5032 41.5347 44.5296 42.3532C44.0931 42.7602 43.7465 43.254 43.512 43.8029C43.2775 44.3518 43.1604 44.9436 43.1681 45.5404C43.1794 46.0715 43.313 46.5929 43.5585 47.064C43.804 47.5351 44.1548 47.9433 44.5837 48.2568C45.0125 48.5704 45.5079 48.7809 46.0313 48.8719C46.5547 48.963 47.092 48.9322 47.6016 48.7819C48.7629 48.4406 49.7667 47.7005 50.4362 46.692C51.3683 45.322 50.8959 43.247 49.3127 42.1349C48.4211 41.5233 47.4883 40.8838 46.2846 41.077C46.212 41.0864 46.1381 41.0801 46.0682 41.0584C45.9982 41.0368 45.9337 41.0003 45.8791 40.9514C44.8234 39.6971 43.7839 38.4338 42.7 37.1253C43.021 36.8376 43.2751 36.5746 43.5632 36.3647C46.8065 33.8213 48.0306 30.3502 48.0519 26.3564C48.096 24.5095 47.7713 22.6723 47.097 20.9523C46.4226 19.2323 45.412 17.6641 44.1243 16.3393C42.0605 14.1875 39.5805 12.4782 36.835 11.3153C35.2432 10.6282 33.5444 10.1941 31.8904 9.65001C31.6166 9.55044 31.3168 9.54839 31.0417 9.6442C30.7666 9.74 30.533 9.9278 30.3802 10.1759C27.9293 13.6241 26.2173 17.2894 26.7418 21.6445C27.0015 23.8553 27.4485 26.0484 27.8312 28.3729ZM34.886 39.9062C32.4351 40.0325 30.4227 40.2067 28.4307 39.6733C26.6199 39.1829 24.8053 38.6098 23.3503 37.4196C21.6448 35.9555 20.2496 34.1649 19.2472 32.1531C18.8735 31.443 18.9434 31.215 19.6922 31.0129C21.23 30.601 22.7699 30.2007 24.3299 29.874C26.6704 29.387 29.0339 29.0208 31.3744 28.5337C34.9273 27.7742 38.4661 26.9399 42.0157 26.1631C43.3271 25.8778 44.6574 25.6605 45.9754 25.4097C46.4876 25.3122 47.0735 25.32 47.1249 26.0915C47.35 28.4825 46.8084 30.8831 45.5784 32.9458C43.9272 35.6454 41.3637 37.2483 38.6383 38.5958C37.4213 39.124 36.1672 39.562 34.886 39.9062ZM46.6504 22.2815L46.3596 22.4144C45.2339 20.7869 43.6788 19.5035 41.8673 18.7069C41.4702 18.532 41.0839 18.194 40.6648 18.6555C40.9136 18.9392 41.1977 19.1898 41.5104 19.401C42.9362 20.0724 44.161 21.1061 45.0626 22.3988C44.9171 22.3896 44.7753 22.3495 44.6466 22.2811C43.619 21.8326 42.6007 21.3703 41.5695 20.9344C41.1289 20.7498 40.6937 20.7193 40.491 21.3781C42.2084 22.0354 43.9271 22.6685 45.3533 23.8642C45.061 23.8629 44.7693 23.8386 44.4807 23.7917C43.3418 23.6983 42.2064 23.5923 41.0702 23.5759C40.8611 23.5739 40.6462 23.9488 40.4329 24.1444C40.6738 24.2133 40.919 24.2663 41.1668 24.3029C42.3814 24.4177 43.6513 24.5101 44.8936 24.6136L44.8891 24.8411C44.6532 24.886 44.4191 24.9723 44.1842 25.0229C42.5958 25.3252 41.0073 25.6274 39.4241 25.9883C36.2104 26.6713 32.997 27.3662 29.7839 28.073C29.1623 28.1912 28.9256 27.95 28.7813 27.4109C28.5271 26.4514 28.1924 25.5072 27.9728 24.5412C27.4292 22.3003 27.3475 19.9723 27.7325 17.6989C28.173 15.5435 29.0265 13.4938 30.2457 11.6626C31.1202 10.3035 31.2295 10.2827 32.8633 10.6576C34.9959 11.1853 37.0256 12.0648 38.8689 13.2601C41.2597 14.7613 43.5979 16.362 45.0635 18.8622C45.6851 19.9664 46.1245 21.1471 46.6504 22.2815ZM14.015 20.8277C15.1781 20.645 16.3672 20.9112 17.3413 21.5724C18.4055 22.4549 19.1649 23.6499 19.512 24.9881C19.9099 26.2959 20.173 27.6473 20.5778 28.9599C20.7897 29.6352 20.6847 29.9295 19.9738 30.1423C19.2629 30.3551 19.1503 29.9829 19.0013 29.4506C18.5522 27.8424 18.0869 26.2432 17.5698 24.6539C17.0527 23.0646 15.8928 22.3907 14.1999 22.8023C13.6299 22.9406 13.1086 23.1471 12.5511 23.2889C12.1499 23.4176 11.7297 23.4774 11.3085 23.4657C11.1565 23.4338 11.0126 23.371 10.8858 23.2813C10.759 23.1916 10.6519 23.0768 10.5712 22.9441C10.492 22.81 10.6897 22.4385 10.8522 22.2585C11.6523 21.3548 12.7571 21.0492 14.015 20.8277ZM27.5085 46.6115C27.5354 46.7206 27.5697 46.8276 27.6112 46.9319C27.7658 47.2425 27.9318 47.5508 28.0931 47.866C28.4042 47.6517 28.7232 47.4479 29.0127 47.2139C29.1423 47.1117 29.1846 46.895 29.3142 46.7928C29.4366 46.6871 29.5954 46.6334 29.7569 46.643C30.7226 46.829 32.0245 48.6566 31.7503 49.5973C31.5866 50.3208 31.1952 50.9726 30.6338 51.4573C30.0723 51.9419 29.3703 52.2338 28.6307 52.2901C27.9178 52.3609 27.2025 52.18 26.6088 51.7789C26.0151 51.3778 25.5805 50.7816 25.3801 50.0937C25.2228 49.3513 25.3558 48.5768 25.7516 47.9292C26.1474 47.2816 26.7761 46.8102 27.5085 46.6115ZM46.6854 42.0861L46.8633 41.8615C47.5179 42.1766 48.1475 42.5413 48.7466 42.9523C50.5773 44.3931 50.382 46.4698 48.3398 47.6157C47.03 48.348 45.76 48.2557 44.8241 47.3484C44.3991 46.8719 44.132 46.2756 44.0593 45.6413C43.9867 45.007 44.1121 44.3658 44.4183 43.8056C44.857 42.9767 44.9502 42.9649 45.789 43.3301C45.9261 43.3948 46.0755 43.4293 46.2271 43.4313C46.3788 43.4334 46.529 43.4028 46.6679 43.3418C46.8252 43.2284 46.7672 42.7981 46.7768 42.5041C46.7645 42.3614 46.7337 42.2209 46.6854 42.0861ZM30.5818 40.8861C29.8588 42.6339 29.5983 44.4308 28.7529 46.005L28.4709 45.9334L29.1716 40.6833L30.5818 40.8861ZM41.8953 37.6601L44.8637 41.1625L44.7187 41.3094L41.1435 38.1908L41.8953 37.6601Z" fill="#FF80A6"/>
<path d="M23.8324 33.9047C24.7609 33.7697 25.2058 33.2557 25.0695 32.4766C24.9672 32.1197 24.7574 31.8032 24.4686 31.57C24.1799 31.3368 23.8262 31.1983 23.4559 31.1734C23.2657 31.1849 23.08 31.2355 22.9103 31.3222C22.7407 31.4088 22.5908 31.5296 22.47 31.6769C22.3492 31.8242 22.2602 31.9949 22.2085 32.1782C22.1568 32.3616 22.1435 32.5536 22.1695 32.7423C22.1955 32.931 22.2603 33.1123 22.3597 33.2748C22.4591 33.4374 22.591 33.5776 22.7471 33.6867C22.9032 33.7959 23.0802 33.8715 23.267 33.9091C23.4538 33.9466 23.6463 33.9451 23.8324 33.9047Z" fill="#FF80A6"/>
<path d="M44.0691 29.5891C44.4128 29.5244 44.7188 29.3306 44.9244 29.0476C45.13 28.7646 45.2196 28.4137 45.1749 28.0667C45.1342 27.8849 45.0577 27.713 44.95 27.561C44.8423 27.409 44.7054 27.2799 44.5474 27.1812C44.3893 27.0826 44.2133 27.0163 44.0294 26.9863C43.8455 26.9563 43.6575 26.9631 43.4763 27.0064C42.8654 27.0868 42.2147 27.7414 42.2757 28.2188C42.3733 28.6176 42.6044 28.971 42.9307 29.2203C43.2569 29.4696 43.6586 29.5997 44.0691 29.5891Z" fill="#FF80A6"/>
<path d="M32.6049 30.9892C32.7108 31.3469 32.9411 31.655 33.2542 31.8579C33.5673 32.0608 33.9425 32.1451 34.3123 32.0956C34.4697 32.0971 34.6253 32.0624 34.767 31.9941C34.9088 31.9259 35.033 31.8259 35.1299 31.7019C35.2268 31.5779 35.2939 31.4333 35.326 31.2793C35.358 31.1252 35.3542 30.9658 35.3148 30.8135C35.2678 30.4411 35.086 30.0989 34.8037 29.8515C34.5215 29.6041 34.1584 29.4687 33.7831 29.4709C33.6022 29.4835 33.4259 29.5342 33.2659 29.6196C33.1058 29.705 32.9656 29.8232 32.8544 29.9665C32.7432 30.1098 32.6635 30.275 32.6205 30.4512C32.5775 30.6274 32.5722 30.8107 32.6049 30.9892Z" fill="#FF80A6"/>
<path d="M40.2055 29.4058C40.2066 29.2311 40.1704 29.0582 40.0994 28.8986C40.0284 28.7389 39.9242 28.5963 39.7937 28.48C39.6633 28.3638 39.5096 28.2767 39.3428 28.2245C39.1761 28.1723 39.0002 28.1562 38.8267 28.1773C37.9525 28.284 37.3667 28.8725 37.4707 29.5445C37.5768 29.9149 37.8108 30.2358 38.131 30.45C38.4513 30.6642 38.8372 30.7579 39.22 30.7145C39.3754 30.7048 39.5268 30.6616 39.6639 30.5878C39.801 30.514 39.9205 30.4114 40.0141 30.2871C40.1077 30.1627 40.1733 30.0196 40.2064 29.8674C40.2394 29.7153 40.2391 29.5578 40.2055 29.4058Z" fill="#FF80A6"/>
<path d="M30.5103 31.4831C30.4167 31.1244 30.2022 30.8089 29.9031 30.5898C29.6039 30.3708 29.2384 30.2617 28.8681 30.2808C28.7084 30.3045 28.5554 30.3609 28.4186 30.4466C28.2817 30.5322 28.1641 30.6452 28.073 30.7784C27.9818 30.9117 27.9192 31.0623 27.8891 31.2209C27.8589 31.3794 27.8619 31.5425 27.8977 31.6999C27.9264 31.8915 27.9948 32.075 28.0983 32.2387C28.2019 32.4024 28.3385 32.5427 28.4993 32.6507C28.6601 32.7586 28.8417 32.8319 29.0324 32.8659C29.2231 32.8998 29.4188 32.8936 29.607 32.8477C30.265 32.7643 30.6088 32.2516 30.5103 31.4831Z" fill="#FF80A6"/>
<path d="M29.3079 49.6744C29.273 49.4034 29.1445 49.1531 28.9446 48.9668C28.7447 48.7805 28.486 48.6699 28.2132 48.6542C27.9507 48.7325 27.7239 48.9004 27.5723 49.1287C27.4207 49.3569 27.3539 49.631 27.3834 49.9034C27.3974 50.0327 27.4368 50.158 27.4992 50.2721C27.5616 50.3862 27.6459 50.4869 27.7473 50.5684C27.8486 50.6499 27.965 50.7106 28.0899 50.7471C28.2147 50.7837 28.3455 50.7952 28.4748 50.7811C28.6053 50.7707 28.7321 50.7326 28.8468 50.6695C28.9615 50.6064 29.0615 50.5197 29.1402 50.4151C29.219 50.3106 29.2746 50.1905 29.3035 50.0628C29.3324 49.9351 29.3339 49.8027 29.3079 49.6744Z" fill="#FF80A6"/>
<path d="M46.8579 44.403C46.0294 44.5308 45.5812 45.0276 45.6978 45.7031C45.7759 46.0146 45.9636 46.2874 46.2265 46.4718C46.4894 46.6561 46.8098 46.7396 47.1293 46.707C47.2849 46.6938 47.4363 46.6496 47.5746 46.577C47.7129 46.5044 47.8354 46.4049 47.9347 46.2844C48.0339 46.1638 48.1081 46.0246 48.1529 45.8749C48.1976 45.7252 48.2119 45.5682 48.195 45.4129C48.1436 45.1055 47.9763 44.8295 47.7276 44.6416C47.4788 44.4538 47.1676 44.3684 46.8579 44.403Z" fill="#FF80A6"/>
</svg>
